<svg xmlns="http://www.w3.org/2000/svg">
  <symbol id="arrow">
    <title>Arrow</title>
    <path stroke-linecap="round" d="M76 166l180 180 180-180"/>
  </symbol>
  <symbol id="eco">
    <title>Eco</title>
    <path stroke-linejoin="round" d="M455.4 358.2H56.6M256 223.5c0-63 56.3-79.2 56.3-79.2s-1 69.3-56.3 80.7m0 133.2V223.5m0 41.5c0-50-63-57.3-63-57.3s11.3 57.3 63 57.3"/>
  </symbol>
  <symbol id="facebook">
    <title>Facebook</title>
    <path d="M395 64H117c-29.2 0-53 23.8-53 53v278c0 29.2 23.8 53 53 53h278c29.2 0 53-23.8 53-53V117c0-29.2-23.8-53-53-53zm13.9 331c0 7.7-6.2 13.9-13.9 13.9h-75.6V293.6h43.4l6.5-50.3h-49.9v-32.1c0-14.6 4-24.5 25-24.5h26.7v-45c-4.6-.6-20.4-2-38.9-2-38.4 0-64.8 23.5-64.8 66.6v37.1h-43.5v50.3h43.5V409H117c-7.7 0-13.9-6.2-13.9-13.9V117c0-7.7 6.2-13.9 13.9-13.9h278c7.7 0 13.9 6.2 13.9 13.9v278z"/>
  </symbol>
  <symbol id="haiti">
    <title>Haiti</title>
    <path stroke-linejoin="round" d="M104 295l-8.7 28.7 22 16.7L130 335l30.7 32.7h12l-7.3-13.3 44-12.7 71.3 13.3 78.8-10.5c4.2-.6 8.4.4 12 2.7l21.9 14.4 3.9-24.3c.9-5.8-.6-11.7-4.3-16.2l-16-20c-2-2.5-.2-6.1 2.9-6.1 8 0 15-5.3 17.2-13l10.9-38.1c1.7-6.1.7-12.6-2.8-17.8l-9.8-14.4 9.3-7.3-10.7-30-58.7-6-52.8-22.9c-4.7-2-9.9-2.3-14.7-.7L214.2 162c-3.1 1-4.9 4.2-4.2 7.4l1.6 6.8c.6 2.6 2.8 4.4 5.4 4.8l30.3 3.5c3.8.4 7.4 1.7 10.6 3.7l34.1 21.6-9.8 37.2c-1.3 4.9.6 10.1 4.7 13l49.8 35.2-1.3 15.3-34.7-6-12 18.7-158-30L104 295z"/>
    <path stroke-linejoin="round" d="M229.3 264.3l5.7 7.1c3.3 4.1 7.7 7 12.7 8.4l35.6 9.9-3.1-6.5c-1.9-3.9-5.1-7.1-9.2-8.7l-26.4-10.9c-3.9-1.6-8.2-1.7-12.1-.3l-3.2 1zM251.4 113.9l63 23.7-16.2-18.1-18.8-8.9c-7.4-3.5-16.1-3.2-23.3.7l-4.7 2.6z"/>
  </symbol>
  <symbol id="instagram">
    <title>Instagram</title>
    <path d="M403.7 738.5h-33.5c2.4 9.5 3.9 19.3 3.9 29.5 0 65.2-52.9 118.1-118.1 118.1S137.9 833.2 137.9 768c0-10.2 1.4-20.1 3.9-29.5h-33.4V901c0 8.2 6.6 14.8 14.8 14.8H389c8.2 0 14.8-6.6 14.8-14.8l-.1-162.5zm0-103.4c0-8.2-6.6-14.8-14.8-14.8h-44.3c-8.2 0-14.8 6.6-14.8 14.8v44.3c0 8.2 6.6 14.8 14.8 14.8h44.3c8.2 0 14.8-6.6 14.8-14.8v-44.3zm-147.7 59c-40.8 0-73.9 33.1-73.9 73.9s33.1 73.9 73.9 73.9 73.9-33.1 73.9-73.9-33.1-73.9-73.9-73.9M403.7 960H108.3C83.8 960 64 940.1 64 915.7V620.3c0-24.5 19.8-44.3 44.3-44.3h295.4c24.5 0 44.2 19.8 44.2 44.3v295.3c.1 24.5-19.7 44.4-44.2 44.4"/>
  </symbol>
  <symbol id="leather">
    <title>Leather</title>
    <path stroke-linejoin="round" d="M231 135.1l-17.2 14c-2.6 2.1-4.1 5.3-4.1 8.7v28.6c0 5.3-5.8 8.6-10.3 5.8l-72.7-44.6-17 17 42 53-3.3 33.4c-.5 4.8 1.3 9.6 4.7 12.9l38.7 37.9c3 2.9 3.9 7.3 2.3 11.1l-20.9 50.7-9.5 48h20l25.3-20.4c3.5-2.9 8.3-3.8 12.6-2.5l48.3 14.3c5.6 1.6 11.6.8 16.5-2.3l45.5-28.6c5.4-3.4 12.2-3.3 17.5.1l36.3 23.4 6-18-40.4-64.3c-2.3-3.7-3.2-8.1-2.6-12.4l6.4-42.2c1-6.3-1.3-12.7-6-16.9l-7.1-6.5c-4.5-4.1-6.4-10.4-4.9-16.2l27.3-106c1.3-5.1-3.8-9.6-8.7-7.6l-22.1 9.1-45.3 58.3c-1.7 2.2-5.2 2-6.6-.5l-8.1-14.4c-2-3.5-4.8-6.5-8.2-8.7l-22.7-14.7c-3.5-2.5-8.3-2.2-11.7.5z"/>
  </symbol>
  <symbol id="pinterest">
    <title>Pinterest</title>
    <path d="M255.9 40c-119.3 0-216 96.7-216 216 0 88.4 53.1 164.4 129.2 197.8-.6-15.1-.1-33.2 3.8-49.6 4.1-17.5 27.8-117.7 27.8-117.7s-6.9-13.8-6.9-34.2c0-32 18.6-55.9 41.7-55.9 19.7 0 29.1 14.8 29.1 32.4 0 19.7-12.6 49.3-19.1 76.7-5.4 22.9 11.5 41.6 34.1 41.6 40.9 0 68.5-52.6 68.5-114.8 0-47.3-31.9-82.8-89.8-82.8-65.5 0-106.3 48.8-106.3 103.4 0 18.8 5.6 32.1 14.3 42.3 4 4.7 4.6 6.6 3.1 12.1-1 4-3.4 13.6-4.4 17.3-1.4 5.5-5.9 7.4-10.8 5.4-30.2-12.3-44.2-45.4-44.2-82.5 0-61.3 51.7-134.9 154.4-134.9 82.4 0 136.7 59.6 136.7 123.8 0 84.7-47.1 148-116.5 148-23.3 0-45.2-12.6-52.7-26.9 0 0-12.6 49.8-15.2 59.4-4.6 16.6-13.6 33.3-21.8 46.2 19.4 5.7 39.9 8.9 61.2 8.9 119.3 0 216-96.7 216-216-.3-119.3-96.9-216-216.2-216z"/>
  </symbol>
  <symbol id="tire">
    <title>Tire</title>
    <circle cx="256" cy="256" r="76"/>
    <circle cx="256" cy="256" r="128.2"/>
    <circle cx="256" cy="256" r="57"/>
    <circle cx="256" cy="256" r="21.4"/>
    <circle cx="255.4" cy="218" r="3.9"/>
    <circle cx="292.3" cy="245.4" r="3.9"/>
    <circle cx="278.5" cy="288.2" r="3.9"/>
    <circle cx="232.6" cy="288.2" r="3.9"/>
    <circle cx="218.4" cy="245.4" r="3.9"/>
    <path stroke-linejoin="round" d="M399.1 233.3c-.6-3.8 1.9-7.4 5.7-8.1-2.3-10.9-5.7-21.6-10.3-31.8-3.4 1.7-7.7.2-9.4-3.2-1.8-3.4-.5-7.6 3-9.5-5.5-9.5-12-18.6-19.7-27.1-2.8 2.6-7.2 2.6-10-.1-2.7-2.7-2.7-7.1-.1-10-8.4-7.7-17.4-14.2-27.1-19.7-1.8 3.4-6.1 4.7-9.5 3-3.4-1.8-4.9-5.9-3.2-9.4-10.2-4.6-20.9-8.1-31.8-10.3-.7 3.8-4.3 6.3-8.1 5.7-3.8-.6-6.4-4.2-5.9-8-11.2-1.2-22.3-1.2-33.5 0 .5 3.8-2.1 7.4-5.9 8-3.8.6-7.4-1.9-8.1-5.7-10.9 2.3-21.6 5.7-31.8 10.3 1.7 3.4.2 7.7-3.2 9.4-3.4 1.8-7.6.5-9.5-3-9.5 5.5-18.6 12-27.1 19.7 2.6 2.8 2.6 7.2-.1 10-2.7 2.7-7.1 2.7-10 .1-7.7 8.4-14.2 17.4-19.7 27.1 3.4 1.8 4.7 6.1 3 9.5s-5.9 4.9-9.4 3.2c-4.6 10.2-8.1 20.9-10.3 31.8 3.8.7 6.3 4.3 5.7 8.1-.6 3.8-4.2 6.4-8 5.9-1.2 11.2-1.2 22.3 0 33.5 3.8-.5 7.4 2.1 8 5.9.6 3.8-1.9 7.4-5.7 8.1 2.3 10.9 5.7 21.6 10.3 31.8 3.4-1.7 7.7-.2 9.4 3.2 1.8 3.4.5 7.6-3 9.5 5.5 9.5 12 18.6 19.7 27.1 2.8-2.6 7.2-2.6 10 .1 2.7 2.7 2.7 7.1.1 10 8.4 7.7 17.4 14.2 27.1 19.7 1.8-3.4 6.1-4.7 9.5-3 3.4 1.8 4.9 5.9 3.2 9.4 10.2 4.6 20.9 8.1 31.8 10.3.7-3.8 4.3-6.3 8.1-5.7 3.8.6 6.4 4.2 5.9 8 11.2 1.2 22.3 1.2 33.5 0-.5-3.8 2.1-7.4 5.9-8 3.8-.6 7.4 1.9 8.1 5.7 10.9-2.3 21.6-5.7 31.8-10.3-1.7-3.4-.2-7.7 3.2-9.4 3.4-1.8 7.6-.5 9.5 3 9.5-5.5 18.6-12 27.1-19.7-2.6-2.8-2.6-7.2.1-10 2.7-2.7 7.1-2.7 10-.1 7.7-8.4 14.2-17.4 19.7-27.1-3.4-1.8-4.7-6.1-3-9.5 1.8-3.4 5.9-4.9 9.4-3.2 4.6-10.2 8.1-20.9 10.3-31.8-3.8-.7-6.3-4.3-5.7-8.1.6-3.8 4.2-6.4 8-5.9 1.2-11.2 1.2-22.3 0-33.5-3.9.5-7.4-2.1-8-5.9z"/>
  </symbol>
  <symbol id="twitter">
    <title>Twitter</title>
    <path class="st0" d="M472.6 121.7c-15.9 7.1-33.1 11.8-51 14 18.3-11 32.4-28.4 39.1-49.2-17.2 10.2-36.2 17.6-56.4 21.6C388 90.8 364.9 80 339.3 80c-49.1 0-88.9 39.8-88.9 88.9 0 7 .8 13.7 2.3 20.3-73.9-3.7-139.3-39.1-183.2-92.8-7.6 13.1-12 28.4-12 44.7 0 30.8 15.7 58 39.5 74-14.6-.5-28.3-4.5-40.2-11.1v1.1c0 43.1 30.6 79 71.3 87.1-7.5 2-15.3 3.1-23.4 3.1-5.7 0-11.3-.6-16.7-1.6 11.3 35.3 44.1 61 83 61.7-30.4 23.8-68.7 38-110.4 38-7.2 0-14.2-.4-21.2-1.2 39.3 25.2 86 39.9 136.2 39.9 163.5 0 252.8-135.4 252.8-252.8 0-3.9-.1-7.7-.3-11.5 17.5-12.7 32.6-28.3 44.5-46.1z"/>
  </symbol>
</svg>
