<svg xmlns="http://www.w3.org/2000/svg" viewBox="0 0 512 512"><path d="M255.9 40c-119.3 0-216 96.7-216 216 0 88.4 53.1 164.4 129.2 197.8-.6-15.1-.1-33.2 3.8-49.6 4.1-17.5 27.8-117.7 27.8-117.7s-6.9-13.8-6.9-34.2c0-32 18.6-55.9 41.7-55.9 19.7 0 29.1 14.8 29.1 32.4 0 19.7-12.6 49.3-19.1 76.7-5.4 22.9 11.5 41.6 34.1 41.6 40.9 0 68.5-52.6 68.5-114.8 0-47.3-31.9-82.8-89.8-82.8-65.5 0-106.3 48.8-106.3 103.4 0 18.8 5.6 32.1 14.3 42.3 4 4.7 4.6 6.6 3.1 12.1-1 4-3.4 13.6-4.4 17.3-1.4 5.5-5.9 7.4-10.8 5.4-30.2-12.3-44.2-45.4-44.2-82.5 0-61.3 51.7-134.9 154.4-134.9 82.4 0 136.7 59.6 136.7 123.8 0 84.7-47.1 148-116.5 148-23.3 0-45.2-12.6-52.7-26.9 0 0-12.6 49.8-15.2 59.4-4.6 16.6-13.6 33.3-21.8 46.2 19.4 5.7 39.9 8.9 61.2 8.9 119.3 0 216-96.7 216-216-.3-119.3-96.9-216-216.2-216z"/></svg>
