<svg id="Layer_1" xmlns="http://www.w3.org/2000/svg" viewBox="0 0 512 295.6"><style>.st0{fill:#9a3e37}</style><path class="st0" d="M316.4 271.9v1.3s.2 0 .4.1v-1.4h-.4zm-.6-7.8c.4-.4.7-.6 1-.9-.8-.2-.8-.2-1 .9zm1.2 9.3c-.1 0-.1 0-.1-.1v.1h.1zm26.5-14.5c-.1 0-.1-.1 0 0-.1-.1-.1 0 0 0-.1 0-.1 0 0 0zm75.6 19.3c.1-.1.1-.3.1-.6-.1 0-.3-.1-.4-.1v.6c.2 0 .3 0 .3.1zm-42.2 15.1v-.4c-.2.1-.5.1-.8.2-.3.2-.6.4-.9.5.9.6 1.3 0 1.7-.3zm102.2 1.1c.3-.1.6-.3 1-.3l-.1-.3h-.6c-.1.1-.3.1-.4.2 0 .1.1.3.1.4zm21.8-8.9c0-.1 0-.1 0 0-.1 0-.1 0-.2.1.1-.1.2-.1.2-.1zm-206.6-28.1c-.4-.3-.7-.6-1-.9 0 .2-.1.5-.1.7.1.3.5.4 1.1.2zm213.8 20.4c.1.4.1.9.2 1.3h.9c-.3-.4-.6-.9-.6-.7.1-.9 1.3-1 .9-2.1-.5.3-.9.6-1.3.9v.1c0 .2 0 .3-.1.5zm3.4-6.6c-.4-1-1-2.1-2.7-1.9h-.2c-.1 0-.1-.1-.1-.2 0-.3.1-.7.1-.9 0 .2-.1.6-.1.9 0-.2.1-.6.1-.9v-.1c-.9-.3-1.6-.4-2.2-.3-.3.1-.6.3-.9.6-.1.1-.1.3-.3.4 0 0-.1.1-.1.3-.7 1.5-1.5 3.1-2.1 4.8.9.9 2.4-.6 3 .7-.4.7-1 .3-1.5.1-1.2-.4-1.8-.4-2.4.6-1.5 2.2-3.6 3.9-5.9 5 0 0 0 .1-.1.4h1.2c-.7.7-1.8.9-2.7.7-.4-.1-.9-.4-1.3-.1-.4.3-.6.7-.9 1.2-1-.1-1-1.2-.4-1.5 1-.6 1-1.5 1-2.2 0-2.7 0-5.3-.4-8-.3-2.1-1.3-4-2.2-6.1-.1-.3-.6-.6-1-.9-.1-1.9-.9-3.7-3.3-4.3.1-.3.4-.4.7-.9-1.5-.3-1.5-1.8-2.2-2.7-.4-.3-.9-.6-1.5-.9.7-.4.3-.9-.1-1.2-.3-.1-.7-.4-.7-.6-.3-1.6-1.5-2.8-2.5-4-1.2-1.5-1.5-2.8-.7-4.5.1-.1.1-.4.3-.7h-.9c.4-.4 1.2-.6 1.5-1 1.2-2.4 1.9-4.8 1.6-7.4-.4-4.3-3.6-5.6-7.1-4.5-1.9.7-3.9 1.8-5.3 3.3-.3.3-.9.4-.4 1.2-.4.1-.9.3-1.2.4-1.3 1.3-2.2 3-2.7 4.8-.3.9-.4 2.1 1 2.5-.3.4-.6.7-.9 1.2.6.4 1.2.9 2.1 1.6h-1.3c.3.6.6 1 .7 1.5.9 0 1.6.1 2.4.1v.4c-.4.1-1 .1-1.5.3-.3 0-.7.3-.7.4 0 .3.3.7.3.9-.3.3-.9.4-.9.6-.7 2.2-1.5 4.5-2.4 6.7 0 .1-.1.4-.1.7 1.5.1.4-1.3 1.2-1.6.4.3.7.7 1 1 1-.1 1.8-.1 2.5-.3.7-.1 1.5-.3 2.2-.6 0 .1 0 .3.1.4-2.5.7-4.9 1.8-7.4 1.6-.1 1.2-1.5 2.2-.1 3.3-.4.4-1.2.6-1.3 1-.7 2.2-1.6 4.6-1.8 7-.1 2.1.4 4.3-1 6.2 0 0 .1.4.3.6-.6.3-1.2.4-2.1.7.2-.4.3-.7.5-.9.1 0 .3-.1.4-.1-.1 0-.3.1-.4.1.1-.2.3-.4.4-.7-.3 0-.6 0-.7.1-1.8.4-2.5 1.6-2.8 4h.1s.1 0 .3.1h.1s.1 0 .1.1c-1 .3-1.5.7-1 1.8.6 0 1.3-1.3 1.8.1-.6.1-1.2.4-1.8.7.1.6.1 1.2.1 1.8-1.6 1.5-3.4 1.8-5.3.9-.1.6-.3 1-.4 1.6-.7-.1-1.3-.3-2.1-.4.7-.4 1.3-.9 2.1-1.3H447c-1.3-.1-1.3-.1-1.8-1.6-.1-.4-.4-.9-.7-1.3-.6-.7-1-1.3-1.8-2.2 1.5.3 1.9 1.5 2.5 2.4.7 1.2 1.3 2.5 3.4 2.2-.6-.9-.9-1.7-1.1-2.6-.2.2-.4.5-.7.8-.3-.6-.6-.9-1-1.5.6-.1 1.1-.1 1.6-.2-.1-.9-.1-1.7-.1-2.6v-12.8c0-.6-.1-1.2-.3-1.8v-.3c.1-.6.3-1.2.3-1.8 0-2.1-.3-4.3-.1-6.4.1-3.1.4-6.2-.3-9.2-.3-1.5-.1-3.6-2.5-4.2 1-.9.4-1.5-.1-2.1-1.9-2.4-4.5-3.3-7.3-3.4-2.4-.1-4.9-.3-6.7 1.9-.1.1-.3.1-.4.1-.7.3-1.5.6-2.1 1-2.4 1.8-4 4.3-5.5 6.7-.4.6-.4 1 0 1.6.1.1 0 .4 0 .7-.3-.3-.6-.4-.9-.6-.3.4-.7.9-1.2 1.5 0-1.9-.1-3.6 0-5 .3-4-3-6.2-6.2-6.5-1.2-.1-2.5-.3-3.7.4-.3.1-.6.7-.6.7.9.9-.6.6-.6.9.9 9.1 0 18 .6 26.7-1.3 0-1.8.1-2.4 1.5-.1.3-.3.6-.4 1-.4 1.9-1 4-1.5 5.9-.6 2.5-1.6 5-3.1 7.3-1 1.5-2.4 2.7-4.2 3-1.5.3-2.8-.1-3.4-1.5-.4-.9-.7-1.9-.9-3-.1-.9-.1-1.8-.1-2.7v-33c0-1 0-2.1-.3-3-.4-1.9-1.8-3.1-3.9-4 .3.6.6.9.7 1.2-.6-.1-1-.6-1.3-.9s-.6-.6-.9-.7c-1-.1-2.1-.1-3.1 0-1.8.3-2.4 1.5-2.2 3.3.1 1.2.3 2.5.3 3.7v14c1-.3 1.6-.6 2.5-.9-.4.6-.7 1-1 1.5-.6-.1-1-.1-1.6-.3.1 1.3.3 2.4.3 3.4s-.3 2.1-.1 3.1c.1 1.2-1.5 1.8-.3 3h-1.3c-.1.6-.4 1.3-.4 2.1-.1.4 0 1-.1 1.5-.6 1.8-1.2 3.7-1.8 5.5-.1.3-.1.7-.1 1 .1 1 .1 2.2.3 3.9-.7-.7-1.2-1-1.6-1.6-.7 1.2-1.5 2.2-2.2 3.4-.4.1-1.2.4-1.8.7-2.4.9-4.8.1-5.8-2.2-.4-1.2-.7-2.7-.9-4-.1-1.9 0-4 0-5.9-.4 0-.9-.1-1.2-.1.4-.7 1-1.5 1.2-2.2.1-1.6.1-3.4 0-5s.6-3.3-.6-4.8v-.3c1-1.6.4-3.4.4-5-.1-1-.7-1.9-1.3-2.8-.3-.4-1-.4-1.5-.7-1.8-1.6-3.9-2.1-6.1-1.5-.9.1-2.1 1.9-1.9 2.8.1 1.9.4 3.7.6 5.6.7.1 1-1.9 2.2-.4-1.5.4-2.4 1.3-2.5 3v3.9c.4.1.7.3 1.3.4-.6.4-1 .7-1.2.9v5.2c1.6-1.2 1.5.9 2.5.9-1 1.9-1.6-.6-2.4-.1-.6 1.2.3 1.8 1.2 2.7h-1.3v.9c1.2.4 2.2.7 3.4 1.2 0 .1 0 .4.1 1 .7-.3 1.3-.4 1.9-.7 0 .3.1.7 0 .9-1.2 1-2.5.9-4 .3.3-.3.6-.4 1-.9-1.2-.3-2.1-.1-2.5.7-1 1.8-2.1 3.6-3.1 5.2-.1.1.1.6.1.6-.7.3-1.3.4-1.9.7-1.5.7-3 1-4.6.6-2.5-.6-4-2.2-5-4.5-.7-1.8-1.2-3.7-1.2-5.6 0-2.7.1-5.5.3-8.2h-1.5c.4-.7.7-1.5 1.2-2.2.1.3.3.6.7 1.3.3-1.2.4-1.9.7-2.8.7-1.8 1.1-3.7 2-5.3-1.6 0-1.6 0-1.7-2.1.6.6 1.2 1.3 1.7 2 .1-.1.1-.3.2-.4 1.2-2.1 2.7-4.2 4.3-5.8 1.8-1.8 4-3.3 6.1-4.9.1-.1.3 0 .4-.1 1.5-.4 3.1-.7 4.5-1.2v-1c.4.3.9.7 1.3.7 1.2 0 2.5-.1 3.7-.3.4 0 1-.1 1.3 0 .9.7 1.5.3 1.9-.6.3.4.4.6.6.9.9-1.5.9-1.5.1-2.7-.1-.3-.1-.7-.3-1.2.4 0 .7-.1 1-.1-.1-.6-.3-1.2-.4-1.6-.9-2.2-2.5-3-4.9-2.4-.3 0-.6.1-.7.1-.9-.6-2.1.1-3-.9-.1-.1-.9 0-1.5 0-3.1.3-5.9 1.2-8.8 2.5-2.1.9-4.2 2.1-5.9 3.6.4.1.7.3 1.2.4-2.7.7-4.6 2.2-6.2 4.2-2.2 2.5-4.2 5.5-5.6 8.6-.4.9-.9 1.8.4 2.7-1.5-.6-1.6.3-1.9 1s-.4 1.6-.7 2.4c-.3.9 0 1.5 1 1.6.1-.3.3-.7.6-1.2.4.4.9.9 1 1.2.6 0 .9-.1 1.5-.1-.9 1.3-2.7-.1-3 1.3-.6-.3-1-.4-1.6-.9-.1 1-.3 1.9-.4 2.7-.3 1.8-.3 3.6-.9 5.3-.6 1.8-1 3.4-1.5 5.2-.3 1.8-1.3 3.3-2.2 4.8-1.5 2.5-3.4 4.3-6.7 3.7-.3.7-.6 1.5-.9 2.4-.4-.7-.6-1.2-.9-1.6.3-.4.7-.9 1-1.3-1.2-1.6-1.5-3.4-1.5-5.2-.6-.4-1.4-.6-1.4-2.1l1.5 1.5v-.7c0-1-.1-1.6-1-2.1v-.4c.3-.1.7-.3.7-.4.4-3.3.1-6.2 0-9.4-.1-3 .1-6.1.1-9.1v-1.6c-1.1.7-2-.1-3.1-.6h3.1v-7c-.9-.1-1.5-.3-2.1-.4v-.6c.6.1 1 .3 1.3.4.6-.7.4-1.2-.1-1.6-.3-.3.1-1.2 0-1.8 0-.1-.7-.3-1-.3-.9 0-1.5-.6-1.5-1 0-.9-.4-1.5-.4-2.2 0-.3.3-.6.4-.9-3.1-2.8-6.7-3.4-10.7-2.4 0 .3 0 .4-.1.7 0 .1-.1.3-.3.6-.6-.4-.9-1.2-1.5-.3.1.3.4.7.7 1.3-.7 0-1.3.1-1.8.1-1.2 0-2.4-.1-2.5 1.6 0 .1-.3.1-.4.3-1.9.9-2.5 2.7-3.9 4.5h2.1c-.7.4-1.8.4-2.4.9-.6.4-.9 1.3-1.5 2.2-.1-.6-.3-.9-.4-1.2-.6 0-1 .1-1.8.3l.3-.3c.6-.6 1-1 1.5-1.6-.4-1.3-1-2.8-1.5-4.3-.3-.6-.6-.7-1.2-.3 0 .1 0 .3.1.4.1.3.4.4.3.6-.1.2-.2.4-.2.6-.4.2-.8.4-1.3.6.1.6.4 1 .6 1.6.3-.2.6-.4 1-.6.2.4.4.9.5 1.3-.4.6-.9 1.2-1.2 1.6-.4 0-.9.1-1.2.1l1.8-1.2c-.1-.3-.1-.4-.3-.6-.7.1-1.3.2-2.1.3v-.1.9c0 .1 0 .2.1.4v.4c-.5.1-1 .1-1.5.1-.6.1-1 .1-1.6.3-.2-.9-.5-1.8-.1-2.8.1-.2-.1-.5-.4-.7.3 0 .6 0 .9.1h.1c0-.1.1-.3.3-.4.1-.3.3-.7.4-1l.1.1c0 .1.1.3.1.4v-.1.1c0 .1 0 .1.1.1.7.1 1.3 0 1.8-.6 0-.1 0-.1-.1-.1 0 0 0-.1-.1-.1l-.1-.1h-.7s-.1.1-.3.1h-.2v-1.9c.4-.3.9-.7 1.3-1.2.4-.4 1-1.2.6-1.8-.4-.4-1.3-.4-1.9-.7-.1 0-.4.1-.6.3-.7.9-1.5 1.6-2.2 2.5 0 0-.3-.3-.3-.4.9-1.2.6-2.8 2.1-3.7-1.8-.6-3 1.3-4.5.3-.6 1.3.9 3-1.2 3.9.3-1 .1-2.2-.1-3.3-1 .4-2.2.7-2.1 2.4 0 .3-.4.7-.7 1.3-.1-.7-.1-1-.3-1.8-2.2 2.1-4 4.2-5.2 6.8.6-.4.9-1 1.3-1.3.6-.3 1.3-.3 2.2-.4-1.8 1.9-4.2 2.8-5.8 4.5-.7-.3-.1-.6-.1-1 0-1.9 0-3.9-.1-5.8 0-.6-.6-1.2-1-1.9-.9.3-1.6.6-2.2.7l-.3-.3c.3-.4.6-1 .9-1.5-1.8-1.6-4-1.8-6.2-1.2-2.1.6-2.5 2.2-1.2 4.3.3-.3.7-.6 1-.9.7.3 1.5.9 2.1.7 1.3-.4 2.7.4 4.2-.1-.1.6-.1.9-.1 1.3-1-.6-1.9-1-3-.3h-.2c-.7-.4-1.5-.1-2.2.1-.6.3-1.2.4-1.6-.3V256c.7-.4 1.3-.6 1.9-1.2.6-.4.9-1.2 1.3-1.8 1.3 1.2 2.2.3 3.1-.4 1 .4 1.9.9 3 1.3 0 .1 0 .3-.1.4-.4 0-1 .1-1.2-.1-.9-1-1.5-.4-2.2.1-.3.1-.7.4-.9.3-1-.4-1.6.1-2.2.6.1.4.3.7.6 1.3-.7-.3-1.3-.6-1.8-.7-1.3 1.2-1.8 2.7-1.6 4.5s.3 3.7.3 5.5c0 3.9-.1 7.6-.3 11.3 0 .7.6.9.7 1.2-.3.9-.6 1.5-.6 1.9 0 3 .3 5.8.1 8.8 0 2.2.9 3.7 2.7 4.6 1.8 1 3.9.9 5.6.4 1.5-.4 1.9-1.9 1.9-3.4 0-5.5-.1-11 0-16.5 0-3.1-.1-6.2.6-9.4.7-2.8 1.6-5.6 2.5-8.8-.1-.1-.3-.4-.6-.9.6-.1.9-.3 1.3-.4-.1-.3-.1-.6-.3-.9 1.8-.1 1.9-1.8 2.7-2.8.7-1 1.5-2.1 2.1-3.1l-.2-.2c.1 0 .1-.1.2-.1.1-.1.1-.4.3-.7-.4-.1-1-.1-1.5-.3l-.2.2c-.3-.3-.6-.5-.9-.8 1-1.9 1.2-1.9 2.5-1.2.3-1.6-1-1.5-2.4-1.8 1-.6 1.9-1 2.7-1.5.6.3 1 .6 1.6 1 .4.3.3.9-.1 1-.3.1-.6.1-1.2.1.3.4.6.7.7 1 .1.3.1.7.3 1.2.4-.3.7-.4 1-.6 1.5-.9 2.8-.4 3.4 1.2.3.8.4 1.5.6 2.4-.1.1-.2.2-.3.5 0 .5.2.7.5.8 0 .2.1.5.1.7.2-.2.3-.4.4-.6.4.1.8.3 1.3.6-.1.1-.1.3-.3.4 0 .1-.1.1-.1.3-.1.3-.3.4-.4.7.9-.3 1.6-.4 2.7-.7-.6-.6-.9-1-1.3-1.6.9-.9 2.1-.9 3.1-1 .1 0 .6.6.6.9 0 .6-.1 1.2-.1 1.9-1.5.4-3.4.4-3.9 3 1.9-1 3.7-2.5 5.6-.4-.4.1-.7.4-.9.4-1.5-1-2.7-.4-3.7.6-.1.1-.4.3-.4.3-.9-.4-1.6-.7-2.5-1-.4-.9.7-1.3.9-2.1-.9.1-1.6.3-2.7.4h-.4c1.2 1.6 0 3.1.1 4.6.1 1.5 0 3.1 0 4.6 0 1.6.3 3.3.3 4.8s-.1 3-.3 4.6h1.6c-1.8.9-1.6 2.2-1.6 3.4 0 .6.3 1.3.1 1.9 0 4.3-.1 8.8-.1 13.2 0 1.6.7 3 1.9 4 1.9 1.5 4 1.6 6.2 1 .6-.1 2.2-2.1 2.1-2.7-.3-1.2.3-2.2.1-3.4-.1-1.6-.3-3.3-.4-4.9-.2-.2-.2-.5-.4-1.2h-.8c-.6 0-.9-.1-1.9-.7.9.4 1.9.6 3 .7.1.1.2.2.3.2 0-.6 0-1.3.1-1.9.4-3.3 0-6.5.3-9.8v-2.1c-1.9.9-3.9.4-5.5 1.5-.6.3-1.3.4-2.4.9.9-1.3 1.9-1.5 2.8-1.8.7-.3 1.6-.3 2.2-.7.7-.6 1.5-.9 2.7-.4.4-1.9.7-3.6 1-5.4-.1 0-.2 0-.3.1.2-.5.3-.8.4-1.1 0-.3 0-.6.1-.8.9-1.4 1.6-3 1.9-4.8-.1-.1-.1-.2-.2-.4.1-.1.1-.3.3-.3 0-.1.1-.3.3-.4.6-.9 1.3-1.6 1.8-2.5.1-.3.1-.9.1-1l1.8-1.8c1-1 2.1-2.2 3.3-3.3.4-.4 1.3-.7 2.1-.7.7 0 1.5.1 2.2-.3.1-.1.4.1.9.3-.6.3-1 .6-1.2.7.4 3 .9 5.6 1 8.3 0 .6-.7 1.3.3 1.8-.6.6-.6 1.3-.6 2.1 0 .7.3 1.3.6 2.2-1 1.3-.6 2.5 1 2.8.4.1.7.3 1 .4 0 .1-.1.3-.1.3-.3-.1-.6-.3-1-.3h-1.3v8c.7 0 1.3.1 1.9.1v.3c-.6.1-1.2.3-2.1.4v2.5s.1 1.9.6 2.8c.3.7-.6 1.8-.6 2.8 0 1.2 0 2.5.3 3.6.4 1.9.7 4.2 3 5.3.1 0 .3.3.3.4-.1.7.4 1 .7 1.3 1.9 1.5 4 2.4 6.5 2.5 5.3.3 9.5-1.9 13.1-5.8.1-.1.3-.4.3-.7 0 0-.3-.1-.4-.3.1-.1.4-.6.4-.4 1 .4 1.2-.7 1.9-1 2.7 4.8 6.5 7.7 12 8.3 5.5.6 9.9-1.5 13.7-5.5.4.4.7.7 1 1.2 1.6 1.9 3.7 3.4 6.2 3.9 1.6.3 3.3.6 4.8.4 1.8-.1 3.4-.6 5-1.3.3-.1.7-.3 1-.5-.1-.1-.2-.1-.3-.3l1.2-.3c.8-.5 1.6-1.1 2.2-1.7 1.5-1.2 2.7-2.8 4-4.3.1.4.4.7.6 1.2.6 1.5 1.5 2.8 2.7 4 .9.9 1.6 1.6 3 .9.1-.1.4 0 .7 0 .1 0 .3.1.4.3-.3.1-.4.1-.6.3l-.6.6c2.8 1.3 5.5 1.3 8.2.7.9-.1 1.6-.4 2.5-.7.7-.3 1.5-.7 2.2-1.3.6-.4 1.2-1 1.8-1.5.6-.6 1.5-.9 2.1-1.5.7-.7 1.5-1.8 2.1-2.7l.7-.7c.1 1.5.4 3 .6 4.3.1 1.6 1 2.7 2.2 3.4 1.6.9 3.4 1.2 5.2.9 1-.1 1.9-.7 2.2-1.8.3-.7.4-1.6.4-2.4v-9.7c0-.3-.1-.6-.1-.9-1.5.9-2.7 1.6-4 2.4 0-.1-.1-.1-.1-.3 1.5-1 2.8-2.1 4.3-3.1v-1.4c-.3-.1-.7-.3-1-.5 0-.1.1-.3.1-.4l.9.3v-1.5c-.4-.4-.9-.6-1-.9-.4-.9.7-.7 1-1.2 0-1.2-.1-2.5 0-3.7.4-3.1.7-6.1 1.5-9.1.6-2.1 1.9-4 3.1-5.8.6-1.2 1-2.4 2.1-3.4.3-.3.3-.9.4-1.3.6-.3 1.2-.6 1.6-1 .7-.6 1.2-1.3 1.9-1.8 1.2-.9 2.4-2.1 4.2-1.2.3.1.7-.1 1-.1.7-.1 1.5-.3 2.5-.4-.7 1.5-1.6 1.5-3 1.5 1.2 1.9.4 4.2 1.6 5.9v.3c.4 0 .9.1 1.5.1-.3.9-.9.9-1.5 1.2-.1.4-.4.9-.6 1.5.6-.1 1-.3 1.3-.3 0 .6-.1 1-.1 1.3-.4.1-.7.3-1 .3v.6c0 .9-.1 1.8 1.3 1.9 1 .1.9 1-.3 1.9-.6-.1.9-1.9-1-1.3v3.3c0 1.3 1.2 1.8 2.2 2.4-1 1-1.3-.6-2.2-.4v7.3c0 1.5 0 1.5 1.6 1.6-.4.1-1 .4-1.6.6v8.5c0 .3 0 .6.1.9.1.3.4.4.9.7.3-.9.4-1.5.7-2.5.1 1 .3 1.6.3 2.1-.6.4-1 .7-1.6 1.3.6 1.2 1.2 2.5 1.8 3.7.4-.1.7-.1 1.5-.3-.4.4-.6.7-.9 1 .6.6 1.2 1.2 1.8 1.6.7-.3 1.3-.6 1.9-.9 0 .1.1.3.1.3-.4.3-.9.7-1.5 1.2 1.5.4 2.7 1 3.9 1.3.4.1 1 0 1.5-.1.3-.1.4-.6.9-1.2.3.4.4.7.7 1 .3.1.7.4.9.4 1-.9 2.7.3 3.4-1 1.5.4 2.5-.7 3.7-1.3.9-.6 1.6-1.2 2.5-1.8 1 1.2 2.4 1.2 3.7.9.7-.1.9.1 1.2.6v.4c-.4 0-1-.1-1.5-.1 2.5 1.5 5.2 2.2 8 2.5 1.2.1 2.5.1 3.7 0 .3-.7.7-.4 1.4-.3-.3.1-.5.1-.7.2 1-.1 2-.5 2.9-.5h.9s.1 0 .3-.1h.3s.1-.1.3-.1c.1 0 .1-.1.2-.1 0-.1-.1-.2-.1-.2h.5c.8-.4 1.6-.9 2.2-1.6-.6 0-1.2.1-1.3-.9.7 0 1.2.3 1.3.9 2.2-1.6 4.6-2.8 7.4-2.7-.4-1.9-2.1-.7-3.1-1.2.7-.6 1.3-1.2 1.8-1.8.6-.1 1.3-.1 2.4-.4l-1-1c.3-.3.6-.4.9-.7.6 1.2.4 2.3.3 3.4h-.1c0 .1.1.2.1.2 0 .5-.1.9 0 1.4.1 0 .4.1.6.1.7-.1 1.6-.3 2.4-.6.7-.3 1.6-.6 2.2-1 .7-.6 1.5.3 2.1-.4.1-.3.6-.3.7-.6.4-.7 1-1 1.8-1 .4 0 .6-.1.7-.2-.4.1-.6.2-.9.2-.1-.1-.3-.4-.4-.6.3-.1.4-.3.7-.3.3 0 .4.3.7.5.1-.2.1-.5.1-.7.6-.1 1.2-.1 1.5-.4 1.3-1 2.7-2.2 3.7-3.6.8-.9 1.8-1.9 2-2.9 0-.2 0-.3-.1-.5.1 0 .1-.1.2-.1.1-1.4 2-2 1.2-3.4 2.7 0 1.8-1 1.4-1.9zm-45.2-18c1.8.3 1.8.3 1.9 1.6-.6-.4-1.1-.8-1.9-1.6zm-207.6-11.3c0-.4.1-.9.1-1.3.6 0 1-.1 2.1-.1-.9.6-.7 1.9-2.2 1.4zm3.5 9.7c.4-.9 0-1.6-.7-2.2.4-.4.7-.6 1.3-1.2-.1 1.3.6 2.5-.6 3.4zm5.1-.9c.1.4.3 1 .4 1.6-.9-.3-1.5-.4-2.1-.7.1-1 .8-1 1.7-.9zm.3 3.1c-.1.3-.3.6-.3.7-.1-.1-.3-.1-.4-.3.1-.1.3-.4.6-.6-.1.1.2.2.1.2zm-1.9-10.1c-.7.6-.7.6-1.8-.4.6.1 1 .3 1.8.4zm-1.1 10c-.4-.3-.7-.6-1-.9.4-.7.9-1.2 1.8-.6-.3.4-.5.9-.8 1.5zm2.2 2.5c-.6 1.6-1.8.9-3 1.2.8-1.8 2.3-.6 3-1.2zm-3.4 14.4c.3-.1.7-.1 1-.1v.7c-.3 0-.7-.1-1-.1v-.5zm.3 1.9c.3 0 .4.3.9.4l-.6.6c-.3-.1-.4-.3-.7-.6 0-.1.3-.4.4-.4zm-2.9 16.2c.3 0 .4.1.7.3-.1.1-.3.4-.4.4-.3-.1-.4-.3-.6-.4.1 0 .3-.3.3-.3zm-4.2-13.2c.1-.7.1-.7 1-.7-.4.3-.7.6-1 .7zm1 4.3c.7-1 1-1.2 1.5-.1-.6.1-.9.1-1.5.1zm2 13.2c.6 0 1.2-.1 2.2-.1-.9.7-1.6.3-2.2.1zm4.7-14.5c-1 0-1.9 1-3.4 0 1.5-.1 2.5-.4 3.4-.4v.4zm.2-4.3c.1-.1.3-.3.4-.6.3.3.4.6.9 1-1 .5-1.2 0-1.3-.4zm.3-11.8c.1-1 .1-1 1.5-.6-.8.3-1.1.5-1.5.6zm1.9-1.7c-.6-.1-1.2-.3-1.6-.6.6-1.3 1.8-1.8 2.8-1.2-.5.7-.9 1.3-1.2 1.8zm5.5-9.5c-1.2-.4-1.2-.4-1.8-1.5-.7.3-1.3.6-2.1.7-.3 0-.6-.4-1.3-.9 1.5-.4 2.7-.6 3.7-.9.4.4.9.9 1.2 1.3.1.4.1.8.3 1.3zm5.3-7.2c-.3-.6-.6-1-.7-1.5 1-.3 1.9-.4 3-.6 0 .1.1.3.1.6-.7.3-1.5.9-2.4 1.5zm2.6.8c.4-.7.7-1.3 1.5-2.2-.3 1.7-.2 2.4-.1 2.9l-.2-.2c-.4-.4-.8-.4-1.2-.5zm6.9 43.8c-.1-.1-.1-.4-.1-.9.3.3.6.3.7.4.1.1.1.4.3.9-.6-.3-.9-.3-.9-.4zm0-4.2c.6.4 1 .9 1.6 1.3-1.6.3-2 .1-1.6-1.3zm2.4-10.1c.3 1 0 1.5-1 1.9.4-.7.6-1.1 1-1.9zm-1 6.3c.3.1.6.4.7.7.1.3-.4.4-.7.1-.1-.1-.1-.3-.3-.4 0-.3.1-.3.3-.4zm-2.7 10.2c-.4-.1-.6-.3-1-.6l1-1c-.1.7-.1 1 0 1.6zm-2.4-5.9v-.6c.6-.4 1-.3 1.6.7-.8-.1-1.1-.1-1.6-.1zm1.4-4.2c-.6.1-1 .3-1.5.3.3-.7.7-.9 1.5-.3zm-2.1-5l1 1c-1 .3-1-.4-1.5-.6.2-.1.3-.3.5-.4zm.4-16.5c-.3-.1-.4-.3-.4-.3-.1-.6-.3-1-.4-1.6.1 0 .1-.1.1-.1.3.1.7.3 1.2.4-.2.5-.3 1-.5 1.6zm3.3-3.1c.7.4 1.3.9 2.4 1.6-1.3.4-2.2.6-3.3.9.3-.9.6-1.7.9-2.5zm-1.3 7.7l-.4-.3c.1-.3.3-.6.4-.7 0 0 .4.1.7.3-.3.4-.4.7-.7.7zm2.8-.8c.3 1.8.3 1.8-1 2.5.1-1 .1-2.2.3-3.3.6-1.8 1.8-.9 3-.7-.3.1-.7.1-1.2.1-1.1.2-1.3.2-1.1 1.4zm1.9 2.3c-.9-.6-.6-1 .4-1.5-.2.7-.2 1.2-.4 1.5zm-1.5-5.5c1.2-.6 1.5-.7 2.7 0h-2.7zm3.9-4.9c-.1 0-.4-.1-.6-.3.1-.1.3-.4.4-.4.1 0 .3.1.6.4-.1.1-.3.4-.4.3zm-.9-2.3c.9 0 1.8-.1 3-.1-1.7.9-1.8.9-3 .1zm24.2 32.1c-1 .1-1.6.3-2.4.4.1-.3.3-.4.3-.6.1-.1.3-.4.4-.7.5.3 1 .5 1.7.9zm-2.8-4.9v-.3c.4 0 .7.1 1 .1v.3c-.4.1-.7.1-1-.1zm.4-12.9c.7-1 1.3-1.9 1.9-2.7.2 1.4-.5 2.1-1.9 2.7zm2-5.9c.3 0 .4.3.9.4-.4.1-.6.4-.7.4-.3-.1-.4-.4-.6-.6.1-.1.2-.2.4-.2zm-1.8-16.5c.4.3.7.6 1.2 1v.1s-.1 0-.3.1c-.3-.3-.7-.6-1-1-.1-.1.1-.1.1-.2zm.4 3.2c-.4.4-.7.6-1 .9-.2-.9 0-1.2 1-.9zm-2.2 2.6c.7 0 1.5.3 2.1.4.6 0 1.3 0 1.9-.1 0 .1 0 .1.1.3-.6.4-1.3.9-1.9 1.3-.7-.3-1.3-.7-2.1-.9-.7-.1-1.5 0-2.4-.3.8-.3 1.5-.7 2.3-.7zm.8 11.2c-.2-.1-.4-.3-.7-.5.4-.4.4-.7 0-1.2-.1-.1 0-.6.1-.7.3-.1.7-.1.9 0 .2.1.3.6.3.7-.1.4-.3.7-.4 1.2-.1.1-.1.3-.2.5zm-1.7-6.3c-.4.4-.6.9-1 1.3-.3-.6-.4-.9-.9-1.5.7 0 1.2.2 1.9.2zm-5.8-17.3c.1 0 .3-.1.4-.1.1.3.4.6.4 1 0 0-.4.3-.6.3-.5-.1-.3-.7-.2-1.2zm-3.4 8.2c-.3 0-.6.1-.9.1v-.3c.3 0 .6 0 .9-.1v.3zm1.3-2.4c-.6.1-.9-.4-.9-1.5-.4-.1-.7-.1-1-.3.1-.1.1-.4.3-.4 1.3-.6 2.1.4 3.4 1.3h-1.6c0 .3-.2.6-.2.9zm.6 2.4c.4-.7.7-1.3 1.2-1.9l.9.9c-.4.7-.9 1.2-2.1 1zm1.5-4.2c0-.1.1-.3.3-.4 1 .6 1.9 1 3 1.6-.1.1-.1.3-.3.4-1.1-.4-2.1-1-3-1.6zm2.2 6.7c1-.1 1-.1 1.5.6l-.3.3c-.3-.1-.7-.4-1.2-.9zm.9 11.5c1.5-1.2 1.5-1.2 3.4.7-1.4-.3-2.3-.4-3.4-.7zm.5 26.7v-1.2c.7.3.9.7 0 1.2zm.6-4.9c.1-.1.1-.3.3-.3.4.1.7.4 1.5.9-1.2.4-1.5 0-1.8-.6zm1.4-3.1c-1-.9-1-.9.3-1.9 0 .7-.1 1.3-.3 1.9zm-.7-7.7c-.1.1-.6-.1-1.2-.3 1.8-.6 2.7-1.8 2.7-3.4 0-.7 0-1.3-.1-1.9 0-.3 0-.6.1-.7.3-.1.4-.4.6-.7 0 0 0-.1.1-.1.1-.4.3-.9.3-1.3 0-.2 0-.5.1-.7h.6l.1.1v.4c-.1.4-.3.7-.6 1.2.4.1.9.3 1.2.4v.3c-.7.1-1.3.3-2.1.4 0 .6.7 1 0 1.9-.9 1.2-.1 2.1 1.5 2.5.1 1.3.1 1.3-1.8.3-.5.5-.9 1.1-1.5 1.6zm2.8 10.2c.1.9.3 1.3.4 1.9h-1.2c.4-.7.5-1.2.8-1.9zm1.1 11c-.3-.4-.4-.7-.7-1.2.9-.4 1.8-.7 2.8-1.2-.1 1.6-1.5 1.3-2.1 2.4zm7.2-4.5v-.3c.3 0 .4-.1.7-.1.1 0 .3.3.7.6-.6 0-1.1-.2-1.4-.2zm31.5-42.4c-.6-.6-.6-.9.4-2.2-.1.8-.2 1.4-.4 2.2zm-2.2-3.6c.7-.1 1.5-1 2.2 0-1.3.4-2.7.7-4 1.2.3-.8.3-.8 1.8-1.2zm-.4 5.6c-.6 0-1.3-.1-2.1-.1 1-.8 1-.8 2.1.1zm-.8 2.4c-.4 1.2-.7 1.3-2.1 1.2.9-.4 1.5-.7 2.1-1.2zm-2.5-2.5c-.7 1-1.8.6-3.1.7 1.3-1.2 1.3-1.2 3.1-.7zm-3 6.4c.1.3.1.6.3.7 0 0-.1.1-.3.1-.1-.3-.1-.6-.3-.9.2.1.3.1.3.1zm-1.2-1.2c-.6-.7-1-1.2-1.6-1.6 1.5 0 1.6.1 1.6 1.6zm-2.9 1.9c.3.1.4.3.7.4-.1.1-.3.3-.3.4-.1-.3-.4-.4-.6-.6-.1.1 0-.2.2-.2zm-3.8 6.6c2 .3 3.2 2.2 5.2 2.2-.8 0-1.6.2-2.6.3-.6-.8-1.7-1.7-2.6-2.5zm3.9 12.6c-.1 0-.4-.1-.4-.1 0-.3.1-.6.1-.9.1 0 .3 0 .4.1.1.3-.1.6-.1.9zm-.1-3.6c-.1 0-.3-.1-.6-.4.3-.1.4-.4.6-.4s.4.3.4.4-.3.4-.4.4zm16.3 14.3c0-.1-.1-.1-.1-.3.1-.4.3-.7.4-1.2.1.1.3.1.4.3-.1.4-.4.7-.7 1.2zm2.4-3.4c0-.1 0-.1.1-.3.1-.2.4-.3.6-.1.3 0 .4.3.6.4l-.3.3c-.3-.2-.6-.2-1-.3zm2.2 2.6c-.4-.3-.7-.6-1.2-.7l.3-.3c.3.3.6.6 1 .9-.1 0-.1.1-.1.1zm1.3-30.7c.7.3 1.5.6 2.2 1-.9.3-1.9.7-3 1-.2-.8.7-1.3.8-2zm1.1 3.3c-.4.3-.9.4-1.3.6 0-.1-.1-.3-.1-.4.4-.1.9-.3 1.3-.4-.1 0-.1.2.1.2zm-1.7 1.1c-.4 1.6-1.3.1-2.2.6.8-1.2 1.5-1 2.2-.6zm-2.6 10.9c1.6-.7 1.6-.7 2.2.4-.8-.1-1.3-.3-2.2-.4zm2.5 8.4c0-.1.1-.3.1-.4.3 0 .6.1.8.3l-.1.2c-.2-.1-.5-.1-.8-.1zm.1-3.4c-.1-.1-.1-.3-.3-.4.4-.1.9-.4 1.2-.6.1.1.1.3.1.3-.1.3-.5.6-1 .7zm1.1 8.9c.6 0 1.2 0 2.1-.1-1.4 1-1.4 1-2.1.1zm6.4 7.8c-.3-.3-.7-.4-1.2-.9 1-.6 1.2.3 1.5.4-.2.3-.3.3-.3.5zm4 4.3c-.7-.9-1.3-1.5-1.9-2.2.9-.7 1.5 1.3 2.7 1-.4.3-.5.7-.8 1.2zm4.6-4.3c.7-.6 1-.9 1.5-1.3 0 .7-.3 1.1-1.5 1.3zm-1.8-1.8c.6-.8 1.5-1.6 2.4-2.5.4.3.9.4 1.2.6-1.2.5-2.4 1.3-3.6 1.9zm4.7-2.8c-.3-.3-.3-.4-.4-.6.1-.1.4-.4.6-.4.2 0 .4.3.4.4l-.6.6zm2.6-3.6l-.3-.1c.1-.3.4-.6.6-.9l.4.4c-.1.1-.4.4-.7.6zm7.8-38.9v1s-.3.1-.6.3l-.3-.3c.2-.1.5-.4.9-1zm-5.3 15.1c-.6-1.3.3-2.7-.4-4h2.4c0 .1 0 .3.1.3-.6.1-1 .3-1.9.6.4.4.7.7.9 1-.2.7-.5 1.4-1.1 2.1zm2.2 30.9c-.4.1-.9.1-1.2 0v-.4c.4 0 .7 0 1.2-.1v.5zm-1.8-2.7c1-.7 1.6-.6 2.1 0-.6 1.2-1.2.2-2.1 0zm-.1-13.2c.9-.6 1.5-.9 1.9 0-.4.3-.7.6-1.3 1-.2-.2-.3-.5-.6-1zm.9-2.5c-.1-.1-.1-.3-.3-.4.6-.3 1.3-.6 1.9-1-.1 1.1-1 1.1-1.6 1.4zm1.9-4.4c.3 0 .7.1 1 .3 0 .1-.1.4-.1.6-.3-.1-.6-.3-1-.4 0-.1.1-.5.1-.5zm.5 21.6s-.1-.1-.1-.3c.3-.1.6-.1 1-.3 0 .1 0 .3.1.4-.3.1-.7.1-1 .2zm.4 1.2c.7.3 1.3.6 1.8.7-1.2 1.1-1.4 1.1-1.8-.7zm1.6-32.6c-.3 0-.6-.1-.9-.1 0-.1.1-.3.1-.4.3 0 .6.1.9.3.1-.1.1.2-.1.2zm.8 8.6c-.1 0-.1-.1-.2-.3.1-.1.3-.4.4-.7.1 0 .1.1.3.1-.2.3-.4.6-.5.9zm3.4 29.8c-.3-.9-.6-1.5-.7-2.2.6.3 1.2.4 1.9.7-.5.3-.9.9-1.2 1.5zm18-30c0 .1.1.3.1.4-.3.1-.6.1-.9.3 0 0-.1-.1-.1-.3.3-.2.6-.4.9-.4zm.9 1.9c-1.5.9-1.8.9-1.9-.4.7.2 1.3.3 1.9.4zm-.8 9.1c-.9.4-.9.4-1.5-.4.5.1.9.3 1.5.4zm-2.2 0c-.7.3-1 .4-1.6.7.1-1 .4-1.1 1.6-.7zm-4.6 10c0-.1 0-.3-.1-.3.3-.1.7-.1 1-.3 0 .1 0 .3.1.4-.3 0-.7 0-1 .2zm1-2.9c1.6-.9 1.6-.9 3.7.3-1.3.6-2.5-.7-3.7-.3zm5.4 9.4c-.1-.1-.3-.1-.4-.3v-1.8c1-.1 1.2.6 1.2 1.2-.1.1-.5.6-.8.9zm3.8 1c.1.3.4.6.4.7l-.3.3c-.3-.1-.4-.3-.7-.4.3-.1.5-.3.6-.6zm-1.3-3.4c-.6-.1-1-.4-1.6-.6 0-.1 0-.3-.1-.4.6-.1 1.2-.3 1.9-.6-.1.7-.1 1.2-.2 1.6zm0-4.4c-.6.6-1.2 1.2-1.9 1.8.1-1.4.1-1.4 1.9-1.8zm-8-5.1c1.5-.7 3.3-.7 4.6-1.9.1-.1.4-.1.7-.1.7.3 1.2 0 1.6-.4.4-.4.6-.3 1.9.4-3 1-6 1.3-8.8 2zm9.8-13.9c-.9-.3-1.6-.3-2.4-1.2 1.5.3 2.5.4 3.7.7.3.4.7.9 1.2 1.6-1-.6-1.8-1-2.5-1.1zm5.2-14c-.1-.4-.3-.7-.4-1.2 0 0 .3-.1.4-.3.3.3.4.7.6 1-.3.2-.4.3-.6.5zm2.5 0c-.1-.3-.4-.6-.6-.9.1 0 .1-.1.3-.1.1.3.4.6.6.9-.1-.1-.1-.1-.3.1zm9.2-8l-.7-.7c0-.1.1-.1.1-.3.1.1.4.1.6.3 0 .1.2.2 0 .7zm11.8 27.7c-.4.6-.6.6-1.9-.6.6-1 1.3-1.9 2.8-2.2l-2.1 2.1c.6.4.9.6 1.2.7zm-.3-8.1c.1.3.1.6.3.9 0 0-.1.1-.3.1-.1-.3-.1-.6-.3-.9.1-.1.3-.1.3-.1zm1.6 3.5c-1.2.6-1.2.6-2.1-.1.6 0 1.2 0 2.1.1zm-2.2-1.9c-.7 1.2-1 1.3-3.3 1v-.4c1.1-.1 2.1-.4 3.3-.6zm-3.9-15.7c-.4-1.2-.1-1.6.9-1.9-.3.5-.4 1.1-.9 1.9zm2.7-.3s.1.1.1.3c-.1.3-.3.6-.4 1.2-.1-.6-.4-.9-.4-.9.1-.3.4-.5.7-.6zm-1.6-5.7c-.6.9 0 2.1-1.6 2.1.5-.4-.1-1.6 1.6-2.1zm-3 4.9v1.3c-.6-.5-.6-.5 0-1.3zm.6 31.8c-.1 0-.4-.1-.6-.3 0-.1.1-.4.3-.4s.4.1.6.3c-.2.3-.3.4-.3.4zm.4-26.9c-1-1.2-1-1.6 0-2.8v2.8zm.2 11.2c.3-.1.6-.4 1-.7.1.4.1.6.1.7-.2.9-.5.3-1.1 0zm1 5.8c0-.1-.1-.1-.3-.3 1.2-.3 1.6-1 1.6-2.4.6.3 1.2.4 1.9.7-1.1.8-2.1 1.4-3.2 2zm1.2 18.2c.3-.3.6-.7.7-1l.3.3c-.3.3-.6.7-.9 1.2-.1-.3-.2-.5-.1-.5zm.2 2.5c.6-.4.9-.6 1.2-1-.1 1-.1 1-1.2 1zm3.5-1.7c0-.4-.1-.9-.1-1.5 1.2.6 1 .9.1 1.5zm.6 4c.3-1 .6-1.6.9-2.4.1.6.3 1.2.3 1.6-.3.3-.6.5-1.2.8zm9.1-5.8l-.4-.4c.3-.3.6-.4 1-.9.1 1 .1 1-.6 1.3zm1.8 3.5V290h.4c0 .1.1.3.1.4-.1.3-.2.5-.5.8zm-1.1-12h3c-1.1 1.2-1.9 0-3 0zm3.4 1.9c.3 1.3.3 1.3-1.3 2.1-.3-1 .7-1.2 1.3-2.1zm-.3 8.5c.1-.9.4-1 1.2-.4-.3.1-.7.1-1.2.4zm1.4-13.2c-.1 0-.3 0-.4-.1.1-.1.3-.4.4-.6.1.1.3.1.7.6-.3-.1-.6.1-.7.1zm30.3 1.5c.6.3.9.3 1.5.6-1.1 1-1.1.1-1.5-.6zm-.2-1.4c.9-.7 1.2-.3 1.5.7-.6-.2-1-.5-1.5-.7zm1.6-4c-.9 1-1.6.9-2.4.7-.1 0-.3-.4-.6-.6.3-.1.4-.4.6-.4.8 0 1.4.2 2.4.3zm-3.4-5c.3.4.6.7 1 1.2-1 .1-1.1-.5-1-1.2zm2.7 7.7c-.9.4-1.8.9-3.1 1.6 1.9-2.6 1.9-2.6 3.1-1.6zm-5.5 6.4c-.7.1-.9.1-1.2.1-.1 0-.3-.1-.4-.3.6-.8.9-.3 1.6.2zm-2.1-1.8l-.3-.3c.3-.3.6-.4.9-.7.1.1.3.3.4.3-.2.3-.5.4-1 .7zm.2-4c0-.1-.1-.3-.1-.6.7-.1 1.3-.1 2.2-.3-.6 1.2-1.2 1.2-2.1.9zm1.3-1.9v-.3c.6-.1 1.2-.3 1.8-.4v.3c-.6.1-1.2.2-1.8.4zm2.8 4.7c0 .1 0 .1.1.3-.4.1-.7.4-1.2.6 0-.1-.1-.3-.1-.4.5-.2.8-.3 1.2-.5zm-2.9-15.7c.1.1.3.3.3.4 0 .1-.1.3-.3.6-.1-.3-.3-.6-.3-.7 0-.1.3-.3.3-.3zm.9 6.2c-.7 0-1 .1-1.8.1.4-.4.6-.6.9-.6.1.1.3.2.9.5zm-1.5-4.4c-1 .7-1 .7-1.5-.4.4.1.9.1 1.5.4zm-2-3c-.6.4-.7.6-1 .7-.4-.6-1-1-1.5-1.8 1.5-.7 1.4 1.1 2.5 1.1zm-1.4-8.9c-1 .4-1.3.3-1.6-.7.7.2 1 .4 1.6.7zm1.1 6.1c0 .4-.1.7-.1.9-1.3-.1-2.5-.3-4.2-.4 1.7-1.4 3-.4 4.3-.5zm-3.8-25.4c0 .1-.1.4-.1.4-1.2-.1-2.7.3-4.2-1.2 1.8.3 3 .6 4.3.8zm-3.9 7c.7-.3 1-.4 1.5-.7 0 0 .1.3.1.4-.1.6-.5.7-1.6.3zm2.6 3.5c-1.2.3-1.2.3-1-1.2.4.6.7.8 1 1.2zm-.3 11.6c-.6.1-1 .3-1.6.4-.1-.7-.3-1.2-.4-1.9.8.5 1.2.9 2 1.5zm-.3-2.1c.1-.3.3-.7.6-1 .1.1.3.1.4.3-.3.3-.6.6-.7.9-.2 0-.2-.2-.3-.2zm-2.6-18.1h1c-.6 1-1.2.7-1.9.4.5-.1.8-.4.9-.4zm-.1 3c-1 .9-1.6.3-2.4-.7.9.2 1.5.5 2.4.7zm-1.7 3c.3-.6.4-.7.9-1.5.1.7.1 1.2.3 1.6-.9 0-1.6.4-2.4-.4-.1-.1-1 0-1.5.1-.6.3-1.2.6-1.8.7.1-.9 1.6-.7 1.3-1.9-.4-.1-.9-.3-1.3-.6 0-.1 0-.3.1-.4h2.5v.1c.8.8 1.4 1.5 1.9 2.3zm1.5 12.7c-.6.9-.6.9-1.3.3.4 0 .9-.1 1.3-.3zm-7.2-15.3c.4-.7.9-1.3 2.1-1.3-.6.7-1.2 1.3-1.8 2.1-.3-.3-.5-.6-.3-.8zm0 4.5c.9.4 1.3.7 1.9 1.2.4-.6.9-1.2 1.2-1.6.7.3 1.2.6 1.8.7.4 0 .7-.1 1.2-.3 0 .1.1.3.1.4-.3.1-.7.1-1 .1-1.6.1-1.9.4-2.2 2.1-1.4-.2-2.4-.8-3-2.6zm3.1 4.7v-.6c1-.3 2.2 0 3.3-.1v.6c-1.1 0-2.3.1-3.3.1zm.4 3.6c0-1 .3-1.6 1.5-1-.6.4-1 .7-1.5 1zm1.5 2.8c0 .1-.1.1-.1.3-.6-.3-.9-.6-1.3-.9l.3-.3c.4.3.7.6 1.1.9zm-5.6 5.5c.9.1 1.8.3 2.7.4v.4c-.9-.1-1.8-.1-2.8-.3-.1 0-.1-.3.1-.5zm2.6 1.8v.3c-.6.1-1 .4-1.6.6 0-.1-.1-.3-.1-.4.5-.2 1.1-.4 1.7-.5zm-2.6 3c-.9.1-.9.1-.9-.7.3.1.4.4.9.7zm1.3 5.3c-1.3.7-1.3-.1-1.5-.7.5.1.8.4 1.5.7zm-2.2 1.5h.1l.3.3h.1l.1.1c-.6.7-1 .4-1.8.1-.6-.1-1.3 0-2.1.1.1-.3.3-.6.4-.7.1-.1.1-.3.3-.4 1.5.2 2.1.3 2.6.5zm-.9 2.1h1.2v.4c-.1 0-.4.1-.6.1 0-.1-.2-.2-.6-.5zm1.6 5.6l-1.2.1v-.1h1.2zm-1.2 3.1c-.6.4-1.2.6-1.8-.3.8.2 1.2.2 1.8.3zm-2.6-5.2c.3-.4.4-.7.7-1.2.4.9.1 1.1-.7 1.2zm.8-10.7c-.1-.1-.4-.3-.4-.4 0-.3.1-.4.3-.7.3.4.6.6.6.6-.2.1-.3.3-.5.5zm-.1-3.2c.9.9.6 1.2-.4 1.8.1-.9.2-1.2.4-1.8zm0 4c0 1 0 1-.9.9.3-.5.6-.6.9-.9zm-.7 16.8c1-.7 1.5.6 2.4.4-1.1 1.2-1.7-.1-2.4-.4zm1.4 4.6c-.1.1-.4.1-.7.4 0-1 .3-1.3 1-1.2-.1.3-.1.6-.3.8zm2.9.6c-.3 0-.6 0-1 .1v-.4h1v.3zm-1.8-2c-.1 0-.6-.3-.6-.6 0-.1.3-.6.4-.6 1-.3 1.9 0 2.5 1-.8.1-1.6.2-2.3.2zm1.8-10.4c-.6-.6-1-1-1.5-1.9.9.4 1.3.7 2.1 1-.3.3-.5.6-.6.9zm1.6 7.9c.1-.1.1-.3.1-.4.6-.3 1-.1 1.3.9-.7-.3-1.1-.5-1.4-.5zm1.6 4.6c-.9-.6-1.3-1-1.3-1.9 1.2.1 1 .9 1.3 1.9zm-.6 1.5h1c-.4.7-.4.7-1 0zm1.5-7.6c.4.3.9.4 1.5.7-1 .4-1 .4-1.5-.7zm1.2 6c-.1 0-.1-.1-.3-.1s-.1-.1-.3-.3c.6 0 1.3-.1 1.9-.1-.3.5-.7.8-1.3.5zm1.5-.6c.4-.6.7-.9.9-.9.3 0 .4.1.9.4.1.1.3.1.4.3h-.7c-.6 0-1.1 0-1.5.2zm.3 1.3c.9-.4 1.8-.4 2.5.3-.9.2-1.8 1-2.5-.3zm-.3-4l-.3-.3v-1.2c.7 0 1.5-.1 2.4-.1.1.1.6.4 1.2.9-1.2.1-2.4-.3-3.3.7zm3.6-2.5c-1.3-.3-2.7-1.5-4.2-.7h-.1c-.1-1.5-1.5-.9-2.2-1.2-.6-.3-1-.6-1.5-1-.4-.3-1-.4-1.6-.7.3-.9.6-1.6.7-2.4.1-.7.1-1.6.3-2.4 0-.4.3-.7.4-1 .1-.3.1-.6.3-1-.7-.3-1.2-.6-2.1-1 .7-.1 1.2-.1 1.8-.3.1-.7.4-1.5.6-2.2.1-.6.3-1.3.6-2.2-1.2.4-1.5 1.3-1.9 2.5 0-.4-.1-.6-.1-.7v-.6c.3-1.2.3-1.2-.9-1.8 1-.6 2.4.3 3.7-1-.4-.1-.9-.3-1.3-.3.1-.1.1-.3.3-.3.3 0 .7 0 .9-.1s.3-.6.3-.9c-.1-1.6.9-2.8 1.5-4.2.3-.9 0-1.9.9-2.7.1-.1 0-.7-.1-1.5 1 .9 1.9 1.6 2.7 2.5.9.9 1.6 1.9 2.5 3 .6.7.9 1.6 2.1 1.3-.1.1-.4.3-.7.7.7.6 1.3 1.3 2.1 2.1-.6 1.2.6 2.1.7 3.3.6.1 1.2.4 1.8.6v.3c-.3 0-.7.1-1 .3.3 2.1 1.2 2.2 3.4.9.6.4 1.3.7 1.9 1.2v.3h-3.6c-1.2.1-1.2.3-1 1.6 0 2.5-.1 4.9-1.3 7.3-2.2 3.6-1.9 3-5.9 2.3zm6 7.3c-.7 0-1-1-.9-2.5.6.6 1 1 1.6 1.5-.1.2-.4.7-.7 1zm2.3-2.1c-.6-.1-1-.1-1.6 0v-.3c.6 0 1-.1 1.6-.1v.4zm2.2-6.3c-.1 1.3-.1 1.3-1.8 1.5.8-.6 1.1-.9 1.8-1.5zm-1.6 5.1c.1-.4.1-.7.3-.9.6-.1 1.2-.4 1.8-.6 0 .1 0 .3.1.4-.6.3-1.3.6-2.2 1.1zm4-5.7c-.4-.1-.9-.3-1.3-.4h-1.2v-.4c.9.1 1.6.1 2.5.3.1.2 0 .4 0 .5zm0-2.9c1.6 1.3 1.6 1.5.6 2.4-.3-.9-.5-1.5-.6-2.4zm11.7.7c.7-.4 1.3-.7 1.8-1.2-.8 1.5-.8 1.5-1.8 1.2zm3.9.3c-.1 0-.3-.1-.4-.1.1-.4.3-.9.6-1.2.1 0 .3.1.4.1-.2.5-.3.8-.6 1.2zm.3-7.7c-.1.1-.1.1-.1.3-.3.1-.4.1-.7.1l-.1-.3c.1-.1.4-.3.7-.3-.1 0-.1.2.2.2.1-1.2 1-.6 1.5-.9h.1l.1-.1c0 .1.1.3.1.4-.6.3-1.2.4-1.8.6zm2.6-1.6c1.6-.1 2.1 1.2 2.8 2.7-1.6-.7-2.5-1.3-2.8-2.7zm-192.2 10s.2-.1.3-.3l-.3-.3v.6zM473.2 295c0 .1-.1.2-.1.3.3-.2.5-.3.8-.4-.2 0-.4.1-.7.1.1 0 .1 0 0 0zm-25.6-13.7c-.3 0-.5.1-.8.1 0 .3.1.6.1.8.3-.2.5-.5.7-.9zm-156.7-17.4c.5-.1 1.1-.1 1.1-.2.1-.4-.1-.9-.3-1.2h-.4c0 .1-.1.3-.1.4-.2.3-.3.6-.3 1zm25.8-8.3h-.7v.6c.2-.1.5-.3.7-.6zm-27.1 29c.2.2.5.1 1.1-.2-.3-.2-.8-.5-1.1-.8v1zm-7.4-31.6c.7-.1 1.3-.2 1.9-.3-.7 0-1.2.2-1.9.3zm0 0c-.3 0-.5.1-.8.1.3-.1.5-.1.8-.1zM29 270.6v.4c.3-.1.6-.3 1-.4-.2-.1-.4-.3-.7-.6-.2.3-.2.4-.3.6zM4.7 288.8c0-.1-.1-.1-.2-.2.1.1.2.1.2.2zm-4-9.6c.1.3.3.5.4.8-.1-.3-.2-.6-.3-1 .1.1 0 .2-.1.2zm26.5 3.6zm-22-29.4c.2.1.4.1.6.2.2-.3.3-.6.5-.9-.3.1-.7.3-1.1.7zm-3.1 8.3c-.1.1-.2.1-.2.1-.1 0-.3.1-.4.3.4.1.7.2 1 .3.1-.3.1-.5.2-.8-.3 0-.4 0-.6.1zm27 8.3s.1.1 0 0c.1 0 .2-.1.2-.2-.1 0-.1.1-.2.2zm-13.2 17.8c-.2 0-.5.2-.7.3h.7v-.3zm1.1 4.5c-.8.7-1.4 1.4-2 1.9.1.3.3.6.6.9 1.2-.3 2.1-.6 3.3-.9-.9-.2-1.6-.9-1.9-1.9zm7.1-1.5v-1.1c-.4.2-.3.5 0 1.1zM.4 274.3s-.1 0 0 0c-.1.2-.1.5-.1.6h.1v-.6zm54.2-7.1h.3v-.2c0 .1-.1.1-.3.2z"/><path class="st0" d="M213.8 268.1c-1.6-1-3.4-.6-4.3 1-.4.7-.6 1.6-.9 2.5-.9 2.7-1.6 5.6-2.4 8.4.2-.1.3-.1.3-.1.1.3.3.4.3.7 0 0-.1.1-.3.1l-.3-.6c-.1.5-.3 1-.4 1.5-.1.4 0 .9 0 1.5-.9.3-.9.3-2.7 2.7.1.6.3 1 .4 1.5-.1 0-.1.1-.3.1-.4-.3-.9-.6-1.3-.9-2.4 1.2-4.5.7-6.4-.9-.7-.6-1.5-1.2-1.9-1.9-1.3-1.6-2.4-3.4-3.7-5.2-1.2.7-2.4 1.6-3.9 2.7.3-.6.6-1 .7-1.3.1-.3.3-.6.6-.7.7-.4 1.5-.9 2.4-1.3-.4-.6-.7-1-1-1.5-.1-.3-.4-.6-.6-.9-.6-1.5-1.2-3.1-1.8-4.6-.3-.9-.6-1.9-.7-2.8 0-.3.3-.7.4-.7 1.6-.1 2.1-1.6 2.8-2.7 4-5.5 7.9-11.1 11.7-16.6 1.6-2.4 1.8-4.8.1-7.1-.6-.9-1.2-1.8-2.1-2.4-1.9-1.6-4-1.3-5.3.9-.3.4-.6.9-.9 1.5-2.2 4-4.6 8-6.8 12-.6 1-.9 2.1-1.5 3.3-1.5.1-1.5 2.4-2.8 3.1-.4-.7-.7-1.3-1-1.6-.7-.1-1.2-.1-1.6-.3l1-1c0-.1 0-.3-.1-.4-2.5-4.9-5.2-9.7-7.9-14.4-.7-1.2-1.8-2.1-3.1-2.7-2.8-1.3-5.6-1.2-8.6-.4-2.1.6-3.4 1.9-3.7 4.2-.1 1.8-.1 3.6-.3 5.2-.7 6.1-1.5 12-2.4 18.1-.1 1.3-.7 2.8-1 4.2-.4 1.8-1.5 3.4-.9 5.3 0 .1-.1.3-.1.4-.4.9-.9 1.8-1.2 2.7-1 2.7-1.9 5.3-4.2 7.3-1.5 1.3-3.1 2.1-5.2 1-.3-.1-.6 0-.7 0-.9.1-1.9.1-3 .3 0-1.3 0-2.2-1.2-3-.7-.4-.1-1.2 1-1.3 0 .5.1 1 .3 1.6-.2 0-.3-.1-.5-.1.4.7.6 1.3.9 1.5.7.1 1.2-.3 1.3-1.2-.4 0-.8-.1-1.4-.2.6-.4 1-.8 1.5-1v-16c0-1-.3-1.9-.4-2.8 0-.1 0-.4.1-.6.7-.9 0-1.5-.4-2.1 1.3-1.8.4-3.9.7-5.6-1.3-.7-1.3-.7-.7-2.4-.3-.1-.6-.3-.9-.4l.3-.3h1c.3-2.2 1-4.5-.6-6.7.3-.1.6-.1 1-.3-.1-2.5-1.2-4.6-3.4-5.8-.7.3-1.2.4-1.8.7 0-.1-.1-.1-.1-.3.1-.3.4-.6.7-1-2.1-.7-4.2-.6-6.1 0-.7.1-1.5.6-1.2 1.3.4 1.3 1 2.5 1.5 3.6-.1 1.3-.3 2.4-.3 3.4 0 .7.1 1.6.4 2.4.3.7-.6 1.2-.4 2.1.3 1 0 2.2 0 3.3.6.3.9.4 1.5.9-.6.3-1 .3-1.3.4v10.4c0 .9 0 1.8-.3 2.7-.9 4.2-2.1 8.2-4.3 11.9 1.3 1 1.3 1 .9 2.2-.3-.6-.7-1-1-1.5-1 1-1.9 2.1-3 3-1 .9-2.4 1.5-3.9 1.5-1.6 0-3.4 0-4 2.1 0 .1-.4.1-.7.3l-.3-.3c.7-1 1.5-1.9 2.4-3-2.4-2.2-3.1-5.2-3.3-8.3-.3-4.8.1-9.5.6-14.4-.3-.1-.6-.3-.6-.3.4-.7.9-1.3 1-2.1 1-5.6 1.9-11.3 4.2-16.6.1-.4.3-1 .4-1.5.3-1.9-.3-3-2.1-3.1-1.8-.1-3.6 0-5.3.3-1.8.1-2.8 1.3-3.1 3-1 4-2.1 7.9-3 11.9-.1.6-.1 1.3-.3 2.1.7-.3 1.2-.4 1.5-.7.4-.4.7-.9 1.2-.1-3.1 1.9-3.1 1.9-3.7 5.6 0 .3 0 .6-.1.9-.3 1.2-.6 2.5.9 3.9-1.2-.3-1.8-1.2-2.8-.4-1.2.9-2.1 3.1-1.8 4.6 1 .1 2.1-1.3 3.1 0-1 .3-2.1.4-3.1.7-1 .3-1.2 1.3-.7 2.2-.4.6-.9 1-1.2 1.6-.6 1-1 2.2-1.6 3.3-.1.3-.3.4-.4.7 0 .1-.1.1-.1.3-.1.1-.1.3-.3.4l-.1.1c.2.1.3.1.5.2-.6.6-.3 1.5-1.3 1.5v-.7c0 .1-.1.1-.1.3l-.4.4-.1.1c-.1.1-.3.3-.4.6 0 0-.1 0-.1.1l-.6.6-.6.6c.5-.2.9-.3 1.4-.2l.4-.4c.1.3.4.4.4.7.1.1-.3.3-.4.4 0 0-.1-.1-.1-.2-.6.1-1.1-.4-1.7-.4-.3.1-.9.3-1.2.6l-.1.1c-.2.3-.4.6-.7.8.9.1 1 .6 1.1 2-.7-.7-1.2-1.2-1.6-1.7-1.1.5-2.5.3-3.6.7-1.5.6-3.4 0-5.2-.1-.1 0-.1 0-.3.1 0 .3 0 .6.1 1-.4-.1-1-.1-1.2-.3-1-1.3-2.7-1.8-4-2.7-.6-.3-1.2-.6-1.5-1-.6-.6-1-1.3-2.2-.7.7-1 .1-1.8-.3-2.4-.4-.7-.7-1.5-1.2-2.2 6.5-2.7 10.2-5 12.6-8-.3-.3-.4-.6-.7-.9 1 .6 1.6 0 2.2-.7 3-3.9 5-8.2 5.9-12.9.4-2.4.6-4.8 0-7.1-.6-.1-1.3.1-2.1-.6.7-.1 1.2-.1 1.8-.3-.3-5.9-6.5-11.3-13.4-10.1v1h-.3c-.1-.3-.3-.6-.4-1-3.7.7-6.7 2.5-9.2 5.2.4 1.4 2.1.9 2.9 1.7.1 0 .2 0 .3-.1 0 .1 0 .4.1.6-.3.1-.7.3-1 .3 0-.1 0-.3-.1-.4-1.1 0-1.9-1.4-3.2-1.3-.6.7-1.3 1.6-2.1 2.5-.6.9-1.6 1.9-1.6 2.8.1 1.5-1.6 1.3-1.5 2.5 0 .1 0 .3.1.6 1 .1 2.2.4 3.4.6.7.1 1.3.4 2.1.6.1 0 .1.3.3.6-2.1.4-2.1.4-3-.9-.7.4-1.3 1-2.4 1.6.1-.9.1-1.5.3-2.2-.4 0-1.2-.1-1.3.1-.4.9-.9 1.8-1 2.8-.1.4.1.9.1 1-1.5 1.8-1.5 3.9-1.8 5.8 0 .3.4.6.6.7-.9 0-.9.7-1 1.5-.1.8-.2 1.7-.3 2.5.5-.2.9-.4 1-.6.4-.7.9.3 1.3 0 .3-.3.9-.3 1.6-.6-.3.4-.4.6-.6.7-1.2.5-2.5.7-3.4.6-.1.6-.2 1.3-.3 1.9-.3 1.3-.7 2.5-1.2 4 1.2.4 2.2.9 3.4 1.5-1.5.7-2.5.6-3.6-.9 0 2.1-1.3 3.3-1.3 5 1.2-.4 2.1-.3 2.7.9-.4.1-.9.4-1.2.4-1.6 0-2.7.3-2.8 2.1 0 .4-.4.7-.9 1.2.9.4 1.6.7 2.2 1v1.5c.7-.4 1.2-.6 1.8-.9-.1 1.9-1.6 1.3-2.5 1.9-.1-.3-.3-.4-.3-.6-.7-2.1-1.3-2.2-3-.9-1.3 1-2.7 1.6-4.3 1.2h-.4v.4c.7 0 .7 0 1.3.6h-.2c.6.1.8.4 1 1v.2c.1.4-.1.7-.7.9-.1-.6-.1-1-.3-1.6 0-.1 0-.4-.1-.5-.5 0-.8-.2-.9-.6h-.1v-.1c-.1-.1-.3-.4-.4-.7l-.1-.1c-.6-.7-1-1.6-1.9-1.9-.1 0-.3-.1-.4-.1 0 0-.1 0-.1.1 0-.3.1-.5.1-.8v-.3c-.1-.6-.3-1.2-.3-1.8.1-4.3 0-8.6-.1-12.8 0-1.3.1-2.8-.4-4.2-.1-.1.1-.6.1-.9.1-.7.3-1.6.3-2.4v-9.8c0-1.2.1-2.5 0-3.7-.1-2.4.6-4.9-.4-7.1 0-.1 0-.3.1-.4.7-.7.4-1.6.3-2.5-.7-.4-1.3-1-1.9-1-1.9-.4-3.6-1.9-5.6-2.1-.9 0-1.8-.3-2.8-.1v3.3c-2.7.7-5 1.3-7 2.1-4.2 1.5-6.7 3-8.5 4.8.4.3.7.6 1.2 1 0 .1 0 .3-.1.4-1.6-1.2-2.7-.6-3.7.6-.9 1-1.6 1.9-2.5 2.8.1.6.4 1 .4 1.3-.1.9-.7.1-1 .1-.1 0-.3 0-.3.1-.4.7-.8 1.3-1.2 2 .8-.2 1.6.2 2.6 1.2-.3.1-.4.3-.6.4-.2.1-1.1.1-1.1.1-.7-.2-1.4-.6-2.2-.8-.1.2-.2.3-.3.5-.1.1.3.6.4.9-.7 1.8-2.7 2.7-3.1 4.9-.1.6-.2 1.1-.3 1.7.2.1.3.4.5 1 .6-.1 1 .1 1.5.6l.1.1c0 .3-.3.7-.6 1.2-.1-.1-.1-.3-.3-.3-.4-.6-.6-1-.9-1.5v-.1c-.2-.1-.3-.1-.5-.2-.3 1.1-.6 2.3-1 3.4 1 .1 1.8.3 2.7.4 0 .4.2 1 .2 1.4 0 .4-.4.7-.6 1.2 2.1.9 4.2.7 6.2.6-1.5-.7-3.4-.7-4.6-2.2.9.3 1.8.4 2.8.7.7-1.2 1.6 1 2.4-.1-.7-1.5-.9-1.9-.4-4 .4.6.7 1.2 1 1.5-.3.4-.4.9-.7 1.5h1.9c-.3-.6-.4-1-.6-1.2.3-.7.6-1.2.9-1.9-.9 0-1.5-.1-1.9-.1v-.3c.6-.1 1.2-.4 1.8-.6v-1.6c-.1-.4-.3-.9-.4-1.5-.1.1-.4.3-.7.3-.3.1-.6.1-.9.1 1-1.5 1-1.5 2.8-.9-.3.6-.4 1.2-.7 1.8h.2c.1 0 .1 0 .3-.1 0 0 .1 0 .1-.1 0 0 .1 0 .1-.1v-.1s0-.1.1-.1v-.2s0-.1.1-.3c.7-2.7 2.2-4.9 4-7 2.2-2.5 5-4.3 8.2-5.3 1.5-.4 2.4-1.5 2.7-3.1 1.3-.3 2.4-1.3 3.9-.6.7.4 1.6.9 2.5.1.1-.1.6.1 1 .3-.9 1-1.2 2.1-2.2 2.7-1-.4.6-2.2-1.5-2.1.6 1.3-.7 1.8-1.2 2.7 0-.9.1-1.9.1-2.8-1.9-.4-1.8 1.9-3.3 1.8 1 1.2 1 1.2.9 2.7v1.6c.6.1.9.1 1.6.3-1.2.7-1.8 1.5-1.6 2.7.1 1-.1 2.1.7 2.5-.3.4-.6.7-.6 1.2 0 .9.1 1.8.1 2.7 0 1-.3 2.2-.3 3.4 1.3.1 1.8 1 2.2 1.9.1.1-.1.6-.1.7-.3-.1-.7-.1-.9-.4-.1-.1 0-.6 0-.9-.1-.3-.3-.4-.6-.6-.1 0-.3.1-.4.1.1 1.2 0 2.4.3 3.4.2.8.4 1.5.2 2.3.9-1.2 1.1-1.1 2.5.5-.9.7-1.1.8-1.8.4-.1.6-.3 1-.4 1.6 1.2-.1 2.2-.3 3.4-.3-.9 1.3-1.5 2.5-2.4 3.7-.3-.3-.6-.6-.7-.9.4-.7 1.6-.6 1.3-1.8-1-.6-1.6.3-2.5.4.1.4.4.9.3 1.2-.6 1.3-.3 2.7-.1 3.9.1 1.3 0 2.4-.7 3.3 0 0 0 .1-.1.1-.2.3-.5.6-.6.9 1.1.1 2.1.3 2.8 1.5 0 .1-.1.4-.4.7h-1.2l-.4-.4c.7.1 1.2.3 1.6.4-.1-.3-.1-.4-.4-.7l-.1-.1-.1-.1h-.2s-.1 0-.1-.1l-1.2-.9c-.1.2-.1.5 0 .8.3 0 .4.1.6.3v.3-.3c-.3.9-.6 1.8-.7 2.7-.4.1-.9.1-1.6.3.7-.7 1.2-1.3 1.8-2.1-.7 0-1.6.1-1.6 0-.3-1-.9-.6-1.5-.3s-1.2.4-1.6.7c-.1.6-.1 1-.4 1.8-.9-1.5-2.2-1.6-3.6-1.9-.3 0-.7-.3-1-.4-2.4-1-3.9-3.1-4.9-5.5-.4-1.2-1-2.4-1.5-3.6 0 0 .3-.3.7-.6-1.2-.3-2.1-1-3 .1-.3-.3-.6-.4-.9-.7-.1.3-.1.4-.1.7-.1.3-.1.4-.4 1-.3-.9-.4-1.5-.6-2.1.6-.1 1-.1 1.5-.3.1-.9.3-1.6-.4-2.1-.9-.4-1.5 0-2.1.9-.9-1.6-2.2.1-3.4-.7 1.5-1 3.7 0 4.8-1.9-.7-1-1.6-.1-2.4-.1-.7 0-1.5.6-2.5 1 0-.8-.2-1.2-.5-1.3.5 0 1 0 1.8.1-.9-.9-1.5-1.3-1.9-.2-.3-.1-.7 0-1.2 0 .1 1.2-.6 2.2.9 3-.6.3-.9.7-.9 1.2.3 0 .7-.1.9-.1v.4c-.3.1-.6.3-.9.3l.3 1.2c0 .4.4.9.4 1.2-.4.6-.4 1.2-.3 1.7.2-.2.5-.5.9-1v2.7h.1s-.1 0-.3.1c-.2-.3-.3-.6-.5-.8.1.2.1.5.2.7.1.7.7 1.3 1 1.9 0 .3-.3.9-.1 1.3.1 1.7.9 3.3 1.9 4.7-.2-.3-.2-.7-.3-1.3l1.2 1.2c.1 0 .6-.1.9-.3.6.8.1 1.1-.5 1.4-.6-.4-1-.6-1.2-.8.9 1.2 2 2.3 3.3 3.2h.4c0-.3-.1-.7-.1-1 2.1-.3 3.6.3 4.3 1.6-.4.1-.7.3-1.2.3H9.8c2.7 1.9 3.4 1.8 5-.3-1.8.4-.4-1.2-1.5-1.6-1.5-.4.3-1.5-.3-2.4-.9-.7-1.9-.9-3.3-.3.6 1.6 1.6.1 2.4.7-1.5.3-2.8.6-4.3.9 0-.1 0-.1-.1-.3.4-.1.7-.3 1.3-.6-.1-.6-.3-1-.3-1.5.9-.4 1.6-.7 2.5-1.3-.9-.3-1.5-.4-1.9-.6.3-.4.9-.7 1-.7 1.2.6 2.1.3 3.1-.1.1-.1.6.1.9.3-.4 1.5-2.2 0-2.7 1.5.7.3 1.3.9 1.9.7.4 0 .7-1 1.2-1.3.1-.1.6 0 1-.1v1.5c.7-.4 1.3-.6 1.9-.5h.2c-.5.7-1.1.8-1.9.8h-.3v.1l.1.1v.1s0 .1.1.1h.1s0 .1.1.1l.1.1.1.1h.1s.1 0 .1.1h.1s.1 0 .1.1h.1s.1 0 .1.1l.1.1c.1-.3.1-.7.3-1.2.3.7.3.9-.3 1.2-.1.9-.8.7-1.2.7.1-.1.1-.2.1-.4-.1.2-.2.3-.3.4h-.1c-.3-.4-.4-.9-.7-1.6-.4.7-.7 1.2-1 1.5.8.5 1.5 1.1 2.4 1.6v-.1c.6.3 1.2.6 1.8.7.1-.3.1-.4.3-.6h.1c.3-.1.6-.1.9 0-.4.7-.9.9-1.5.7.3.3.7.4 1 .7.4.3.7.4 1.2.7-.6.4-1.3.1-1.9 0 1 1.3 2.5.7 4 .6-.1-1 0-1.8 1.2-1.9 0-.1-.1-.1-.1-.1 0-.1 0-.1-.1-.3v-.5s0-.1.1-.1c0 0 .1-.1.1-.3-.6-.3-1-.7-1.8-1.2.7-.3 1-.6 1.8-.9v.4c.2-.1.5-.1.9-.1-.3.4-.6.7-.9 1.2v.6h.4l.1.1v.3c0 .4-.1.9-.3 1.3 2.7 0 2.8-.1 3.9-2.1 0 0 0-.1.1-.1.1-.1.3-.4.4-.6-.1-.7.1-1 1-.4-.3.1-.7.3-1 .4.1.3.3.6.6.6h2l.1-.1c.3-.3.7-.4 1-.7.3.4.6.9 1 1.6v-2.5c-.7-.6-1.3-1.2-2.1-1.8.1-.1.3-.3.3-.4 1.5 1 3 2.1 4.3 3.1-.4.4-.7.9-1.2 1.3.3.2.5.3.6.4 0-.1-.1-.2-.1-.4 1.2-.1 2.2-.6 2.7.9-.6.1-1 .4-1.9.9.2.4.4.7.7 1.1.4-.2.5-.5.7-.6v-.1c.4 0 .7-.1 1.2-.1v.4c-.3-.1-.6-.1-.9 0 .7 1.2 2.2 1.8 3.3 1.2.7-.3 1.5-1.2 2.2-1.2 1.3-.1 1.9-1 2.8-1.6-.3-.4-.4-.7-.6-1 .4-.3.7-.7 1-1 .3.3.6.6.9.7.7-.6 1.5-1.2 2.2-1.6.3.4.4.9.7.9.3.1.7 0 1 0-.3.7-.6 1.3-.9 1.9 1.6 0 1.8-.1 1.9-1.2.1-.7.6-1.5.9-2.2.1 0 .3.1.3.1 0 .4-.1 1-.1 1.9 1-1.3 2.2-2.1 2.5-3.4l-.1.1c1-1.3 1.9-2.7 3-4.1.1.1.3.4.4.6 1.2 2.1 2.8 4 4.6 5.6.6.6 1 1.5 2.2 1.2.1 0 .4.1.4.3v.6l.1.1h.3c.4 0 .9-.1 1.3 0-.1-.4-.3-1-.6-1.8.7.1 1.3.3 2.2.6-.7.6-1.2.9-1.6 1.2 0 .1.1.1.1.1l.1.1c1.3 1.5 2.8 2.1 4.6 1.9h.6c.3 0 .7-.1.7 0 .4 1.2 1 0 1.6.3.1.6.6 1.2 1.3 1 1.6-.4 3.1-.1 4.8-.1 1.2 0 2.2-.1 3.4-.6-1.3-1.2-3.1.1-4.5-1 .1-.3.3-.4.4-.7.1.1.4.3.4.4.3-.4.7-.9 1-1.3.7 1.3 1.3 1.8 2.7 1.3 1-.3 1.6 0 2.1 1 1-1 3.3-.3 3.1-2.7 0 0 .3-.1.4-.3.6-.4 1.6-.7 1.8-1.3.4-1.2 1.3-1.9 1.8-3 0-.1.1-.1.4-.1.1.3.4.7.7 1-1 .9-2.2 1.3-2.4 3.3 1.2-.9 2.1-1.5 3-2.2 1.3-1.3 2.8-2.4 3.4-4.3 0-.3.7-.6.9-.4.3.1.6.6.7.9.3 1.5.6 3 2.4 3.6.3.1.6.3.9.6-.4.4-.6.7-1 1 1.5 1.2 2.7 2.5 4.3 3.4 3.9 2.1 7.9 2.2 11.9.6.9-.3 1.6-.9 1.6-1.9.4 0 1 .3 1.2 0 .7-.7 1.5-1.6 2.2-2.4.1-.1.1-.4.1-.4 1 .1 1.2-.7 1.6-1.3.6-.7 1-1.5 1.8-2.5.9 2.7 1.9 4.9 4 6.5 1.2.9 2.4 1.9 3.9 2.4 6.2 1.6 11.3-.4 15.4-4.9 3.1-3.4 5-7.4 6.5-11.7.1-.6.3-1.2.6-1.8 1.5-2.5 1.9-5.3 2.7-8.2.1-.4-.1-.9-.3-1.5 1 0 .9-.9 1-1.6.7-4.6 1.5-9.2 2.1-13.8 0-.4.1-.9.4-1.8.9 1.5 1.5 2.7 2.1 3.7.6.9.6.9 1.9.9-.9.7-.7 1.3-.3 2.2 1.8 3.4 3.4 6.8 5 10.4.4.9.9 1.6 2.1 1.8-1.2.1-1.9.6-2.7 1.6-1.2 2.1-2.8 3.9-4.2 5.8-1.5 1.9-3 4-4.5 5.9.1.9.6 1.8-.3 2.7-.1-.1-.1-.3-.3-.4-.2-.1-.1-.3-.1-.4 0-.6.7-1.2.6-1.8-.1.1-.4.3-.6.4-2.1 2.5-4.3 5-7 7-1.2.9-1.2 1.8-.1 3.4.3 0 .7-.1 1.2-.3-.1.4-.3.7-.4 1 3.4 3.1 9.4 3.1 11.7-2.1-.3-.3-.7-.6-1-.9.7-.4 1.3-1.2 1.9-1.2 1.2 0 1.3-.9 1.9-1.6-.6-.4-1-.9-1.6-1.2l.1-.1c.6.3 1.3.6 1.9.9.7-1 1.5-1.9 2.1-2.8.7-1 1.6-1.9 2.1-3.1.4-1 1.3-1.6 1.9-2.5 1.6 1.3 1.2 4.2 3.1 4.6.9 2.8 2.1 5 4.9 6.1-.4 1.3-.3 1.5.9 2.1.3.1.4.3.7.4.4.4.7.9 1.2 1.3 2.8 2.1 5.9 2.7 9.4 2.5.6 0 1.2-.7 1.8-.7.6 0 1.2.4 1.9.1 1.6-.6 3.3-1.3 4.6-2.7-.1-.4-.1-.7-.3-1.2.6.3.9.3 1.2.4.7-.9 2.1-1.5 1.3-3 1.3-.3 1.3-.3 2.1-1.3 2.5-4 4.2-8.5 5.3-13.1 2.4-1.4.8-4.2-1.2-5.2zM196.5 248c0 .1 0 .3.1.4-.3 0-.6.1-.9.1 0-.1 0-.1-.1-.3.3.1.4 0 .9-.2zm-1.8 1.2c-.4.4-.7.6-1 .9-.4-1.2-.4-1.2 1-.9zm-6.6 5.5c.3.6.6 1.3 1 2.1-1.7-1-1.7-1.2-1-2.1zM82.9 243.3c.1 0 .4.3.3.4 0 .1-.3.3-.4.6-.1-.4-.3-.6-.3-.7-.1-.2.2-.3.4-.3zm-1.8 22.6h-2.8v-.4c.6-.1 1.2-.1 1.8-.3.3-.4-.4-1.8 1-1.5v2.2zm0-7.3c.3.1.6.1.9.3 0 0-.1.3-.1.4-.3-.1-.6-.1-.9-.3-.1-.1.1-.3.1-.4zm-2.4 1.6c.1 0 .4-.1.6-.1.3.1.4.3.7.4 0 .1 0 .1-.1.3-.4-.1-.7-.1-1.2-.3v-.3zm2.8 1.9c-1 .6-2.1 1.3-3.6.6 1.4-.7 2.3-1.2 3.6-.6zM67 242.2s-.3-.1-.7-.4c.4-.1.6-.3.9-.3.1 0 .3.3.3.3-.2.1-.4.4-.5.4zM4 258.4c.3-.4.4-.7.7-1.2.1-.3.4-.6.6-.9l.3.3c-.3.3-.6.6-.9.6.1.6.3 1 .3 1.6-.4-.1-.5-.2-1-.4zm3 2.9c-.9.1-1.5.6-1.9 1.6-.1-.7-.3-1.6-.6-2.5 1 0 2.2-.1 3.4-.1 0 .5-.3.8-.9 1zm.7-2.3c-.1-.3-.3-.6-.3-.6.3-.3.4-.6.7-.9l.3.3c-.1.3-.4.6-.7 1.2zm4.6-4.1c0-.1.1-.3.1-.4.4.1.7.3 1.3.4-.8.7-.9.1-1.4 0zm10-14c-1.2.7-1.8.1-2.7 0 1-.4 1-.6 2.7 0zm-4 5.9c-.4-.3-.9-.4-1.3-.7 0-.1.1-.3.1-.4.4.1.9.4 1.3.6 0 .2-.1.4-.1.5zm1.3-3.8c.4-.1.9-.4 1.3-.7 0 .4.1.7.1 1.2h-1.5c.1-.2.1-.4.1-.5zm2.8 4.1c-.6-.4-1-.7-1.5-1 0-.1 0-.1.1-.3.7 0 1.5.1 2.4.1-.4.6-.7.9-1 1.2zm7-5l1.5-1c0 .6.1.9.1 1.3-.6 0-.9-.2-1.6-.3zm3.1-.9l-.9-.9.3-.3c.3.3.6.6.9.7 0 .2-.1.4-.3.5zm-2.8 18.6c.1-1.9.1-1.9 1.2-1.8-.5.4-.8 1-1.2 1.8zm.7-10c-.1 0-.4-.1-.6-.1v-.4c.3 0 .7-.1 1-.1 0 .1.1.3.1.3s-.3.2-.5.3zm.6 17.8c-.1.3-.3.4-.6.6-.1 0-.4-.1-.4-.3-.3-.3-.3-.7-.1-.9.3-.3.7-.4 1.3-.7-.2.6 0 1-.2 1.3zm.3-1.7c.3-.1.7-.3 1.2-.4 0 .1.1.3.1.4-.4.1-.9.1-1.2.3.1-.2-.1-.2-.1-.3zm.8 2.6c-.1 0-.3-.1-.3-.1-.3-.7 0-1.2 1-1.3-.3.5-.4 1-.7 1.4zm-22.7 9.8l-1.2 1.2c-.3-1.2.1-1.2 1.2-1.2zm-2.6-.4c-.3 1-1 .6-1.5 1 0-.1-.1-.3-.1-.4.6-.2 1.2-.5 1.6-.6zm-3.5 1.2c.1-.1.3-.3.6-.4.1 0 .3.1.7.3-.4.3-.6.4-.9.4-.1.1-.3-.2-.4-.3zm1.2 2.5c-.3-.3-.6-.6-.9-1 1.3-.3 2.5-.6 3.6-.7 0 .1 0 .3.1.4-.9.4-1.8.8-2.8 1.3zm1.3 5.5c.6-.1 1-.3 1.5-.4 0 .3.1.4.1.4-.3.7-.7.9-1.6 0zm0-3.6c.9.1 1.3.1 2.4.3-1.1.8-1.7.9-2.4-.3zm.4-2.2c1 .6 1.9 1.2 2.8 1.6-2.2 0-2.2 0-2.8-1.6zm2 0c.9-.6 1.5-1 2.2-1.5.3.4.6.7.7 1-.9.2-1.6.3-2.9.5zm11.7 7.3h-.6s-.3-.1-.4-.4c0 0 0-.1-.1-.1v-.2c.4.6 1.3.4 1.8.7-.6-.2-.6 0-.7 0zm5.5 2.8v-1.3c.4.3.7.4 1.5.7-.8.1-1.1.3-1.5.6zm12.5-23.6c-1.2 0-1.8.6-2.2 1.3 0 .1-.4 0-.9-.1 1.2-.4 0-2.5 2.1-2.5.4.2.5.7 1 1.3zm-.9 10.1v.4c0 .1 0 .1-.1.1-.3-.1-.6-.3-.6-.4 0-1.6-1-3-1.2-4.5 0-.9-.7-1.2-1.8-2.1 2.2.4 2.4-1.5 3.7-2.1-.1.7 0 1.5-.3 1.8-1 .9-.4 2.1-.9 3.1-.1.3.4 1 .6 1.5 0 0 .1 0 .1-.1.1-.1.4-.3.6-.4.2-.1.4-.3.6-.4v2.1c-.4-.3-.9-.6-1.3-.9.3.7.6 1.1.6 1.9zm-3.4-11.6l1.3-1.3c.3 1.3-.1 1.6-.9 1.8-.1-.2-.3-.4-.4-.5zm2.3-5.2c.7-.3 1.3-.4 1.5.6-.6-.2-1-.4-1.5-.6zm-.1-20.6c-.1-.1-.1-.3-.1-.4.1-.6.6-.9 1.6-.1-.8.2-1.1.3-1.5.5zm.9 24.2c-1-.3-2.1-.6-3.1-.9v-.3c.7-.1 1.3-.1 2.1-.3.2.4.5.9 1 1.5zm-1.1-19.9c.3 1.3-.1 1.3-1 1.3.3-.4.6-.7 1-1.3zM34 256.9c.3.3.7.6 1 1-.1.1-.3.1-.3.3-.3-.1-.7-.4-1.2-.6.2-.2.4-.5.5-.7zm-.6 3.2c.1.3.3.4.6.7-.1.1-.4.3-.4.3-.1-.3-.3-.4-.4-.7-.1-.2.1-.2.2-.3zm-.1 13.5c.3.1.6.4.9.6-.2.1-.2.3-.3.4-.3-.1-.6-.4-.9-.6 0 0 .1-.3.3-.4zm-.5 2.9c.3-.7 1-.3 1.9 0-.6.3-1.2.6-1.8 1-.1-.4-.2-.7-.1-1zm-4 1.2c1.3 0 2.1.3 3.1 1.5-1.3-.4-2.4-.3-3.1-1.5zm3.9 10.3c.4-.3.9-.7 1.5-1-.3 1.6-.3 1.7-1.5 1zm2.3-5.5c-.1.7-.5 1.2-.8 1.9.1.1.2.1.3.2-.1 0-.1.1-.3.3-.1-.1-.1-.1-.2-.1-.1.4-.1.7 0 1.2.1.6-.6.6-1.2.4.1-.7.9-1.6-.4-2.2.7-.6 1.5-1 2.4-1.5-1.2-.7-1.8-1-2.4-1.3 0 0 0-.1.1-.1 1.2.3 2.4.7 3.7 1-.1-1.6-1.9-1.5-2.4-2.8 1.5.6 2.7 1.2 4.2 1.8-.4.1-.7.3-1.5.4.7.5 1.3 1.1 1.9 1.6 0 .3-.1.5-.1.8 0-.3.1-.5.1-.8.4.3.8.7 1.2 1-.8.4-1.7.8-2.6 1.2.1-.4.3-.7.6-1-.2-1.3-1.4-1.6-2.6-2zm.6 5.3c.6.1 1.3-.1 1.9.1 1 .4 1.2-.7 1.9-.7.4 1-.3 1.5-.9 1.9-.6.4-1.8-.1-2.9-1.3zm2.3 4.6c.7-1.2.7-1.2 1.9 0h-1.9zm1.7-2.6c1 0 1.3.3 1.6 1.8-.7-.8-1.1-1.4-1.6-1.8zm3.3 0H42v-.3c.3 0 .6-.1.9-.1v.4zm10.3-5.8c-.1-.1-.3-.1-.4-.3 0-.6.1-.9 1.2-.9-.4.6-.7.9-.8 1.2zm1.1 4.3c-.1 0-.1-.1-.3-.1.3-.4.6-1 1-1.9.1.7.1 1 .1 1.3-.1.2-.4.4-.8.7zm-.2-6.7c.3-.9.7-1.9 1.2-3.1.1-.1.6-.4 1-.7-.6 1.3-.5 3.1-2.2 3.8zm5-13.5c.3.1.4.3.7.6-.4.1-.7.3-.7.3-.1-.1-.3-.3-.3-.6 0-.2.3-.3.3-.3zM59 278c.6-.6 1-1.2 1.6-1.6-.2 1.3-.2 1.3-1.6 1.6zm10.9-8.1c-.3-.1-.6-.3-.9-.4.1-.1.1-.4.3-.6.3.1.6.3.9.4 0 .1-.1.6-.3.6zm4.3 0c1.8 0 1.8 0 1.9 1-.5-.4-1.1-.7-1.9-1zm1.1-1.1c.1-.6.1-1.2.3-1.8.4.1.9.1 1.5.4-.6.7-1.2 1-1.8 1.4zm-3.7-25.2h1.6c-.4.4-.6.9-.9 1-.3 0-.6-.3-.9-.6 0-.1 0-.3.2-.4zm-.8-.8c-.4-.3-.9-.6-1.5-1 1.2-.4 1.2-.4 1.5 1zm-8 14.3c.4-1.8 1.3-.6 2.1-.6-.8.1-1.3.3-2.1.6zm2.1 32.5l-.4-.1c0-.3 0-.7.1-1 0-.1.3-.3.6-.4.1.4.3.6.3.7-.2.2-.3.5-.6.8zm.7-19.4c-.4-.3-.7-.4-1.2-.7.1-.1.1-.3.1-.4.1-.4.4-.7.4-1.2.1-1.9.1-3.7.1-5.6 0-.4-.1-.6-.4-.7-.3.4-.4.7-.7 1.2-.1-.1-.3-.1-.3-.3 0-.6.4-.9 1-.9 1.2-1.5 1-3.4 1.5-5 .7-2.5 1.5-5.2 3.1-7.3.7-.9 1.5-1.6 2.5-2.2 1.9-1 3.6-.3 4.2 1.8.3.9.4 1.9.4 3-.3 5.9-2.2 11.3-6.8 15.4-1 .9-2.5 1.8-3.9 2.9zm1.4 18.2c0-1.5 1-1.2 1.8-1.5-.5 1.1-.5 1.1-1.8 1.5zm2.9-3.7c-1.6 0-2.5 1.3-3.4 2.4-.1.1-.3.1-.3.1s-.1 0-.3-.1c.1-.9 1.9-1 .7-2.1.6-.7 1.8-.4 1.6-1.8.7.3 1.3.7 1.9 1 0 .2 0 .5-.2.5zm1.7 3.1c-.7-.1-.9-.6-.9-1.6.6.6.9 1 1.2 1.3l-.3.3zm2.2-.4v-.9h.3c0 .3 0 .4.1.7-.1.2-.3.2-.4.2zm1.2 5.8c-.1-.3-.3-.6-.4-.9.1 0 .3-.1.3-.1.1.3.3.6.4.7-.2.1-.2.3-.3.3zm6.1-1.2c-.3-.4-.6-1-.9-1.5 1.3 0 .7.9.9 1.5zm4.4-4c.4.1.6.1.9.1-.1-.4-.1-1-.4-1.8.7.4 1.2.6 1.8 1-.4.3-.7.4-1 .6-.1.1-.3.1-.4.3v.1s.1.1.1.3c.1.1.1.3.3.6-.7 0-.7 0-1.3-1.2-.6-.3-1.2-.4-1.8-.6 1.1-.6 1.4.1 1.8.6zm-.6 3.4h-.7s-.1 0-.1-.1c0 0-.1 0-.1-.1 0 0-.1 0-.1-.1h-.1s-.1 0-.1-.1h-.1s-.1 0-.1-.1l-.1-.1-.1-.1s0-.1-.1-.1v-.1s0-.1-.1-.1c0-.1-.1-.1-.1-.3 0-.1 0-.1-.1-.3 0-.1 0-.1-.1-.3v-.3c.6 0 .9.9 1.5.3.1-.1.9.1 1.3.3.3.1.6.4 1 .7v.3l-.6.6c-1-.2-1-.1-1.1 0zm2.3 1.5c-.6-.1-1.2-.3-1.8-.4-.1-.2-.2-.5-.2-.8l.1.1h.1s.3 0 .6.1.7.6 1 .6c.3-.1.7-.6.7-1 .1-.6.1-1 .1-1.6.9-.3 1.9-.6 3-1 0 .1.1.4.4.9-2.3 0-2.8 1.9-4 3.1zm16.3-19.5c.1.6.4 1.2.7 2.1-.9-.4-1.3-.7-2.1-1.2.5-.3.8-.6 1.4-.9zm-3.7-.7c0 .7-.1 1.6-.1 2.8-.8-1.6-.8-1.6.1-2.8zm-2.7 3.1c.7.3.4.6.3 1-.1.3.1.7.3 1.2-.9-.4-.9-.4-.6-2.2zm-1.2 2.1c.1.4.3.7.4 1-.8-.3-.8-.3-.4-1zm3.9 3.4c-.3 1-.6 2.4-1.8 3.1-.3.3-.4.7-.9 1.5.7-.1 1.2-.3 1.9-.4-1 1.2-2.2 1.2-3.6 1.6.3-.9.4-1.6.7-2.2l-1.5-1.5c0-.1.1-.1.1-.3.6.3 1.3.4 1.9.7.4-.4.7-.7.9-1.2s0-1-.3-1.5c-1.3-.6-.9.9-1.3 1.2-.4-.7-.4-.7.1-2.1.6.1 1.2.1 1.2.9h1.5c-.3-.7-.4-1.3-.7-2.1.7-.9 1.8-1.8 2.8-3 .1 0 .7-.1 1.8-.1-.6.6-.9 1-1 1.5-.5 1.2-1.4 2.4-1.8 3.9zm2.8-1.2c.1-.1.3-.4.4-.4.3 0 .4.3.9.4-.4.1-.6.4-.7.4-.3-.1-.4-.2-.6-.4zm1.2 1.3c.3.3.7.6 1 .9-.1.1-.1.3-.3.4-.4-.3-.7-.6-1.2-.7.2-.3.3-.4.5-.6zm-.2 3.5c.7-.7 1.3-1 2.1-.4-.6.8-1.2.5-2.1.4zm3.2-17.1c-.1-.7-.3-1.5-.3-2.1.1 0 .3 0 .4-.1.2.7.9 1.3-.1 2.2zm2.2-6.4c-.3-.1-.6-.4-.9-.6.1-.1.1-.3.3-.4.3.1.6.3.9.6-.2.1-.3.3-.3.4zm3.6 31.6c.4.1.9.1 1.5.3-.8.8-1.2.5-1.5-.3zm25.3-11.4c-1.6-.6-1.6-.6-.7-1.8.3.6.5 1.1.7 1.8zm-1.7-26.4c.3.9.4 1.3.7 1.8-1.3-.1-1.3-.1-.7-1.8zm-.5 5.3c.3-.3.4-.6.9-1 .5.9.2 1.2-.9 1zm1.1-18c-.7 1.3-2.1.6-3.3.9 1-1.2 2.1-1 3.3-.9zm-3.9 18.8c.3.3.6.6.9.7 0 .1-.1.1-.1.3-.3-.3-.6-.4-1-.7.1-.1.1-.2.2-.3zm-.4 2.2c-.1.3-.3.6-.6.9-.1 0-.3-.1-.4-.3.1-.3.4-.6.6-.9.1.1.2.1.4.3zm-3.6-15.9c-.3-.7-.3-.7.9-1.2-.5.6-.6.9-.9 1.2zm.7-5.4c.7-.4 1.2-.6 1.8-.9-.4 1.1-.4 1.1-1.8.9zm-2.6 39.7c.9-.4 1.6-.7 2.4-.9-.7.6-1.3 1.5-2.4.9zm1.6-7.9c0-.1-.1-.1-.1-.3.4-.1.9-.4 1.3-.6 0 .1.1.1.1.3-.6.2-1 .3-1.3.6zm.9-15.3c.1-.3.6-.9 1-1.3.1 0 .1.1.3.1 0 0 .1 0 .1.1 0 0 .1 0 .1.1.4.4.4.9.6 2.8v1.6c-.6-.9-1.2-1.9-1.8-3 0-.1-.2-.2-.3-.4zm2.4 14.4s-.6.3-.7.1-.3-.6-.3-.7c.1-.6.3-1 .4-1.8.4.1.7.3 1.2.6.9-1.3-.4-3 1.2-4 0 .7.3 1.6 0 2.2-.4.9 0 1.3.4 1.9-.6.7-2.1.2-2.2 1.7zm.3 7.3c.1-.6.1-1 .4-1 1.3-.6 2.7-1 4.2-1.5.1.3.3.7.6 1.5-1.8.3-3.3.6-5.2 1zm3.1 7.9c-.4-.7-1-1.5-1.2-2.2-.3-.9.3-1.9-.4-2.7l.7-.7c.6 1.6 1 3.1 1.6 4.8-.1-.1-.4.3-.7.8zm4.7 4.3c-.3-.4-.4-.9-.7-1.3.1-.1.3-.1.3-.3.3.4.4.9.7 1.3l-.3.3zm11.8-11.3c.9.4.9.4.9 1.6-.3-.4-.6-1-.9-1.6zm1-4.6c-.1.1-.4.1-.6.1-.2 0-.4-.3-.9-.6.7.1 1 .1 1.5.3v.2zm1.2.4v-.3c.4-.4.9-.4 1.5.3H154zm8.9-31.7c.3.1.6.4 1 .7-.9.4-1 0-1-.7zm4.7-3.2c-.1 0-.4-.3-.4-.4s.3-.4.4-.4c.1 0 .3.3.6.4-.3.3-.4.4-.6.4zm4.4 19.3c-.1-.3-.3-.6-.1-.6.3-.3.6-.4 1-.7.1.1.1.3.3.4-.5.4-.8.7-1.2.9zm1.6-2.6c.6-.4 1.3-.7 2.1-1.2-.6 1.8-.6 1.8-2.1 1.2zm-13.7 31c-.4-.4-.7-.7-1.2-1 .4-1.3 1.5-.6 2.5-.7-.2 1-.7 1.4-1.3 1.7zm7.7-10.8c.1 0 .6-.1.9-.1v.4h-.9v-.3zm-4 7.5c.4-.3.9-.4 1.3-.7 0 .4.1.7 0 .9-.4.6-.7.1-1.3-.2zm1.5 1.2c.6.3 1.3.7 1.9 1v.1c-.1 0-.4-.1-.7-.1-.3 0-.6 0-.9.1.1.1 1.3 1.5 1.3 1.5-1.9-.3-1.9-.5-1.6-2.6zm.9 6c-.1-1.2.7-1.2 1-1.5.1.1.1.3.3.3-.2.4-.7.7-1.3 1.2zm1.1-9.5h1.8c-1 .9-1 .9-1.8 0zm2.2-7.9c.4.6.6 1 .9 1.5-1.2.1-1.4 0-.9-1.5zm2.1 8.9c-.1-.9.1-1 .6-1.2.1.1.1.3.3.3-.3.3-.6.5-.9.9zm2.5-4.3c.1 0 .3 0 .6-.1.1 0 .4.1.9.1-.6.4-.9.9-1.5 0zm4-11.4c.9.3 1.8.4 1.9 1.6-.7-.4-1.3-.9-2.1-1.3 0-.2.2-.3.2-.3zm1.8 5.3c-.4-.1-.9-.3-1.3-.4 0-.1.1-.3.1-.3.4.1.9.3 1.3.4 0 .2 0 .3-.1.3zm3.7 7.1c-.4 0-.7 0-1.2-.1v-.3c.1 0 .4-.1.6-.1.2 0 .4.1.6.3v.2zm-1.1-3.2c0-1.5 0-1.5 1.6-1.8-.5.6-1 1.2-1.6 1.8zm4.5-2.6c0 .1.1.3.1.4-.4.1-.9.3-1.6.6.3-1.1.9-1.2 1.5-1zm1.9 7.6h-1.6v-.1h1.6v.1zm3.3 6.7c.6-.4.6-.4 1.5.1-.5.1-.9.1-1.5-.1zm16.5-7c-.4-.1-1-.1-1.6-.3.3-.1.3-.3.3-.4.4.1.9.3 1.5.4-.1.2-.1.3-.2.3zm4.9-2.6c-1.2-.1-2.2-.1-3.6-.3-.3-.4-.4-1-.9-1.9.6.3 1.2.3 1.5.4.7.7 1.6 1 2.7.4.3.4.4.7.6 1-.2.2-.2.4-.3.4z"/><path class="st0" d="M29.9 270.6s.1.1 0 0c.1.1.1 0 0 0 .1 0 0 0 0 0zm62 13.9c.2 0 .4-.1.6-.3-.3-.2-.5-.3-.8-.4l-.1.1c.1.3.2.5.3.6zM17 292c0 .1.1.2.1.3l.2-.2c-.2 0-.2-.1-.3-.1zm27-4.1h.2c-.1-.1-.2-.1-.2 0 0-.1 0 0 0 0zm-10.6-3.8c.2.2.5.4.7.6 0-.1.1-.3.1-.4-.3-.2-.5-.3-.7-.5.1.2.1.2-.1.3zm34.4-39.5c-.2 0-.5.1-.7.1 0 .1 0 .2.1.4.2 0 .5-.1.8-.2 0-.2-.1-.3-.2-.3zm19.7 41c.1.1.2.2.3.4.2-.1.4-.2.5-.3-.2-.1-.5-.1-.8-.1zm118.6-5.5l.1.1c0-.1 0-.1.1-.2-.1.1-.1.1-.2.1zM36.8 293.7v.2h.3c0-.1-.1-.2-.1-.3-.1 0-.1.1-.2.1zm-2.1-1.8c.2.5.4.9.6 1.4h.1s0-.1-.1-.1c-.2-.8-.2-1-.6-1.3zm58.7-11.3c.1 0 .1-.1.2-.2-.3-.1-.5-.2-.8-.3v1.2c0-.1.1-.3.3-.4.2 0 .2-.2.3-.3zm-5.9 4c0-.2 0 0 0 0zm-75.2-40.4c1.8-1.8 4.3-3.3 8.5-4.8-4.3 1.5-6.7 3-8.5 4.8zm76.5 39.6c-.3.1-.9.3-1.2.6.3-.3.8-.3 1.2-.6zm-21.7 8.3c0 .1.1.1 0 0 .1.1.2 0 0 0zm-38.4-84c0 .1.3 0 .6.1.7.1 1.6.1 2.4.4 1 .3.1 1.5.7 2.1 1.3.4 2.4.3 3.3-1 .6.6 1 .9 1.5 1.3-.2.2-.2.4-.4.7-.7.1-1.9.6-2.2.3-1-1-1.6 0-2.4.3-.4-.4-.7-.9-1.2-1.5-.4.6-.6 1-1.2 1.6-.4-.4-.9-.6-1.5-1.2 1.5-.6 2.4-1 3.1-1.5-1-1.6-2.5-.6-3.7-.9v5.3l3.6.9c-.4.3-1 .4-1.2.7-.2.3.1.7.3 1.5-1-.7-1.8-1.2-2.5-1.8v17.4c1-.1 1.9-.4 2.8-.6.1.1.4.4.9.7.1-.6.3-1 .3-1.6h.7c.4.7.9 1.3 1 2.1.3 1.2 1.5 1.2 2.1 1 1-.3 1.6 0 2.5.6v-1.8c-1 0-2.1-.1-3.1-.1.7-.9 1.2-1.5 2.2-1.5.9 0 1.3-1 .9-1.8-.4-.1-.9-.3-1.3-.4 0-.1 0-.1.1-.3h1.5v-6c0-1.5 0-1.5-1.5-2.5 1-.1 1.8-.4 1.3-1.5h-1c.4-.6 1.2-1.3 1-1.5-.9-.9.1-1.8.1-2.5-.1-1.5-.1-2.8 0-4.3.1-2.4-1.2-3.9-2.8-5.2-1 .4-1.9.7-2.8 1.2 0 .1 0 .3.1.3.7 0 1.5-.1 2.5-.1l2.1 2.1c-1-.1-1.9-.3-2.7-.4.1-.4.3-.7.6-1.2H33c-.7-.1-1.6-.1-2.1-1.2 1-.1 2.5.3 2.8-1.3-1.5-1-3 .4-4.5.3-.7 0-1.6.9-2.5 1.5-.3.4 0 .7 0 .7 1.1-.2 1.5-.2 2 .6zm.4 5.2c1-1.2 1.6-.7 2.5-.6-.9 1-1.5.6-2.5.6zm.4 14.7c-.1-1 .3-1.3.7-1.5l.4.4-1.1 1.1zm3.6-7c.6-.4.9-.6 1.2-.7.3 1-.3.7-1.2.7zm1.5-2.7c-.3.9-1 1.2-1.9 1.3-.3.4-.4 1-.7 1.6-.4-.1-.9-.3-1.3-.4v-.4c.6-.3 1.3-.4 2.1-.7-.1-.1-.3-.1-.3-.3l-.4-.4c.7-.1 1.2-.3 2.1-.3-.4-.6-.9-1-1.2-1.5l.1-.1c.6.3 1 .6 1.6.9-.1 0-.1.2-.1.3zm-.1-3.7c.4.7.7 1.2 1.3 2.1-1.3-.6-1.3-.6-1.3-2.1zm2.2 0c-.1 0-.1.1-.3.1-.6-.3-1-.6-1.9-1 .7-.4 1.2-1.2 1.6-1 1.3.1.1 1.3.6 1.9zm6.1 81c1.9-.4 3.7-.9 5.2-1.8.4-.3.4-.9.9-1.5-3 .1-5.4 1.5-6.1 3.3zM7.7 272.1c2.1.3 2.5 0 2.4-1.9-1.2.1-2.1.6-2.4 1.9zm.5 3c.9-.1 1.5-.3 2.2-.4 0-.6 0-1.2-.1-1.8-1.5.1-1.8.8-2.1 2.2zm307-31.7c.6-.7.6-.7-.3-1.6-.4.6-.4 1.2.3 1.6zM.9 267.3c-.3-.1-.4-.3-.9-.6v2.4h.3c.1-.4.3-1 .6-1.8zm284.8-28.5c.4.3.9.6 1.5 1-.5-1-.5-1-1.5-1zm.4 2.7c.3 0 .6.3 1 .4 0 0 .3-.4.4-.7-.6-.1-1-.1-1.3-.1.1.1-.1.3-.1.4zm-.4 1.9c.6 0 1 0 1.5-.1-.6-1.2-.9-.8-1.5.1zM25.2 284.3v.3h.4c-.1.1-.1.2-.2.3.1-.1.2-.2.2-.3h.3c.2-.2.2-.4.3-.5.2 0 .3.1.4.3-.1-.2-.2-.3-.4-.3.1-.1.1-.2.3-.3-.9.1-1.2.1-1.3.3v.2zM284.7 246v.6c.3-.1.6-.1 1-.1 0-.1 0-.4-.1-.4-.3-.1-.6-.1-.9-.1zM259.6 164.6c.5.1.9.3 1.4.5.6.3 1.3.8 1.9.9 3.8 1 7.6 2 11.4 2.9 3.1.6 6.3 1.3 9.5 1.5 2.4.3 5 .1 7.4.1 1.7 0 3.2-.1 5.1-.3-.5-.6-.9-1.2-1.3-1.5.6 0 1.3.1 1.5.5.5 1 1.3.9 2.2.8 2.3-.3 4.5-.5 6.8-.9 2.2-.4 4.5-1 6.7-1.4 2.2-.4 4.2-1.4 6.3-2.2 2.3-.8 4.5-2 6.7-3.3 3.7-2.2 6.7-5.1 8.8-9 .4-.8.8-1.4.1-2.3 1.5.1 1.2-1 1.8-1.7-.3-.1-.4-.3-.5-.4-.1-.1-.4-.3-.6-.5 1.4-.4 1.5-.3 1.8-1.5.4-1.4.8-2.8 1-4.4.1-.6-.3-1.3-.4-2 .6 0 .8-.6.8-1.3.3-5 .3-10-.5-14.9-1.2-8.2-3.2-16.1-6-24-.1-.5-.4-.9-.6-1.7-1.5 3.3-3.5 6.3-4.5 9.6-.4 1.2-.5 2.4-.5 3.6-.1 3.5-.3 6.9-.4 10.4-.1 1.8-.3 3.6-.4 5.3.4.3.9.5 1.3.8 0 .1 0 .1-.1.1-.4-.1-.9-.1-1.3-.3-.3 1-.4 2-.6 3.1-1.3 6.4-3.3 12.6-6.8 18.2-2.7 4.4-6 8.6-12.4 12.2-2.8 1.5-6.8 2.8-10 3.2h-.5c-.9.5-1.9 0-2.9.4-.6-.9-1.4.8-2-.1-2-.1-4.1-.8-5.9-.1-.8-.3-1.3-.6-1.9-.8-5.8-1-11.4-2.7-16.8-4.9-3.6-1.5-7.3-3.1-10.6-5.1-5.5-3.3-10.9-7-16.1-10.6-1.3-.9-2.7-1.7-3.7-2.9-.3-.3-.9-.3-1-.3-.4-.6-.6-1.2-1-1.4-5.4-4.6-10.5-9.5-15.4-14.6-2.4-2.7-5-5.4-7.4-8.1-1.4-1.5-2.6-3.3-3.8-5s-2.6-3.5-3.8-5.3c-1-1.3-1-3.1-.6-4.4.3-1.2 1.7-2.2 2.3-3.1 1 .4 1.8.8 2.7 1-.3.3-.4.5-.6.9 2.3 2.9 4.6 5.8 6.8 8.7.5.8 1.2 1 2 .6 0 2.2 1.3 3.5 2.6 4.7 5.1 5.9 11.1 10.8 17.3 15.5.5.4 1.3.5 2.3.9-.3.9.6 1.3 1.4 1.8 3.3 2.2 6.8 4.5 10.2 6.7.5.4 1.3.4 1.8.5 1.7 2 4.2 2.7 6.3 3.6 7.9 3.7 16.4 6.1 25.2 6.7.1-.4.1-.6.1-.9.6.4 1.3.8 1.8.9.5 0 1-.4 1.7-.6.4 1 1.4.8 2.2.6.4 0 .6-.3 1-.1 2 .4 4.1.3 6.1-.1.5-.1.9-.5 1.3-.8.4.1.8.4 1.2.3.1 0 .3-.5.4-.6.6.1 1.3.3 1.8.1 1.8-.6 3.5-1.3 5.1-2 .3-.1.8-.4.8-.5 0-.6.3-.8.9-.8.9.1.6-.9 1-1.3h1.4c-.1-.5-.3-.8-.4-1.3.6.1 1 .1 1.5.3.1-.5.1-1 .3-1.4 2.4-.3 2.8-2.6 4.1-4-.4-.3-.6-.5-1-.8 1.5-.4 1.5-.4 2.2-1.8 1.3-3.1 2-6.1 2.2-9.5.1-1.5.1-3.1.3-5.1-1.4 1.3-2.6 2.3-3.6 3.3-2.9 2.9-5.8 6-8.7 8.8-1.7 1.7-3.5 3.1-5.5 4.4-3.5 2.3-7.3 3.3-11.9 3.5 1.3-1.2 2.2-2 3.2-2.9.9-.9 1.8-1.9 2.8-2.6 1.2-.8 1.5-1.9 2.7-2.7 1-.6 1.9-1.7 2.8-2.7 1-.9 1.9-1.9 2.8-2.9.9-.9 1.8-1.9 2.7-2.8.9-1 1.8-1.9 2.8-2.9.9-1 1.8-2 2.7-3.1.8-1 1.7-1.9 2.4-2.9.9-1 1.8-2 2.4-3.2.6-1 1.8-1.7 2.4-2.7.6-1.2 1.5-2.2 2.4-3.5-.5.1-.6.1-.6.1-.4.5-.8.4-1-.1-.4-.5 0-.9.4-.9 1 .1.1-.9.6-1 .4 0 .6.1 1 .1-.1.4-.1.6-.3.9.5-.1.8-.4.9-.8 2.4-4.1 5-8.2 7.4-12.3.5-.9 1.5-1.8 1.2-3.2 0-.1.1-.4.3-.4.1-.1.3-.1.3-.3 0 0 .1 0 .1-.1l.1-.1.1-.1s0-.1.1-.1l.1-.1v-.1s.1-.1.1-.3c0 0 .1-.1.1-.3 0-.1.1-.1.1-.3 0-.1.1-.1.1-.3s0-.3.1-.3c.3-.8.3-1.5 0-2.3h-.1c-.5-.1-1-.1-1.7-.3.9-1 1-1 1.7.3h.1c.3 0 .5 0 .6-.1 0 0 .1 0 .1-.1l.1-.1s0-.1.1-.1v-.3s0-.1.1-.3c.1-.6.1-1.5.5-2 1.4-2.3 1.8-5 2.4-7.4 2-7.8 3.2-15.6 3.5-23.7.1-3.5-.3-7-.6-10.5-.4-3.8-1.4-7.6-2.8-11.3-1.4-3.7-3.3-7-5.6-10.1-4.2-5.8-9.7-9.5-16.7-11.1-4.4-1.2-9-1.8-13.4-1.8-5.1-.1-10.4-.1-15.5 0-2.6 0-5.1.6-7.7 1-3.2.5-6.4 1.3-9.6 1.9 1.7 3.5 5.3 5.5 8.7 5.3 3.2-.3 6.5-.4 9.7-.4 5.6 0 11.3.1 17 .1.5 0 1-.3 1.5-.1 1.4.3 2.8.5 4.4.8 4 .5 7.8 1.2 11.4 2.7 1.5.6 3.1 1.3 4.7 1.4.8 0 1.2.5 1.3 1.3.1.5.3 1.3.6 1.7 1.7 1.9 2.7 4.2 3.5 6.7 1.5 4.6 2.2 12.3 1.8 17.5-.1 2-.3 4.2-.4 6.5.3-.1.5-.1.8-.3h.3v-.1c0-.1 0-.3.1-.3.1-.4.1-.8.3-1.3.4.5.8.9.6 1.2 0 .1-.1.3-.1.3-.1.1-.4.3-.6.3-.1 0-.3 0-.3-.1h-.1l-.1.1s0 .1-.1.1c0 0 0 .1-.1.1-.1.1-.3.4-.4.5 0 .1-.1.1-.1.3 0 .1-.1.1-.1.1v.2s0 .1-.1.1v.1c0 .1 0 .1-.1.3-.5 2.9-.8 5.9-1.2 9 .4.1 1.2-.3 1.2.6 0 .3-.8.4-1.4.6-.5.8 0 1.4 1 1.9-1 .4-2.2.4-1.3 1.8.1.3-.3.9-.5 1.4-.3.6-.8 1.2-.8 1.8 0 1.3-.6 2.3-.9 3.5-.1.5-.3 1.2-.4 1.7.8.4 1.4.6 2 .9 0 .1 0 .3-.1.4-.8 0-1.7-.1-2.4-.1-2.2 6.4-5.1 12.4-8.6 18.1-3.7 6-7.9 11.7-12.7 16.8-2.7 2.9-5.5 5.8-8.2 8.7-.3.3-.5.6-.9.9 0 0-.1 0-.1.1-.9.9-1.7 1.7-2.6 2.4h.6c.1.1.3.1.3.3.5 1-1.3.8-.9 1.5.4.9 0 1.3-.8 1.7-.4-.8-.1-1.5.3-2.2.3-.4.4-.8.6-1.3l-2.7 2.3s-1.8 1.5-2.8 2.4c.3.5.5.8.8 1.3-.5-.1-.8-.3-.9-.4-.1-.1-.1-.5-.1-.6-1.8 1.5-3.3 2.8-4.7 4 .5.6.9 1.2 1.3 1.5 0 .1-.1.1-.1.3-.8-.3-1.5-.5-2.3-.9-.3.5-.4 1-.4 1.2-.9.3-1.4.5-2.3.8.8.5 1.3.8 1.7 1-.9.9-1.7.5-2-.4-1.5 1-2.8 2-4.2 2.8-2.8 1.7-5.6 1-7.2-1.5 1.3-1.2 2.7-2.4 4-3.7-.6-.3-1.2-.4-1.5-.6 0-.1.1-.3.1-.4.8.1 1.5.3 2.7.4.3-.3.8-.9 1.2-1.4-.9 0-1.9.3-3.1-.6.9-.1 1.7-.1 2.3-.3.4-.1.6-.5 1-.8 0 .4.1.8.1 1.2 1.2-.4 2.2-1.2 2.7-2.6-1.4.3-2.4-.8-3.6.1.4-.4.8-.6 1.2-.8.5-.3 1-.4 1.5-.5l1.8.9c.4-.3.8-.5 1-.8 5.6-4.7 10.8-10 15.6-15.5 1.4-1.5 3.1-3.1 3.6-5.4-.8-.4-1.5-.6-2.4-1 .4-.3.6-.4.9-.4 3.1.3 3.3.3 5-2.2 1-1.4 2-2.9 3.1-4.4 4.2-6.3 7.7-12.8 10.2-20 .8-2 1.3-4.2 2-6.4-1.9-.8-1 1-1.7 1.4-.9 0-2-.8-2.8.8.6.3 1.2.5 1.9.8-.5.3-1 .6-1.3.5-1.3-.4-2.6-.9-3.8-1.5h-.3s-.1 0-.1-.1c-.1-.1-.3-.3-.3-.4-.9.1-1.7.3-2.6.3-.1 0-.3.1-.4.1-.8.3-1.7.4-1.8-.8-.1-.9-.9-.8-1.7-.6.3-1.7-.6-2.6-1.4-3.6-.1-.3-.8-.3-.8-.4-.4-2-2.2-3.2-3.2-4.7-.9-1.3-2-2.3-3.5-3.7-.4.9-.5 1.4-.8 1.9-.3.5-1.3.6-1.8.1-.3-.3-.3-.6-.5-1 .6.3 1 .4 1.4.5.5-.8.9-1.3 1.3-1.9 0 0 0-.1-.1-.3l-.9-.9c-.3.3-.5.5-1 .9.6-2.4.1-2.2-1.7-2 .1-1.2.1-1.2-.6-2.2-.5-.5-1-1.2-1.5-1.7-.9-.9-1.9-1.8-2.8-2.8-.9-.9-1.9-1.7-2.8-2.6-2.9-2.7-5.9-5.3-9.1-7.7-6.3-4.9-13.2-9.1-20.7-12.2-.3.9-1.8.4-1.7 1.7 1 .8 2.6 0 3.3 1.4-.3.1-.3.3-.3.3h-.4c-1.3-.8-2.4-.9-3.6.4-.5.5-1.4.9-2.2.9-1.2.1-2.3-.1-3.5-.3-.4 0-.8-.3-1.3-.3v.1c1.2-.3 2.7.3 3.2-1.2.9.3 1.8.5 2.4.8 1.5-1 1.3-3.2 3.6-3.5-1.7-.6-3.1-1-4.2-1.5-1-.5-1.9-.8-2.9.1-.3-.5-.4-1.2-.6-1.3-1.5-.5-3.1-1.2-4.7-.9 1.2.5 2.3.9 3.6 1.4-.6.3-1.4.5-1.9.6-.4.8-.8 1.4-1.2 2.3-.8-.8 0-2.4-1.7-2-.1.3-.3.6-.3.6-1.7-.1-3.2-.3-4.9-.4.9-.6 1.5-1.2 2.3-1.8.6.4 1.3.9 1.9 1.3.8-.3 1.4-.6 2.2-.9-.6-.5-1.3-1.2-1.7-1.4-1.4 0-2.6 0-3.7.1-1.5.3-2-1.4-3.7-1.4.5 1.3-1.5.6-1.4 2.2 1.3-.6 2.6-.8 3.7.1-.6 1-1 .3-1.4-.1-.6.4-1.4.6-2 1 .6 1.4 2.2.1 3.1 1.2-.9.1-1.4 1-2.4.3-.1-.1-.6.1-.8.3-.4.9-1 .4-1.9.5.5-.6.9-1 1.3-1.5-.6-.3-.5-1.7-1.7-.9.1 1.3.1 1.3-1.2 1.5.4-2.6.8-3.2 2.6-4.2.1-.1.3-.4.5-.6-1.9-.1-3.6-.6-5.3-.4-1.8.3-3.5-.6-5 .1-.4.4-1 1.2-1.4 1.2-1.2-.1-1.4.6-1.9 1.2-.6-.1-1.3-.3-1.8-.3-.6-.1-1.2-.4-1.8-.3-.4 0-.9.4-1.3.5 0-.4-.1-.6-.1-1.2-.4.5-.8.8-.9 1.2-.1.4-.3.8-.1 1.2.3.5.6.6 1.3.4l.1-.1h1.3c.3.1.6.1.9.3h.1c.3-.1.6-.5.9-.4 1.3.4 2 1.3 3.1 2 .4.3.6.5.8 1.2-1-.3-2-.5-3.2-.8.3-.5.4-.9.6-1.3-.8-.1-1.5-.4-2.2-.5 0 .5-.1 1-.1 1.7.1 0 .3-.1.3-.1.3 0 .1.3 0 .5v.1c-.4.6-1.3 1.3-.5 2.4.5-.4.9-.8 1.4-1 .8-.3 1.2.1 1.5.6-2.4 1.2-4.9.8-7.4.5-.4.5-1.3 1-.6 2.2 2.3-.1 4.5-2 6.7-.1 2.8-.6 5.4-1.7 8.3-1-.5-.6-1-1.3-1.4-2 .9-.9 1.9-.8 2.3.5.4 1.3 1 1.7 2.3 1.7v.3c-.3.1-.6.4-.9.4-.8-.1-1.5-.5-2.2-.8 0 .8.6 1 1.3 1.4 1.5.8 3.1 1.5 4.7 2.3.6-.8 1.4-.8 2.6-.5 1.2.3 2.4 0 3.6 0 .3 0 .4-.3.5-.3-.1-.4-.3-.6-.4-1.2 1.2.9 1.9.9 2.6-.3-.5-.5-1-1.2-1.8-.6-.1 0-.3.1-.3.1h-1.2l-.1-.1s0-.1-.1-.1l-.4-.4c-1 .3-2 .6-3.3 1-.1 0-.6-.3-1.4-.5.6-.6 1-1.3 1.5-1.8 1.2.5 2.3.9 3.3 1.3 0-.3-.1-.6 0-.8.5-.4 1-.9 1.5-.9 1.2 0 1.8-.5 2.4-1.4.1-.1.4-.1.6-.1.3.5.5.9.8 1.5 1-1.5 2-.6 3.1-.3-.5 2.2-.6 2.3-2.6 1.7-.4-.1-.6-.1-1.2-.3-.1.8-.4 1.5-.5 2.3 2.8.4 3.6.6 4.9 2.2-.4.4-.8.8-1.4 1.3 1.3-.3 1.8 0 1.9 1.2-2.7-.6-4-.1-5.5 2.3.4.1.6.3 1 .5-.5.4-1 .6-1.4.4-.8-.5-1.2-.1-1.5.3-1.7 1.4-3.5 2.9-5.3 4.5 2.3 1.2 4.4.4 6.5-.6-.8 1.3-1 1.4-1.9 1.5-.4 0-1 0-1.2.3-.6 1.3-1.2.8-1.9.3-.9-.6-2.3-.6-3.2.1-2.3 2-4.7 4.1-6.9 6.4-3.5 3.7-6.7 7.6-10 11.3-.8.9-1.4 1.8-1.2 3.3-1.3-.8-1.5.3-2 .9-.5.6-1.3 1.3-.9 2-.8.6-1.4 1.3-1.9 1.8-.5.6-1.2 1.3-.9 2.3-1 .1-1.3 1-1.7 1.8-.6.9-1.2 1.9-1.7 2.8-4 6.5-6.9 13.6-8.8 21-.1.5-.1.9-.3 1.5 1-.3 1.8-.5 2.8-.9-.9 1.4-2.3.9-3.2 1.8-.1.4-.3.9-.4 1.4-1 5.1-1.4 10.2-1.3 15.4.1 4 .5 7.9 1.8 11.8 1.3 4 3.3 7.4 6.3 10.5.5.5 1 1.4 2 .8.1 0 .4.3.5.4-.3.3-.4.4-.6.5.9.5 1.7 1 2.4 1.5.6-.6-.8-1.5.3-1.9.6.4 1.3.6 1.9 1-.3.5-.5 1-.6 1.5.5.3.9.5 1.4.6.9.3 1.7.5 2.6.8.3.1.6 0 .8.1.9.8 1.5.4 2.2-.3.4.4.6.9 1 .9 2.2.3 4.4.3 6.7-.1-.3-.4-.4-.5-.5-.8l-6-6s-.1-.1-.3-.1c-.3-.1-.4-.3-.6-.4-.1.8-.1.8-1.3.9.1-.8.6-.9 1.3-.9v-.1c-.1-.3-.1-.4-.3-.6v-.3h-.7c-.9.3-1-.1-1.2-.8-.3-1.4-.8-2-2-2.4-.1 0-.1 0-.3-.1-.1-.1-.4-.3-.5-.3h.1v-.1c-.6 0-1.4 0-2-.1-.9-.3-1.5-.4-2.4.5-.8.8-1.7 1.3-1.5 2.6 0 .1-.3.3-.4.4-.1-1-.3-1.9-.5-2.9.9-.5 2.4-.1 2.6-2 1.3 1.2 3.1.5 4.2 1.8h1.2c-.6-1.4-2.3-1.8-2.6-3.2 0-.1-.3-.1-.4-.1-.8 0-.8-.4-.6-.9 0-.3-.3-.6-.6-1.2-.4.5-.9.9-.9 1.3-.1.9 0 .9-1.2.5 1.3-1.2 0-2-.1-3.1.3-.4.6-.8 1-1.3-.4-.9-.8-1.9-1.3-2.9 1.2-.5.1-1.2.1-1.8-.9.3-1.8.4-2.7.5.3-.8.4-1.5.6-2.2.8 1.3 1.4 1.4 2 1 .1-.5.1-.9.3-1.7.8.8 1.3 1.4 2 1.8.6.4 1.5.5 2.3.8-.3 1.8 0 1.9 1.7 2.3.5 0 1 .3 1.7.5-.3.6-.4 1-.6 1.5 2.6 2.4 5 5 7.6 7.3 2.9 2.7 6 5.4 9.1 8.1.9.9 1.9 1.2 2.7.5 1 .3 1.7.5 2.4.5 1 0 2-.3 3.1-.3.1 0 .3.1.4.3-.4.4-.6.8-1.2 1.3 1.4.6 2.6 1.2 3.8 1.8-1 .4-1.8.4-2.4-.3-1.4-1.5-3.2-1.7-5-1.9-.3 0-.5.3-1 .5 1.3 1 2.4 1.9 3.6 2.7.4-.3.8-.4 1.3-.6-.4 2 1.3 2.4 2.3 3.2 1.5 1.2 1.5 1.2 4.1 1.3-.4.4-.6.6-1 .9 2.8 1.7 5.6 3.5 8.5 5 3.8 1.9 7.9 3.7 11.9 5.4-.3-1.1.6-1.1 1.5-1m73.4-16.5c-.8.5-.8.5-1.9-.5.6.2 1.2.4 1.9.5m-3.3-4.5c-.1.1-.3.3-.4.5-.1-.3-.3-.5-.3-.5.1-.1.3-.3.5-.4-.1.2.2.4.2.4m-.6-2.2c-.1.1-.1.3-.1.4-.6.4-1 .1-1-.8.2.2.8.3 1.1.4m-8 16.4c-.4-1 .1-1.2 1.2-1.3-.6.6-.8.8-1.2 1.3m4.1-7c0 .1 0 .3.1.4-.4.1-.8.3-1.2.4 0-.1-.1-.3-.1-.4.4-.2.8-.3 1.2-.4m-1.6 3.2c.4.1.6.3.9.5-.1.1-.1.3-.3.4-.3-.1-.6-.3-.9-.4.1 0 .2-.4.3-.5m-1.1-8.7c-.5.9-1.2.8-1.7.4.5 0 1-.2 1.7-.4m-4.1 4.6c.1.1.3.3.4.5-.3.1-.6.4-.9.5-.1-.1-.1-.3-.3-.4.3-.2.5-.5.8-.6m-23.2 17.5c.1 0 .1-.1.1-.1h.7c.1.1.3.3.3.4h.4s0 .1.1.1h.3v.8c-.4-.5-.6-.8-.9-1.2h-.7c-.4 0-.9-.1-1.5-.3 1.1.5 1.2.3 1.2.3m-1-.5l-1.4 1.4c-.3-.4-.5-.8-.8-1.4h2.2zm-2.8 0c0 .1 0 .3.1.4-.4 0-.9.1-1.5.1.3-.9 1-.6 1.4-.5m-26.1-5.2c-.6.5-1 .8-1.5 1-.3-.5-.3-.8-.4-1h1.9zm33.2-15.3c.1 0 .4.1.6.1.8.4 1.5.6 2.3 1 0 .1-.1.1-.1.3-1.2-.3-2.3-.5-3.6-.9.3-.1.6-.3.8-.5m-1.1-.5c-1-.3-1.5-.4-2.2-.6.5-.7.5-.7 2.2.6m-.9 1.7c-.3.9-1.2.5-1.7.8-.5.3-1 .8-1.5 1.2-.1-.1-.1-.3-.3-.3 1-.8 1.6-2.6 3.5-1.7m-3.2-4.5c.3.1.6.3.9.4 0 .1-.1.3-.1.4-.4-.1-.6-.3-1-.4 0-.1.2-.4.2-.4m-3.2 5.9c.1.1.1.3.1.4-.3.8-.6.8-1.5.1.5-.1 1-.3 1.4-.5M269.2 9.6c-.1-.1-.3-.4-.4-.5.1-.1.4-.3.5-.3.1 0 .3.3.5.6-.2.2-.4.3-.6.2m10.9-2.8c.3.3.5.4.5.5-.1.3-.3.5-.5.6-.1 0-.4-.3-.6-.4.2-.2.3-.4.6-.7m0 3.8c-.9-.1-.8-.5-.1-1.7.4.5.5.9.8 1.3-.3.3-.6.4-.7.4M291 8.9c-.4-.8-.4-.8.8-1.3-.4.6-.7.8-.8 1.3m32.2 7.8c-.5-.9-.5-.9 1-.9-.4.4-.7.7-1 .9m3.5.6c.4.1.8.3 1.3.4 0 .1 0 .3-.1.4-.4-.1-.8-.1-1.3-.3 0-.2.1-.4.1-.5m1.4 3.5s-.3.3-.4.5c-.1-.1-.4-.4-.4-.5-.1-.4-.3-.8-.4-1.4h1.7c0 .5-1.1.7-.5 1.4m9.6 25.4v.4h-.9v-.5c.4.1.7.1.9.1m-.9 2.7c.1.3.3.5.5.8-.1.1-.4.1-.5.3-.1-.3-.3-.6-.3-.9.1-.1.2-.1.3-.2m-.1 10.2c-.4.3-.6.4-1.3.6.1-1 .8-.7 1.3-.6m-1.4-21.4c.1 0 .3.3.4.4-.3.1-.5.3-.6.3-.1 0-.1-.3-.3-.4.2-.2.4-.3.5-.3m.1 6.9c-.3-.8-.4-1.3-.8-1.9 1.3.5 1.1 1 .8 1.9m-3.2 3.4c1.5-.8 1.9-.6 3.1 1-1.2 0-1.8-1.7-3.1-1m-.1 14.1c.4 0 .6.1 1 .1 0 .1-.1.3-.1.5-.4-.1-.6-.3-1-.3 0-.1.1-.3.1-.3m-2.8 9.7c.1 0 .4.1.5.1-.1.5-.3.9-.4 1.5-.9-.7-.5-1.1-.1-1.6m-4.9 15.9c.3.3.4.5.6.8-.1.1-.3.1-.3.3-.3-.3-.4-.6-.6-.9.2-.1.2-.1.3-.2m-9.9 21.7c.6.4 1 .6 1.4.8-.8.5-.8.5-1.4-.8m3-6.5c.3.4.4.6.6 1.2h-2.7c.7-.5 1.2-.8 2.1-1.2m-2.2-2.3c.3 1.2-.5.8-.8 1 0-.1-.1-.3-.3-.3.3-.2.7-.4 1.1-.7m-.6 5.1c-1.5 1.4-1.5 1.4-2.3 1 .7-.5 1.5-.7 2.3-1m-2.5 4.7c.5 0 .9-.1 1.5.1-.6.1-1.3.4-1.9.5 0-.1 0-.3-.1-.5.1.1.3-.1.5-.1m-3.8 2.3c.5.4 1 .6 1.8 1.3-1.9.1-1.9.1-1.8-1.3m-.3 6.1c-.1.3-.4.5-.5.9-.1-.1-.4-.3-.5-.4.3-.3.5-.4.8-.6 0-.2.2.1.2.1m-.1-3.5c-.9.3-1-.3-1.4-.9.8-.3 1.1.1 1.4.9m-.9 2.3c-.9.1-1.4.1-2 .3.7-.9.7-.9 2-.3m-5.5 1.5c-.4.1-.9.1-1.3.3.3-.8.8-.6 1.3-.3m-15.2 28.5h-1.2v-.5c.4 0 .8.1 1.2.1v.4m-.2-10.5c0-.1-.1-.3-.1-.4.3-.3.4-.5.8-.9.1.5.3.9.3 1.2-.5-.1-.7.1-1 .1m2.6-.4c.8 0 1.5-.1 2.2-.1v.4c-.7.3-1.3.7-2.2-.3m-.8-1.5c.8-.1 1.4-.4 2.3-.5-.7 1-1.3 1.5-2.3.5m5.5-7.3c.1.1 0 .5-.1.5-.4.1-.6 0-1.4 0 .6-.7 1-1.1 1.5-.5m1.8 1.4c-1.2 1.5-2.9.9-4.2 1.5-.1 0-.4-.4-.8-.6 1.6-1.4 3.2-.8 5-.9m-4.8 2.8c0-.3.3-.4.4-.6 1.4 1.9 1.5 1.5 2.9.5 1-.8 2.2-1.5 3.2-2.3.1.1.3.3.4.5-1.2.9-2.3 1.7-3.6 2.6.4.4.6.6.9 1-.3.1-.4.3-.5.3-.9 0-1.8-.3-2.7-.1-.5 0-1.2.4-1.4-.4 0-.5.2-1 .4-1.5m-1.6-2.1c-.9.3-1.7 1-2.6.3 1 0 1.9-.1 2.6-.3m-1.8 1.7c.5.5.9.6 1.8.6-.4.5-.6 1.2-.8 1.2-.9-.3-1.5.1-2.3.6-.1.1-.5-.1-.9-.1.6-.4 1-.8 1.7-1.2-.8-.4-1.3-.6-1.8-.8.8-.9 1.4-1.1 2.3-.3m-5.6 3.7c1-.3 1.5-.1 3.5 1.5-.5-.1-1.2-.1-1.5-.5-.5-.5-1.2-.6-1.8-.6l-.1-.1c-.2-.2-.2-.2-.1-.3m.9 11.5l.4.4c-.4.6-.5 1.5-1.9 1.5.6-.8 1.1-1.3 1.5-1.9m-2.1.2c.1 0 .3.1.5.4-.4.1-.6.3-.8.3s-.1-.3-.3-.4c.4-.2.5-.3.6-.3m-2.4-.3h.8v.3c-.3.1-.4.1-.6.3-.1 0-.4 0-.6-.1.1-.4.3-.5.4-.5m30-62.7c-.8 1-.8 1-2 0h2zm-4.6-9c.1.4.1.6.3 1-.1 0-.3.1-.4.1-.1-.4-.1-.6-.3-1 .1-.1.2-.1.4-.1m-56.6-47.2c-.5.4-.9.6-1.5 1.2l-.9-.9c.7-.9 1.5-.5 2.4-.3m-27.9-5.2h.8c0 .4-.1.8-.1 1.2-.1 0-.3 0-.4-.1-.2-.3-.3-.7-.3-1.1m1.8 4.1c-.4-.1-.9-.4-1.4-.8.8.1 1.3.1 1.8.1 1.3.3 1.4.3 1.8-1.3h.4c0 .4.3.8.1 1-.7 1.2-1.7 1.5-2.7 1m3.2 1.7c-.3-.1-.5-.3-.6-.5-.1-.1-.1-.4.1-.8.3.3.6.5.9.9-.2.1-.3.3-.4.4m17.6.2c-.3-1.2-.3-1.2.6-1.3-.1.6-.2.8-.6 1.3m-33.1 73v-.4h2v.4h-2zm-.8-7.2c1.4-.6 1.3.1 1 1-.4-.3-.6-.7-1-1m1.3 4.6c.5-1 .5-1 1.7-.4-.7.2-1.2.2-1.7.4m3.4 4.3c.1-.8.3-1.3.4-1.9.4.3.6.4 1.2.6-.7.4-.9.8-1.6 1.3m.7 2.6c-.4-.4-.6-.6.1-1.4.1.5.3.9.4 1.3-.4.1-.5.2-.5.1m.6 3.8c0-.4-.1-.8-.3-1.2.1 0 .3 0 .4-.1.1.4.3.8.4 1-.1.2-.4.2-.5.3m8.3 8.2s-.1-.1-.3-.1c.1-.3.3-.5.4-.6.1 0 .1 0 .3.1-.1.1-.2.3-.4.6m-1.1-1.7c0-.1-.1-.3-.1-.5.5-.1 1.2-.3 1.7-.4 0 .1 0 .4.1.5-.6.2-1.1.3-1.7.4m2.7-2.8c-.3.1-.5.3-.6.4-.1.1-.4.3-.5.3-.6.1-1.3.1-2 .3v-.5c.6 0 1.3.1 2 .1.1-.5.3-.6.4-.8h1c-.2.1-.3.1-.3.2m-3.2-5.1c1 .4 1 .8.6 1.7-.2-.7-.4-1.1-.6-1.7m10.7 14.5v-.5c.3 0 .4-.1.6-.1.1 0 .4.3.4.6-.2.1-.6.1-1 0m5.8 6.6c-.3 0-.4-.1-.6-.3.1-.1.3-.4.4-.4.1 0 .4.1.6.3-.1.2-.3.4-.4.4m2.3 3.6c-.4-.3-.6-.5-1-.8.3-.1.5-.4.8-.6.3.5.5.9.8 1.5-.3-.1-.6-.1-.6-.1m-.9-4.7h.4v1.3h-.3c-.1-.4-.1-.8-.1-1.3m3.1 1.8c-.1 0-.3-.1-.4-.3 0-.1 0-.3.1-.4.3.1.5.1.9.3v.3c-.2-.1-.4.1-.6.1m6.9 2.6c-.3-.1-.6-.3-.9-.4v-.3c.4.1.6.3 1 .4l.1.1-.2.2m3.7.9c0-.5 0-.9.1-1.4.6.3.9.5 1.3.6-.5.3-.9.6-1.4.8m2.7 1.2c-.3-.1-.4-.1-.5-.1-.1 0-.1-.1-.4-.4.4-.5.9-1 1.3-1.4.1.1.3.1.4.1-.3.6-.5 1.2-.8 1.8m5.5 4.7c.6-.3 1-.4 1.7-.8-.3 1.2-.7 1.6-1.7.8m-.1-2.4c.1-.9.1-1.3.1-1.9.6.3 1.3.5 2.2.8-.8.3-1.4.7-2.3 1.1m-.5-4.2c.6-.9 1.3-.6 1.9-.3.8.5.8 1.5.3 2.3-.1-.5-.3-1-.4-1.4-.6-.1-1.2-.4-1.8-.6m6.8.4c.3-.6.6-1.4.9-2 .7 1.1.3 2-.9 2m2.4-4.8c.4-.9 1.3-.4 1.9-.9-.2 1.2-.2 1.2-1.9.9m8.4-2.2c-.6-.4-.9-.9-.3-1.8.1.4.3.6.3.9.5-.1 1-.3 1.7-.4-.5 1.3-1.2 1.7-1.7 1.3m2.2-3.2s-.3 0-.4.1v-1h.5c-.1.3-.1.7-.1.9m13.2-10.7c-1-.4-2-.8-3.1-1.3.1.1.3.4.5.6-1.2.5-2 1-3.1 1.4-.5-.8-2 .1-2.2-1.4 1.4-.1 2.2-.8 2.2-2.4.8.3 1.4.5 2.2.8-.1.8-1.5 0-1.2 1.3.5-.1 1-.1 1.5-.3.5-.4 1-.5 1.5-.5h2.4c-.2.6-.3 1.1-.7 1.8m-2.8-3.7c.1-.5.3-.8.4-1.5.4.9.6 1.5 1.5 1 .1-.1.8.4 1.4.8-1.5.7-2.2-.5-3.3-.3m2.4-3c.1.5.1 1 .4 1.8-.8-.5-1.4-1-1.9-1.4.9-1.5 1.4-1.7 3.5-.8-1 .3-1.4.3-2 .4m1.7-1.4c.4-.9.4-.9 1.3-.5-.4.1-.8.3-1.3.5m4.3-.9c-.3-.1-.4-.8-.3-.9.5-.8 1-.3 1.4.1-.2.6-.4 1.2-1.1.8m4.4-24c-.8-.1-.8-.1-1.3-1.5 1.1-.1 1.1-.1 1.3 1.5m-1.2 21.6c.1 1-.6 1.3-1.2 1.7l-.4-.4c.6-.4 1.1-.8 1.6-1.3m-7.4-38.8h.3c0 .3.1.5.1.8 0 .1-.4.3-.9.5.2-.7.4-.9.5-1.3m-5.8-1.9c0 .8.1 1.5.1 2.2-.8-.3-.8-.3-.1-2.2m-6.8-8.3c.3 0 .6 0 .9.1v.4c-.3 0-.6-.1-.9-.1v-.4m.4 5.9c.1.1.3.1.4.3-.1.4-.1.9-.3 1.7-.5-.6-.9-.9-.9-1.2.1-.3.6-.6.8-.8m-1.1-2.1c-.4-.5-.6-.8-.9-1.2 1-.2 1-.2.9 1.2m-11.1-11.5c.1 0 .1 0 0 0l.1-.1c.4-.4 1-.6 1.5-.3v-1.2h.9c-.1.1-.1.3-.3.4-.3.5-.5.9-.6 1.3-.3.3-.5.4-.8.6-.3.3-.4.5-.5.8-.5-.6-1-.9-.3-1.5m.6 3.4c.1.1.1.3.3.4s.1.3.3.4c.5-.8.9-1.7 1.4-2.6.4.3.8.4 1.2.8-.6.6-1.2 1.3-1.7 1.8-.1.1-.5 0-.9 0-.5 0-.9.3-1.4 0v-.1s0-.1-.1-.1c-.3-.4-.9-.6-1.4-1 1.3-.8 1.7-.7 2.3.4m3.8 2.7c-.4.9-.9.6-1.7-.1 1 0 1.4.1 1.7.1m-6.7-4.3c-.1-.1-.3-.4-.4-.6.1-.1.4-.3.4-.3.1.1.3.3.5.6-.3.1-.5.3-.5.3m1.4-2.6c-.4 0-.9-.1-1.3-.3v-.4c.5.1.9.1 1.4.3 0 .2-.1.3-.1.4m-4.3-6.7v.4c-.8.3-1.7.4-2.4-.4h2.4zm-2.9-1.9c1 .6.1 1.2-.1 1.5-.3.5-.6.4-1-.1.3-.3.7-.9 1.1-1.4m-.5 2.7c.8.3 1.7.8 1.3 1.9h2.2c0-.1 0-.3.1-.4-.5-.3-1.2-.5-1.7-.8 1.7-.4 1.7-.4 2.9 1.8-.4.1-.8.4-1.4.6 1.4 1 2.3.5 3.2.3.1.1.1.3.1.4-.9.5-1.9 1.2-2.9 1.7-.6-2.7-2.6-3.1-5.3-2.6.6-.5.9-.8 1.3-1 0-.6-1.1-1.2.2-1.9m-1.8-5.2v1.9c-.9.1-.9-.6-.9-1 0-.2.4-.4.9-.9m-2.8.3c-1.2 1.4-1.9 0-2.8-.6.8.3 1.9.5 2.8.6m.6 2.7l-2.3.4c.6-1.1.8-1.1 2.3-.4m-4.1 1.3c.9.3 1.7.5 2.4.8v.3h-2.7c-.1 0-.4-.4-.5-.6.3-.2.5-.5.8-.5m-.6-1.3c-.5.4-.9.6-1.3-.1.5-.5.9-.4 1.3.1m-3.5 3.2c.6.1 1.8-.6 1.9 1-1 .1-2 .3-3.3.5.4-.9.6-1.7 1.4-1.5m-2.3-2.8c.4.6 1.3 1.2.6 2.4-.6-.7-.9-1.5-.6-2.4m0 7.1v.4c-.5.1-1 .4-1.4.4-.3 0-.4-.4-.6-.6.3-.3.5-.6.8-.5.3-.1.7.1 1.2.3m-2.6-2.7c.5.5 1 .8 1.7.5.1 0 .3-.1.4-.1-.1.1-.3.1-.4.1-1.4.6-1.5.6-3.1 0 .4-.7.8-1.2 1.4-.5m-3.5 1.6c-.8 0-1.2-.1-1.7-.1.5-.9.9-.8 1.7.1m-2.6 7c-.5 1-.5 1-1.9.9.9-.4 1.4-.7 1.9-.9m-25.8 26.3c-.1.5-.1.9-.3 1.4-.6-.3-1.2-.4-1.8-.6-.1-.6-.3-1.2-.4-1.8.6 1.2 1.3 1.7 2.5 1m-3.2-4.3c.4-.9 1.2-.5 1.9-.4-.4.5-.8 1-1.3 1.7-.2-.4-.7-1.1-.6-1.3m.6 11.4v-1c.8-.4 1.8-.5 1.5-1.8 0-.1.6-.4 1.3-.9-1.5-.1-2.3-1.7-3.8-.8 1.2-.6 1.2-.6 4.2 0 8.5-11.8 18.2-22.3 30.2-31-.5-.3-.8-.4-1.3-.6.6-.3 1-.5 1.3-.4.9.4 1.5 0 2.3-.5.8-.6 1.7-1.2 2.4-1.7.4-.3.8-.5.9-.9.3-.8.6-.9 1.4-1 .6-.1 1.2-.4 1.7-.6 1.4-.8 1.4-.9 1.2-2.4 1-.1 2-.3 3.1-.3.4 0 .6.4 1.2.6-.5.3-.8.5-1.2.8.8.5 1.4 1 2.2 1.5 2.4 1.3 4.5 3.1 6.8 4.5 2.3 1.5 4.5 3.1 6.5 4.9 1 .9 2 1.5 3.5 1.4h.1c.1 0 .1.1.3.3 1-.3 1-.3 2.2.3.4 1.4-1.8.4-1.4 1.9.5 0 1.2 0 1.8.1-.3.4-.4.6-.5.8 2.3 2.3 4.5 4.6 6.8 6.8.1-.3-.4-1 .5-.9.3 0 .5.6.5.9 0 .4-.1.8-.1 1.3 1.5 1.7 2.9 3.5 4.5 5.1.4.4.9.6 1.3.9.1 0 .3.1.3.1-.3 1.7 1 1.2 1.9 1.3-.4.3-.6.4-1 .6.9 1.2 1.7 2.3 2.6 3.3 1.4 2 2.9 4.1 4.4 6.1 1.3 1.9 1.9 4.2 1.5 6.5-.3 1.4-.8 2.7-1.5 3.8-1.9 2.9-4.1 5.9-6.1 8.7-1.2 1.7-2.4 3.3-3.7 5.1-.3.4-.4.9-.6 1.4 0 .1 0 .3-.1.4-1.8 1.4-2.8 2.7-3.7 4.5-.5.9-1.4 1.7-2 2.4-2 2.2-4.1 4.5-6.1 6.5-1.2 1.2-2.4 2-3.6 3.1-.4.4-.6.9-1 1.4-1.5.3-1.9.6-1.8 1.9-.8.1-1.5.3-2.7.4.4.6.6.9.9 1.2-.9 1-1.3-.3-1.8-.3-.9.5-1.8.9-2.9 1.5.1.4.4.9.5 1.4-.9.3-1.3 0-1.3-1.2-1.3.3-2.3.6-3.5.8-5.5 1.2-10.6.1-15.6-2.2-.9-.4-1.8-.5-2.8-.8 0-.1-.1-.3-.1-.3v-.1s-.1-.1-.1-.3c0 0 0-.1-.1-.1l-.1-.1s0-.1-.1-.1l-.1-.1s-.1 0-.1-.1l-.1-.1-.1-.1s-.1 0-.1-.1l-.1-.1-.1-.1-.1-.1s-.1 0-.1-.1l-.1-.1s-.1 0-.1-.1l-.1-.1h-.1c-.1 0-.1-.1-.3-.1-.5-.3-1-.5-1.7-.8.3.8.5 1.4.8 2.2h1.4v.4c-.5-.1-.9-.3-1.3-.4-.3 0-.6 0-.9-.1h-.9c-.6-.3-1.3-.5-2-.8.5-.6 1.2-1.2 2.2-.8h.3c.1 0 .3 0 .4-.1v-.1c.1-.1.1-.3.1-.4-.6-.6-1.3-1.4-2-2-4.4-3.8-8.1-8.5-11.7-13.1-.4-.5-.8-.9-1.2-1.5-.9-1.5-2.3-1.9-4-1.5-.9.3-1.2-.1-1.5-.6.1-.4.5-.8.5-1.2-.1-.4-.5-.6-1-1.2 1.4.5 1.4.5 2 2.2h2.3c-1.4-2-2.7-3.8-4.1-5.8-1.2-.1-.8-1.3-1.3-1.9-1.7-2.2-3.1-4.6-4.7-6.8-1.5-2.3-2-4.7-.8-7.4-1 .1-1.9.3-2.7.4 0-.1-.1-.3-.1-.4.1-.4 1.1-.8 2.3-1.2m-3.8 5.6c.4 0 .6 0 1-.1v.5c-.4 0-.6 0-1-.1v-.3zm-.1 1.8v.5c-.4 0-.8 0-1.2.1 0-.1 0-.3-.1-.3.5 0 .9-.2 1.3-.3m-12.4 25c.4.3.5.5.9.8-.7-.1-.7-.1-.9-.8m18.8 32.8c.5.3.9.5 1.4.8 0 .1-.1.3-.1.3-.5-.3-.9-.4-1.4-.6 0-.3.1-.4.1-.5m-2.8-4.1l.4.4c-.3.3-.5.5-1 .9-.2-1-.2-1 .6-1.3m-4.5-.6c-.6-.1-1.3-.3-2-.5.9-.5 1.5-1 2 .5m-.5-4.4c-.8.3-1.4.6-2 .6-.4 0-.8-.4-1.3-.6 2.4-1.1 1.9-1.7 3.3 0m-5.4-4.8c.1-.1.4 0 .8 0-.3.3-.3.5-.5.6-.3.1-.5 0-.8 0 .1-.2.3-.5.5-.6m3.4-40c.5-.5.8-.8 1-1.2.1.6.1 1.2-1 1.2m1-7c-.8.8-.8.8-1.9.6.7-.2 1.1-.3 1.9-.6m-1.3 7.3c.1.3.3.4.3.4-.1.9-.6.8-1.2.6 0-.1-.1-.3-.1-.4.2 0 .6-.3 1-.6m-3.3-8.3c.4 0 .6-.1.8 0 .4.3.4.3.1 1.2-.3-.4-.5-.7-.9-1.2m1.1 13c0-.1 0-.3.1-.4h2.8c-.1.4-.1.6-.3 1.2-.9-.3-1.7-.6-2.6-.8M203 113c.1-.1.3-.1.4-.3.3.3.4.6.6.9-.1.1-.3.1-.4.3-.2-.3-.3-.5-.6-.9m.8 9.7c.6-.4 1-.6 1.3-.9.5.5 1 .9 1.5 1.4-.9.6-1.7-.1-2.8-.5m15.1 10.1c-1.3.3-2.6.5-4 .6-.1 0-.4-.3-.5-.5.8.3 1.4 0 2-.5.8-.5 1.7-.6 2.7-.3 0 .4-.1.7-.2.7m.9 1.2h-.8v-.4c.3 0 .5.1.8.1v.3m3.2-2.3c-.1.9 0 1.7.9 2-1.8 0-2.4-1.2-2.8-2.7.6.3 1.2.6 1.9.7m-2.2 7.7c.6-.5 1.2-.9 1.7-1.3.5 1.3.5 1.3-1.7 1.3m4.6-1.2l-.3.3c-.9-.8-1.7-1.4-2.4-2.2-.1-.1.1-.8.4-1.4 1 .6 1.8.8 2.4-.5 0 .1.1.4.1.5-.3.4-.5.6-.9 1.2.3.6.5 1.4.7 2.1m1.3 4.1c-.4-2.3-.3-2.4 1.2-2-.4.7-.8 1.4-1.2 2m8.2 8.1c-.3-.3-.5-.5-1-.9.9-.3 1.1 0 1 .9m1-5.8c.6.4 1.3.6 2.2 1.2-1.5.4-2 0-2.2-1.2m6 10c-.4-.1-.8-.3-1.2-.4.1-.1.1-.3.1-.5.4.1.8.3 1.2.5.1.2.1.3-.1.4m.8-3.8c-.8.6-1.4 1.3-2.4.6 2.2-1.4 4.2-1.3 5.1.6-1.1-.5-1.9-.8-2.7-1.2m5.3 4.5c-.6-.9-1.2-1.7-1.7-2.3 0-.1.1-.1.1-.3.6.3 1.2.5 2 .8-.8.5.8 1.5-.4 1.8m9.1 2h1.4v.4c-.5 0-.9-.1-1.4-.1v-.3"/><path class="st0" d="M221.5 31.6c0 .8.6 1 1.3 1.4-.7-.3-1.3-.7-1.3-1.4m66.1 96.4c.9-.8 1.8-1.5 2.8-2.4-1 .8-1.9 1.6-2.8 2.4m8.1-7.2c-.9.9-1.7 1.7-2.6 2.4.8-.7 1.7-1.6 2.6-2.4m-90 16.3c.1 0 .1.1.3.1-.2 0-.2-.1-.3-.1m-.6-.4c.1 0 0 0 0 0zm6.5-109c.1 0 .1 0 0 0 .1 0 .1 0 0 0m119.8 24.4c.1-.1.3-.4.4-.5 0 .1-.1.2-.4.5M212 27.6c.3 0 .1.3 0 .5.2-.2.2-.5 0-.5m96.6 46.5c-.1-.1-.3-.3-.3-.4.1.1.2.3.3.4m-103.4 62.6h.9c-.4.1-.8 0-.9 0-.1 0-.1 0 0 0m126-52.2h.1-.1zM233 32.3l-.4-.4c.1.2.3.3.4.4m-21.7 109.8c-.3-.1-.4-.3-.6-.4.3.1.4.2.6.4m97.9-68.4h.4c1 .5 1.7.1 2.3-.5.3-.4.3-.9.4-1.3.3 0 .5 0 .6.1.4.1.9.8 1.3.1.4-.6-.3-.8-.6-1-.1 0-.3-.1-.4-.3.4-.1.5-.1.5-.1.5.3.9.5 1.5.8.5-.3 1.3-.5 1.5-1 .3-.4-.3-1.2-.4-1.8.3-.1.4-.1.5-.3.1 0 .1-.1.3-.1.5-.4.5-1 .5-1.8-.4-.6-1.3-1-1.7-1.7 0-.1-.1-.1-.1-.3v-.9c.5.1.9.1 1.3.1 0 .6-.8 1.7.8 1.4.3-2.9.5-5.8.8-8.7.3-4.7 0-9.4-1.2-14-1.4-5.8-4.2-10.6-9.1-14.1-3.6-2.6-7.6-4-11.9-4.7-.6-.1-1.3.3-2 .4-.3-1-1.3-.9-2.2-.9s-1.8-.1-2.9-.3c.6.8 1.2 1.3 1.7 1.8.8-.1 1.5-.3 2.4-.4.3.5.6 1.2.9 1.8-.5.1-.9.1-1.2.1 0-.4-.1-.8-.1-1-.3.3-.6.5-1.2 1 .6.4 1.2.8 1.7 1.3 2.9 2.9 5.9 5.8 8.7 8.7 2.8 2.9 5.1 6.3 6.3 10.4.5 1.8.9 3.5.8 5.6l-4.1-4.1c-.9.5-1.5.8-2.3 1.2 0-.1-.1-.1-.1-.3.5-.6 1-1.3 1.3-1.7-.5-.6-.9-1.3-1.4-1.9-.4.9-.9 1.3-1.7 1 .4-.5.8-1 1.2-1.4-1.2-.5-1.4-1.7-2.2-2.4-.9-.8-1.8-1.7-2.7-2.6l-2.4-2.4c-1.2 1.7-2.7 1.9-4.4.8 1.4-.1 2.7-.3 3.8-1.7-.5-.5-1.2-.9-1.7-1.3-.6-.6-1.2-1.3-1.9-1.8-.5-.4-1.2-.4-1.7-.6-.1-1.5-1.5-3.1-3.5-4-2 1-2 1-2.6-.5.6.1 1.2.1 1.8.1 0-1.3-1-1.2-1.8-1.4.4-.9-.3-1.4-.8-1.8-1.4-1.2-2.9-2.2-4.4-3.3-1.2-.9-2.2-1.9-3.2-2.9-1.2-1.2-2.3-1.2-3.5-.3-1.5-1.2-1.5-1.2-2.2.3.5.4 1.2.6 1.9 1.2-.9.5-1.5.8-2.3 1.3v-1.9c-.5.3-1 .4-1.4.6 0-.1-.1-.1-.1-.3.4-.4.9-.8 1.3-1.2-1.2-.9-1.7.3-2.6.3 0 .5.1.9.1 1.4-.4 0-.5 0-.8-.1 0-.6 0-1.2.1-1.7-1.2.3-2 .4-3.2.4.1-.5.3-.8.4-1 .9.1 1.7.3 2.4.3.1-.5.1-.9.1-1.3.6.4 1.3.8 1.9 0 .5-.6 1-.9 1.9-1 .3 0 .4-.5.8-1-1-.1-1.7-.1-2.2-.3-1.7-2.7-4.4-3.7-6.8-5.1h-3.9c-.1 1.8-1.7 2.7-3.5 2.4 0 .1.1.4.1.5v.7h-.1c.3-.6.4-1 .6-1.5h.3c.4-.3.3-.6.1-1 0-.1-.1-.4-.1-.5v-.1c-.1-.4-.3-.8-.3-1.2 0-.1 0-.3-.1-.3h-.1c-.3.1-.6.1-1 .3-.1-.4-.4-.8-.6-1.3.5-.3.9-.4 1.5-.6V9h.1c.4-.3.6-.6 1-.9.1-.1.4-.3.5-.5-1.2-1-2.2-1.4-3.5-1.5-.5 0-1.4 0-1.4-.4-.4-.9-1.2-.8-1.8-1-1.9-.8-3.8-.8-5.6-1.4-2.6-.9-5.3-1.3-7.8-1.9-.6-.1-1.4.1-2.2.3-1.7-.5-3.5-1.3-5.6-1.2.3 1 .4 1.9.6 2.9-.9-.3-1.7-.4-2.3-.5.3-.9.4-1.8.5-2.8-.5.1-1 0-1.5 0-3.5-.1-7 .3-10.5.8-2 .4-3.6 1.4-5.1 2.8.6.5 1.2 1 1.7 1.5-.6.5-1.3.6-1.9-.3-.5-.8-1.2-.8-1.8-.6-.5.6-.9 1.2-1.3 1.7-.8-.3-1.5-.4-2.6-.6.8-.3 1-.4 1.4-.4.4 0 .8.1 1.3.1.1-.5.4-1 .5-1.7-.8-.1-1.4.1-2 .5-.5.4-1.2.6-1.8.9-.8.3-1.5.4-2.3.8-1.5.9-3.2 1.9-4.9 2.8-1 .6-1.9 1.4-1.8 2.7 0 .1-.3.4-.5.5-.5-.3-1-.5-1.7-.9-2.3 2-4.5 4-7 6.3.8.1 1.2.1 1.5.1v.3c-.6.1-1.3.3-1.8.4.1.4.5.9.4 1.2-.4 1-1.2-.1-2 .3-.9 1.2-1.8 2.6-2.9 4.2.9-.1 1.3-.1 1.8-.3-.3.8-.4 1.5-.6 2.2-.4-.3-.9-.6-1.7-1-.1.8-.1 1.4-.3 1.8-.3.5-.8 1-1.4 1.7h2c0 .4 0 .9-.1 1.3-1.8-.1-2.3 0-2.7 1-1 2.7-1.8 5.4-2.2 8.3 1.7.1 3.2.3 5.1.4-1 .6-1.8.5-2.6.3-1-.4-1.9-.3-2.8.5-.1 1.8-.4 3.6-.5 5.4-.1 1.2-.1 2.3-.1 3.5V52c0 1 .3 2 .3 3.1 0 2.3.5 4.6 2 6.5.3.3.4.6.5.9-.5.1-.8.4-1.3.5 0-.4 0-.6-.1-1 0-.3-.1-.5-.1-.8.4 6.8 2.6 13.1 4.7 19.2.4.3.8.3 1.2.3-.8.6-1 1.3-.5 2.2.8 1.4.4 2.8-.3 4.2-2.2 5-4.4 10-6.3 15.1-2.6 6.7-4.4 13.6-3.5 20.9.4 3.1.6 6.1 1.3 9.1.8 3.2 1.8 6.4 3.2 9.5 3.3 7.7 8.3 14.1 15.1 19.2 3.3 2.4 7 4.5 10.9 5.9l1.2-1.2c-.1.8-.3 1.2-.3 1.5.4.1.6.3.9.4.6-.5.9-1.7 2.4-1.4-.6.6-1.2 1-1.7 1.4 0 .1.1.3.1.4.8 0 1.7-.1 2.4.1.8.3 1.5.9 2.3 1 1.3 0 2.4.5 3.6.6 1 .3 2.2.3 3.2.4 3.1.1 6.1.5 9.1-.4-.1-.3-.3-.6-.3-.9.9-.3 1.8-.4 2.3-.5.4.3.6.6.8.6 2-.6 4-1.3 6-1.9.3-.1.5-.4.5-.6.1-.9.8-1.2 1.7-1s1.7.3 2.6.1c1.3-.3 2.4-.6 3.7-1 .1 0 .1-.1.3-.4-.3-.4-.5-.6-.9-1-.8.4-1.3.8-1.9 1 0-.1-.1-.1-.1-.3.5-.5 1.2-1 1.7-1.5-1.5-2.7-5.4-4.4-8.7-4.5-2.2-.1-4.5 0-6.7 0-.6 0-.9.3-1 .8 0 .1-.3.1-.5.3 0-.4-.1-.8-.1-1h-4.9c-.5.5.1 1.3-.9 1.4 0-.5-.1-1-.1-1.7-.6.1-1.4.5-1.7.3-1.2-.9-2.4-.6-3.7-.6-1.8-.1-3.7-1.3-5.4.5-.4-.4-.8-.6-1.2-.9-.6.3-1.2.9-1.7.1.1-.3.3-.6.5-1.2-2.2-.5-4.2-.9-6.1-1.3-.3 0-.6 0-.9-.3-1-1.4-2.7-1.5-4.1-2.3-.8-.5-1.8-.8-2.7-1.2-.3-1.3-1.2-1.8-2.4-2.2-.8-.1-1.3-.8-1.9-1.2.3-.5.4-.8.5-1.2-.3-.3-.5-.4-.6-.6-2.6-4.2-3.8-8.7-4.2-13.6-.3-4.9 0-9.6.8-14.3.9-5.1 2-10.2 3.1-15.4.1-.8 0-1.5.4-2 .8-1.3.9-2.3.1-3.6-.1-.1-.1-.4-.1-.8h1.3c1.9-4.6 3.7-9.1 5.5-13.4-.5 0-.9-.1-1.5-.1.4-.8.6-1.3.9-1.8.4.3.9.4 1.3.6.8-1 1.7-1.9 1.3-3.2.4-.4 1-.6 1-.9 0-1 .8-1.4 1.2-2 1.8-2.9 3.6-5.9 5.8-8.7 2.6-3.5 5.1-6.9 7.9-10.1.4-.4.6-.9.9-1.3-1.5-.6-1.9 1-3.3 1.3.5-.8.8-1.3 1.2-1.9l-.9-1.2c.8-1.3.8-1.3-.6-2.4.8-.3 1.5 0 1.7.6.4 1.5 1.5 2.2 2.9 2.7 1.8-2.4 4.5-4 5.8-6.8l.1-.1c2.7-1.3 4.6-3.7 6.9-5.6.3-.3.3-.8.3-1 1.4-.3 2-.6 4-2.8-.6-1.2-1.5-1.8-2.9-1.9.3.6.5 1 .8 1.5-.1.1-.3.1-.4.3-.4-.4-.8-.8-1.2-1-.3-.3-.5-.5-.8-.5-.4.1-.8.4-.9.6-.3.6-.3 1.3-.4 1.9-1.3-.5-2.6-1.2-3.5.5-.1.1-.6 0-1.4.1 1.7-1.3.5-2.2-.4-3.3.6.1 1.2.1 1.3.3.6 1.4 1.8.9 2.4.9.9-1.2 1.5-1.9 2.4-3.2-1.8.8-2-1.5-3.8-1 .8.6 1.3 1.2 1.9 1.8-.9.4-1.4.6-2.2.9v-1c-1.4.3-2.8.5-4.4.9-.1.1-.3.4-.4.5.4.3.9.5 1.3.6-.9 1.2-1-.6-1.8-.1-.4.3-.8.6-1.3 1.2.8.5 1.3 1 1.9 1.4.4-.4.6-.5 1-.9 0 .6.1 1 .1 1.7-1.4-.1-2.7-.3-4-.4-.1 0-.1.1-.3.3.4.3.8.5 1.3.9-.6.1-1 .4-1.4.4-.4-.1-.8-.5-1.3-.9-.3.3-.5.5-.6.8.6.9 2 .9 2.3 2.4-.8-.3-1.5-.3-1.9-.6-1-.9-1.2-.9-2-.1-.5.4-.9.8-1.3 1 .1 1 .1 1.8.3 2.7.4-.3.8-.5.9-.6.6.5 1.2.9 1.7 1.4-.1.4-.3.9-.4 1.3.6.4 1.3.9 1.9 1.3 0 .1-.1.3-.1.4-1.3-.4-2.7-.6-4-1-.1.8-.8.8-1.3.4-.8-.5-1.5-1-2.4-1.7-2.3 2.7-5 5.6-7.3 9 .4.3.5.4.9.6-1.5.1-1.7 0-2.3 1.2-2.6 3.7-5 7.6-7.6 11.3-.4.6-.8 1.3-1 1.9-.1.4.1.9.1 1.4-2.6 1-2.7 4-4.4 6.3.1-1.9.3-3.6.3-5.3 0-2.3-.3-4.5-.4-6.8 0-.4-.4-.8-.5-1.2.3-1.2.6-2.3.8-3.6.1-1.8.1-3.6 0-5.4-.1-2.4.4-4.9.5-7.3.3-5 1.2-9.9 2.6-14.7.3-.9.5-1.8.9-3.1-.6.3-1.2.4-1.5.5-.1-.3-.4-.4-.5-.6 0-.1.1-.3.1-.4-.5.5-1 .4-1.7-.5.8.3 1.3.4 1.7.5h2.4c.4-2 1.9-3.5 1.7-5.5.4-.4.8-.6 1.3-1-.6-.4-1.2-.6-1.5-.9 0-.1.1-.3.1-.4.5.3 1 .4 1.7.6.5-.9 1.2-1.7 1.7-2.6-.5-.3-.8-.4-1.4-.6 1.2-.5 1.9-.9 3.1-1.4-.9-.4-1.3-.8-1.2-1.8.1-.5-.4-1-.6-1.8-.5.6-1 1.2-1.2 1.4-1-.4-1.8-.6-2.6-.9-.5-.3-.5-.6-.1-.9.6.1 1.4.3 2 .4 1.8.1 2.4-.5 2.6-2.4 0-.5.1-1 .3-1.4.3-.6.8-.8 1.4-.3-.3.4-.5.8-.8 1.2 1 1.3 1 1.5.4 2.7.4.6.8 1.4 1.2 2.2 1.2-1 2.2-1.9 3.2-2.9.3-.3.1-.8.3-1.2.3-1.4 1-2 2.6-1.8.3 0 .5-.1.8-.3v-.3c-.5-.1-1-.3-1.5-.4.9-.6.9-.5 1.9-.4 1.9.3 2.9.6 4.2-1.9-.6-.1-1.4-.3-2.2-.5 3.3-1.8 3.3-1.8 4.6-1.2-.5.5-.9 1-1.4 1.4 1.8.9 3.3.8 5 .4.6-.1 1.3-.3 2-.3 6.4-.3 12.8-.3 19.2.3 1 .1 2 .3 3.1.5V8h.3c.3.6.6 1.3 1 2h1.8c.5 0 1.2.3 1.5.5 1.3.9 2.7 1.5 4.4 1.3.8-.1 1.5.1 2.2.1-.3.3-.5.6-.8.9 1.5.6 2.9 1.3 4.2 2 .9.5 1.7.8 2.4-.1.3-.3.9-.5 1.4-.4.9.1 1.2-.4 1.3-1 .3-1.7.6-1.9 2.3-1.9h.8c.5-.3.9-.1.9.4s-.4.8-1 .8-1.3 0-1.8.1c.1.9.1 1.5.3 2.4.8-.4 1.3-.6 1.8-.9.6.6.6.6.6 1.2-.9 0-1.7 0-2.4.3-.5.1-.8.9-1 1.4-.3.5 0 1.3.6 1.3 1 0 1.5 1 2.4 1.4 1-1.8.6-2.6-1.3-2.6-.3 0-.5-.1-.9-.1.3-.3.3-.4.4-.4.9.1 1.8.5 2.6-.4 0-.1.3-.1.4 0 .8.4 1.4.1 2-.3.6-.4 1.2 0 1.5.9h-1.7c-1.7.1-1.9.5-1.5 2 .1.6.1 1.3.1 1.7.6 1.7 2 .6 3.2.9-.3.5-.4.8-.5 1.2 1.2.8 2.2 1.7 3.2 2.3 1 .8 2 1.5 3.2 2.3.1-.3.1-.4.3-.5l.5-.5c0 1.9 1.2 3.6 2.7 3.6 1.4 0 2.2.8 3.1 1.5v.4h-1.2c.6.5.8 1.8 2 1.3.1-.1.9.5.9.8 0 1.3.9 1.8 1.7 2.6.9.9 1.9 1.7 2.8 2.7 4.4 4.7 8.7 9.6 13.1 14.3 1.3 1.5 2.8 2.9 4 4.5 1.9 2.4 3.6 4.9 5.4 7.3 1.2-.6 1.9.3 2.7.5-1 1.7-1.4-.8-2.3 0 .1.3.4.6.5.9.3.5.5 1 .9 1.4v-.5c.5-.3 1-.3 1.9.3-.9.1-1.4.1-2 .3v-.5 3.5c.6.3 1.3.4 1.9.5-.3.8-.4 1.2-.5 1.7-.7.3-.4.3-.1.3zm6.7-20.6c-.1-.8-.3-1.4-.4-2.2 1.5 1.3 1.5 1.3.4 2.2M299.7 28c.4-.8.8-1.5 2.2-1.2-.9.5-1.6.8-2.2 1.2m-127.5 84.9c.6-.6 1-1.4 2.2-.8-.7.4-1.1 1-2.2.8m54.4 48.5c.9-.3 1.7-.4 2.4-.5-.5.9-.8 1.2-1.9 1h-.1s-.4 0-.6-.1c-.3 0-.5-.1-.8-.1.3-.2.7-.2 1-.3m-1.6 1.8c.5.6 1.4.8 1.3 1.9-.9-.4-1.7-.8-2.7-1.2.5-.2.9-.4 1.4-.7m-5.2 5.8c-.9-.4-1.8-.8-2.8-1.3 1.5-.4 1.7-.4 2.9.9 0 .1-.1.2-.1.4m1.4-6.9c.1-.1.6.1 1.2.3-.9 1-1.4 2.2-3.1 1.7.2-1 1.1-1.5 1.9-2m-2.9-2c.1.1.3.1.3.3-.4.4-.8.8-1.2 1.3l-.3-.3c.4-.4.8-.8 1.2-1.3m-.3 5.3c-.5.5-1 .5-1.4-.1.5 0 1 0 1.4.1m-12.2 1.6c.5-.3.9-.5 1.3-.8-.1-.1-.1-.3-.1-.4-.4-.1-.8-.3-1.3-.4.1-.3.3-.4.5-.4.9-.1 1.5.4 2.6 1.3-1.3.2-1.6 1.6-3 .7m3.5 1.3c.3-.9.8-.5 1.2-.5v.4c-.3 0-.7.1-1.2.1m3.8-4.6c.8.4 1.3.6.6 1.5-.8-.2-.8-.7-.6-1.5m1.2 4.6c-2.2-.3-3.1-.8-3.6-2 .8-.6.8-.6 1.9-.4-.4.1-.8.3-1.3.4.7 1.3 2.1 1.1 3 2m-1.8-10.3c0 1.3 0 1.3-1.2 1.4.4-.4.8-.9 1.2-1.4m-.7 5.2c-.6.4-1.3.8-2.2 1.3.3-.9.4-1.7.6-2.7.8.6 1.3 1 1.6 1.4m-6.4-2.6c.8.1 1.3 1.2 2.2.5.6-.4 1.4-.5 2.3-.5-.5.5-1 1-1.3 1.4-.9 0-1.4.1-2 0-.6.1-1.4-.1-1.2-1.4m1.1 2.9c-1 .8-1 .8-2 0h2zm-2.6-2c-.1.1-.3.4-.4.5-.1-.1-.3-.3-.3-.4 0-.3.3-.4.4-.6 0 .3.3.4.3.5m.3-2.1c-1.2-.4-1.2-.4-1.2-1.7.5.8.8 1.3 1.2 1.7m-2.1 3.8c.3.1.6.3.9.3v.3c-.3.1-.5.3-.6.3-.3 0-.5-.1-.8-.3.1-.2.3-.5.5-.6m-9.2-5.9c-1-.3-1.5-.1-1.5-1.2.8-.2 1 .3 1.5 1.2m1.2 2.2v.5c-1 0-2 .1-2.9.3v-.4c1-.3 2-.3 2.9-.4m-5.3-8.1c-.4.9-.8.8-1.2-.1.3 0 .7.1 1.2.1m-1.5 1.9c-.4-.1-.8-.3-1.2-.4.8-.6.8-.6 1.2.4m29-112.1c-.1.9-.5 1.3-1.5.9.5-.4.9-.5 1.5-.9m-2.4 1.5c.1 0 .4.3.6.4-.3.3-.5.5-.6.5-.1 0-.4-.3-.5-.4.2-.2.4-.5.5-.5m.5 1.7v.4c-.3 0-.6.1-1 .1v-.5h1zm-2.8 4.8V48c.6.1 1.3.3 1.9.4v.4c-.5.1-1.1.2-1.9.4m.5 2.7c-1.4.8-1.4.8-2.8-.4.9-.3 1.8-.3 2.8.4m-8.3 6.8c.5.9.3 1.3-.3 1.7-.1 0-.3-.1-.4-.1.3-.6.4-.9.7-1.6M192 74.9c-.1-.1-.1-.3-.3-.4.4-.3.6-.5 1-.6.1.1.1.3.3.4-.2.2-.6.4-1 .6m9.1-10.2c-.3.1-.5.3-.8.4 0-.1-.1-.3-.1-.5.3-.1.6-.1.9-.3-.1.3 0 .4 0 .4m-.9-5.7c.6.5.8.8 1.3 1.2-.5.3-.9.4-1.3.5-.1-.6-.1-1 0-1.7m-.4 3.3c.3-.1.9.3 1.4.4-1.2.6-2.2 1.2-3.2 1.7-.1-.1-.1-.3-.3-.4.8-.5 1.3-1.3 2.1-1.7m-1.9 8.8c-1.5.1-1.5.1-2.2-1.4.9.5 1.5.9 2.2 1.4m-5.1-2.9c-.3.5-.4.9-.6 1.4-.7-1-.3-1.1.6-1.4m-.9 3.1c.3-.9.3-1.8 1.5-1.9h.1c.4-.6.6-1.3.9-1.8.3-.4.4-.6.6-1 .4-.4 1.2-.4 1.9-.4-.6.5-1.2.9-1.7 1.3.1.5.1.8.3 1.2.4-.1.8-.4 1.4-.6l-.1.1c0 .1-.1.1-.1.3v.1h-.1c-.3.3-.4.3-.9.1h-.1c-.6.3-1.4.4-2 .5.1.4.3.8.4 1.2-.3.1-.6.4-.8.6-.1.2.1.6.1 1.2h-1.8c.3-.3.3-.7.4-.9m.1 5.5c0 .1.1.1.1.3-.4.4-.8.6-1.4 1.2.6.3 1.2.4 1.7.6-.6.1-1.3.1-1.9.3v1.5c-1.3-1.3.6-2.3-.6-3.5 1-.3 1.6-.4 2.1-.4m-2.8-.1l.4.4c-.3.3-.4.5-.6.6l-.4-.4c.2-.3.5-.4.6-.6m-.6 1.9c-.1.6-.3 1.2-.4 1.9-.7-.9-.3-1.3.4-1.9m-4.8-58.4c.5.3 1 .4 1.7.8-.6.4-1.2.6-1.7.9v-1.7zm-3.4 30.2c.3.3.4.5.6 1.2-.6-.1-1-.1-1.8-.3.7-.4.9-.6 1.2-.9m-3.6-9.9c.5.1 1 .3 1.5.5v.1c-.5-.1-1-.1-1.5-.3v-.3m-1.3 19.8c.1 0 .3-.1.4-.1.1 0 .3.1.4.3l-.4.4c-.1-.3-.3-.5-.4-.6m1.8 4.1c-.1 1-.1 1-1.9.4.6-.2 1.3-.3 1.9-.4m.5 3.7c-.4-.6-.6-1.3-1-1.9.3-.3.6-.4 1.4-.9 0 .4-.1.6-.1.9-.2.7-.3 1.2-.3 1.9.5 0 .8.4 1 .6v.7c0 .1 0 .3-.1.4-.9-.3-.6-.9-.8-1.5 0 0 0-.1-.1-.2m1 9.7c-.3-.9-.5-1.7-.8-2.6 1.1.6 1.3 1.5.8 2.6m4.3 16.1c0 .1 0 .3.1.5-1.2.1-2.3.3-3.5.4v-.3c1.1-.2 2.2-.4 3.4-.6m-.8-18.9h-1.5c.5-.5 1-1.2 1.5 0m-1.4-12.7c.4.3.8.4 1.3.6-.8.4-1.4.6-2 .9.3.5.5 1 .9 1.5-1.5-.6-2.6-1.9-2-3.2.5-1.3.1-1.8-1.3-2.2 1.7-.5 2.6.4 3.6.5.6.1 1 .4 1 1.3-.8-.4-1.5-.6-2.4-1.2V63c.2-.2.6-.4.9-.7m-.3-33c0-.1 0-.3-.1-.3.5-.3 1-.5 1.5-.8.5.5.9 1 1.5 1.7-1.2-.4-2-.5-2.9-.6m4.1-.6c-.6-1-.6-1-.4-2.4-.4-.6-2-.4-1.3-2l.9.9c.1-.1.4-.3.4-.4.1-.4.1-.9.3-1.3.1-.3.5-.4 1-.5-1.2.8-.3 1.9-.6 3.1.8-.3 1.4-.5 2-.8 0 .1 0 .3.1.4-1.3.7-1.5.9-2.4 3m2.3-7.6c-.8.3-1.2-.1-1.4-.8.6-.3 1.2-.3 1.5.4.2 0 .1.4-.1.4m13.8-13.3l-.4-.4c.3-.4.4-.8.6-1.3.3.1.5.3.5.3.1.7 0 1.2-.7 1.4m11.9-3.1c-.8-.1-1.5-.4-2.3-.5 1-.9 1.8-.4 2.4.1-.1.1-.1.3-.1.4m3.5 1.4c-.3 0-.6-.1-.9-.1.1-.1.1-.4.3-.5.3.1.5.3.8.5-.2-.1-.2 0-.2.1m5.5 0c-.1 0-.1-.1-.3-.1.1-.3.1-.5.3-.6.1-.1.4 0 1-.1-.5.4-.7.7-1 .8m6.4.8h1.3c-.4 1-.8.6-1.3 0m3.9-1.2c.3-.8.3-.8 1-.9 0 .7-.4.8-1 .9m1.9 2.6c-.8 0-.8-.6-.8-1.3.6.1 1.3 0 1.3.8 0 .1-.4.5-.5.5m2.3-.7c-.4-.1-.8-.3-1.2-.4 0-.1 0-.3.1-.4.4.1.8.1 1.2.1 0 .4-.1.5-.1.7m0-3.8c.1-1 .9-.4 1.3-.5-.4.2-.8.4-1.3.5m1.3 1c.4-.8.8-.6 1.2 0h-1.2zm4.1-.5c.5.6.5.6-.8 1.2.3-.4.5-.8.8-1.2m-.4 5c0-.8 0-1.3-.1-1.9.5.3.8.4 1.4.6-.6.5-.8.9-1.3 1.3m5.7-3.7c1 .8 1.2 1.3-.3 1.8.1-.8.2-1.3.3-1.8m-3.7 3.2c.4-.5.8-.9 1.3-1.3.9 1.2.8 2.9 2.6 3.3-1.8.2-2.6-1.2-3.9-2m4.3 1.5c-.4-.4-.8-.8-1.4-1.3.6-.1 1-.4 1.3-.3.5.1.9.6 1.2-.1.1-.3-.3-.8-.5-1.2.4-.1.9-.3 1.3-.4.4.6-.5 2.3-1.9 3.3m13.8 5c-.3-.4-.5-.6-.9-1.3 1.7.1 1.5-1.4 2.7-2.3-.5 1.7.3 2.4 1.7 3.2-1.5 0-2.4.2-3.5.4m1.1 5.4c.4-.8.8-.6 1.3.1-.5 0-.7-.1-1.3-.1m7 4c.9-.5 1.3-1.4 2.7-.9-.9.6-1.5 1.4-2.7.9m3.5 4.4c-.1-1.3-.4-2.4.8-3.5.5.9-1 2.2 1.2 2.6-.9.5-1.4.7-2 .9m0-5.1c.1-.4.3-.8.4-1.2-.4-.1-.6-.1-.8-.3.4-.9.6-1.8 1-2.8.3 0 .5.1.9.1-.4 1.3-.6 2.4-1 3.6 1 .5 1.9.9 2.8 1.4-1.8.5-1.8.5-3.3-.8m6.2 1.8c.6-.4 1-.6 1.5-1v1.4c-.5 0-.9-.1-1.5-.4m.2 6.2c.1-.9.3-1.5.4-2.4.3 1.1.3 1.3-.4 2.4m.1-4.4c.6.4 1.3.6 2 1-1.3.9-1.7.1-2-1m3 2.8c-.5.1-1 .3-1.7.5.8-1.1.8-1.1 1.7-.5m-.5 3.2c.5-.8 1-1.4 1.7-2.2.4.3.6.5.9.6-.1.1-.1.4-.1.4-1.1-.1-1.1 2-2.5 1.2m5.2 3.9c-1.3-.3-2.6-.4-3.7-.6v-.4c1.3-.4 2.4.4 3.7.4v.6m11.9 8.7c-.5 0-1.2.3-1.2-.9.5.1.9.3 1.3.4-.1.2-.1.5-.1.5m3.2 10c-.3 0-.4.1-.6 0-.1 0-.1-.3-.1-.4.1 0 .3-.1.5-.1.1 0 .4.1.5.1-.1.2-.1.4-.3.4m8.6 11.2c.9-.4 1.9-.6 2.8-1 .4.5.8 1.2 1.3 1.9-.6.3-1.2.5-1.8.8v.1h-.1l-.1.1s-.1 0-.1.1h-1.3s-.1 0-.1-.1c-.3-.3-.6-.5-1-.9.1 0 .4.1.5.1.9.3 1.7.4 2.4.6 0-.4 0-.8.1-1.2-.9-.5-2.1.6-2.6-.5m-7.5-36.6c.8-1.2.8-1.2 2-.1-1 .1-1.5.1-2 .1m5.1 11.3c-.5-.1-1-.3-1.4-.4 0-.1 0-.3.1-.4.5.1 1 .3 1.5.4-.2.1-.2.2-.2.4m.6 1.1c.4-.4.6-.6.9-.6.1 0 .4.3.5.3 0 .1 0 .3-.1.4l-1.3-.1zm-.6 21.3c1.4-.8 1.7 0 1.9.8-.5-.3-1-.4-1.9-.8M184.3 32.1h2.4-2.4zm124.1 41.6c-.1 0-.1 0 0 0-.1 0-.1 0 0 0zm-51.5-63.5c-.1 1.4-1.7 2.3-3.5 2 1.9.3 3.4-.6 3.5-2m-3.7-1.1s.1 0 0 0c.1 0 0 0 0 0m.3 3.2c0-.2 0-.2 0 0 0-.2 0-.2 0 0m54.8 61.4l9.3-7.2c.1.8 0 1.4-.5 1.8.4-.4.5-1 .5-1.8-.4-.6-1.3-.9-1.7-1.7.3.8 1.2 1.2 1.7 1.7m-1.8-1.8c0 .1 0 .1.1.3 0-.1-.1-.3-.1-.3m-55.4-54.5h-3.5 3.5M255 7.6c-.1.1-.4.3-.5.5l.5-.5m52 60.3v3.5-3.5z"/><path class="st0" d="M208.9 33.7c-.6-.3-1.3-.4-1.9-.6-1.3.8-1.3.8-2.9.3 1.2-1.5 1.2-1.7-.4-3.2-.3.5-.5 1-.9 1.7-1.3-.6.6-1.8-.4-2.2.8-1.4 1.4-.1 2.3.1.3-.8.5-1.5.6-2.3.4 0 .9-.1 1.3-.1-.1-.4-.1-.8-.3-1.2-.4 0-.8 0-1.3.1 0-.5-.1-.9-.1-1.5-.8.4-1.5.8-2.3 1.2.4.5.8.9 1 1.3 0 .1-.1.1-.1.3-.6-.3-1.2-.4-1.9-.8-1 .9-2.2 1.8-3.3 2.8h1.1v.3c0 .1 0 .4-.1.6.6.1 1.2.3 1.8.4-.6 1.3-.9 1.7-1.3 1.4-1.2-.8-1.8 0-2.3.8 1 .5 2.4 0 3.6 1.5-.4.3-.8.5-1 .8-.6-.5-.9-1.2-1.4-1.4-1-.4-2.3-.3-3.1.5-.9.9-2 1.7-2.3 3.1-.3 1.4-1.2 2.7-1.4 4.2-.4 2.2-.8 4.4-1.2 6.5-.1.9-.3 1.8-.4 2.9 3.5-2.6 10.6-9.5 11.9-11.7h-1.9c.8-.8 1.7-.9 2.6-.9.4 0 1-.1 1.3-.5.3-.3.1-.9.3-1 .6-.3 1.2-.4 1.7-.6 1-.5.1-1.5.4-2.3 1.4 1.2 1.4 1.2 2.9-.3-.2.1-.5 0-.6-.2zm-13.7 5.9c.9-.8.9-.8 1.4.6-.6-.2-1-.4-1.4-.6m3.2 1.1c1.2-.3 1.2-.3 1.5 1-.5-.4-.9-.7-1.5-1m8.5-13.4h-.1.1zm0 0c0 .2 0 .2 0 0 0 .2 0 .2 0 0"/><path class="st0" d="M199.4 30.2c0 .1 0 .4-.1.6.1-.3.1-.5.1-.6m1.8 1c-.6-.1-1.3-.3-1.8-.4.5.1 1.2.3 1.8.4m8.7-3.9h-.3c.3 1.3-.4 1.5-1.2 1.8-.5.1-.8.5-.4 1 .3.5.6.4 1 0s.9-.8 1.3-1.3c.4-.4.9-.8 1.3-1.3-.4 0-.8-.1-1.3-.3-.1.3-.2.3-.4.1"/><path class="st0" d="M209.9 27.3c.1 0 .4 0 .5.1-.2.1-.3.1-.5-.1m1.7.4c.1 0 0 0 0 0m0 0s.1 0 0 0zm60.7-9.5c.1-.1.1-.3.3-.4-.6-.5-1.3-1-2-1.5-.4.4-.6.8-.9 1.2.6 1 1.6.8 2.6.7M232 35.4c-1.4 0-2.6.1-3.7.9 1.6.9 2.6.6 3.7-.9m-17.5-12.8c-1.7-.3-2.6 0-3.5.9 1.4-.3 2.8.8 3.5-.9m-7.1 6.4s0-.1 0 0l.1-.1v-.8l-.1-.1s-.1 0-.1-.1c-.4.6-.6 1.3-.9 1.9.3.1.7-.3 1-.8zm-.5-1.7c0 .2 0 .2 0 0zm50-17.2c0-.1-.1-.1-.1-.3l-.3-.3c-.1-.1-.1-.1-.3-.1s-.1-.1-.3-.1-.1-.1-.3-.1h-.1s-.1-.1-.3-.1h-.7c.3.6.5 1.2.8 1.8.3-.1.4-.1.6-.3.3-.1.4-.3.5-.3.3-.1.4-.1.5-.2 0 .1 0 0 0 0m-.4.2c-.1.1-.4.1-.5.3.3-.1.4-.3.5-.3m.4-.1s0-.1 0 0c0-.1 0 0 0 0m-.4.1c.1 0 .3-.1.4-.1-.1 0-.2 0-.4.1m.4-.1c0-.1 0-.1 0 0zm50.5 62.9c-.3-.4-.5-.6-.9-1-.4.9-.8 1.5-1 2.2.1 0 .3-.1.4-.1.3-.5.8-.7 1.5-1.1M209 33.7h1.4v-.5c-.6 0-1-.1-1.3 0l-.1.1v.5c-.1-.2-.1-.1 0-.1-.1 0-.1 0 0 0zm.7 0h-.7.7m-12.5-.7c-.6 0-1 .1-1.5.1v.5c.4.3.9.4 1.5-.6m20.2 1.6c1-.1 1.3-.6.9-1-.3.3-.6.7-.9 1m37.4-18.5c-.1-.3-.3-.4-.5-.5-.1 0-.3.1-.4.1.1.1.1.4.3.5 0 .2.3 0 .6-.1m-56 14.8c0 .2-.1.2 0 0-.1.2-.1.2 0 0-.1.2-.1.2 0 0l-.1.1v.3c0 .1.1.3.3.1h.3v-.7c-.3.2-.4.2-.5.2zm0 0c.1 0 .4-.1.5-.1-.3.1-.4.1-.5.1zm6.4 15.9l.4.4c.3-.3.4-.5.6-.6l-.3-.3c-.3.1-.5.4-.7.5m69.3 6.9c.1-.4.3-.6.3-1-.8.3-.7.4-.3 1m.4-1c-.2 0-.2 0 0 0-.2 0 0 0 0 0m0 0c-.2 0-.2 0 0 0z"/></svg>