<svg id="Layer_1" xmlns="http://www.w3.org/2000/svg" viewBox="0 190.8 512 512"><style>.st0{fill:#FFFFFF;}</style><path class="st0" d="M272.1 684.6c1.5.4 2.7.8 4.2 1.5 1.9.8 3.8 2.3 5.8 2.7 11.5 3.1 22.7 6.1 34.2 8.8 9.2 1.9 18.8 3.8 28.4 4.6 7.3.8 15 .4 22.3.4 5 0 9.6-.4 15.4-.8-1.5-1.9-2.7-3.5-3.8-4.6 1.9 0 3.8.4 4.6 1.5 1.5 3.1 3.8 2.7 6.5 2.3 6.9-.8 13.4-1.5 20.4-2.7 6.5-1.2 13.4-3.1 20-4.2 6.5-1.2 12.7-4.2 18.8-6.5 6.9-2.3 13.4-6.1 20-10 11.1-6.5 20-15.4 26.5-26.9 1.2-2.3 2.3-4.2.4-6.9 4.6.4 3.5-3.1 5.4-5-.8-.4-1.2-.8-1.5-1.2-.4-.4-1.2-.8-1.9-1.5 4.2-1.2 4.6-.8 5.4-4.6 1.2-4.2 2.3-8.5 3.1-13.1.4-1.9-.8-3.8-1.2-6.1 1.9 0 2.3-1.9 2.3-3.8.8-15 .8-30-1.5-44.6-3.5-24.6-9.6-48.4-18.1-71.9-.4-1.5-1.2-2.7-1.9-5-4.6 10-10.4 18.8-13.4 28.8-1.2 3.5-1.5 7.3-1.5 10.8-.4 10.4-.8 20.7-1.2 31.1-.4 5.4-.8 10.8-1.2 15.8 1.2.8 2.7 1.5 3.8 2.3 0 .4 0 .4-.4.4-1.2-.4-2.7-.4-3.8-.8-.8 3.1-1.2 6.1-1.9 9.2-3.8 19.2-10 37.7-20.4 54.6-8.1 13.1-18.1 25.7-37.3 36.5-8.5 4.6-20.4 8.5-30 9.6h-1.5c-2.7 1.5-5.8 0-8.8 1.2-1.9-2.7-4.2 2.3-6.1-.4-6.1-.4-12.3-2.3-17.7-.4-2.3-.8-3.8-1.9-5.8-2.3-17.3-3.1-34.2-8.1-50.3-14.6-10.8-4.6-21.9-9.2-31.9-15.4-16.5-10-32.7-21.1-48.4-31.9-3.8-2.7-8.1-5-11.1-8.8-.8-.8-2.7-.8-3.1-.8-1.2-1.9-1.9-3.5-3.1-4.2-16.1-13.8-31.5-28.4-46.1-43.8-7.3-8.1-15-16.1-22.3-24.2-4.2-4.6-7.7-10-11.5-15s-7.7-10.4-11.5-15.8c-3.1-3.8-3.1-9.2-1.9-13.1.8-3.5 5-6.5 6.9-9.2 3.1 1.2 5.4 2.3 8.1 3.1-.8.8-1.2 1.5-1.9 2.7 6.9 8.8 13.8 17.3 20.4 26.1 1.5 2.3 3.5 3.1 6.1 1.9 0 6.5 3.8 10.4 7.7 14.2 15.4 17.7 33.4 32.3 51.9 46.5 1.5 1.2 3.8 1.5 6.9 2.7-.8 2.7 1.9 3.8 4.2 5.4 10 6.5 20.4 13.4 30.7 20 1.5 1.2 3.8 1.2 5.4 1.5 5 6.1 12.7 8.1 18.8 10.8 23.8 11.1 49.2 18.4 75.7 20 .4-1.2.4-1.9.4-2.7 1.9 1.2 3.8 2.3 5.4 2.7 1.5 0 3.1-1.2 5-1.9 1.2 3.1 4.2 2.3 6.5 1.9 1.2 0 1.9-.8 3.1-.4 6.1 1.2 12.3.8 18.4-.4 1.5-.4 2.7-1.5 3.8-2.3 1.2.4 2.3 1.2 3.5.8.4 0 .8-1.5 1.2-1.9 1.9.4 3.8.8 5.4.4 5.4-1.9 10.4-3.8 15.4-6.1.8-.4 2.3-1.2 2.3-1.5 0-1.9.8-2.3 2.7-2.3 2.7.4 1.9-2.7 3.1-3.8h4.2c-.4-1.5-.8-2.3-1.2-3.8 1.9.4 3.1.4 4.6.8.4-1.5.4-3.1.8-4.2 7.3-.8 8.5-7.7 12.3-11.9-1.2-.8-1.9-1.5-3.1-2.3 4.6-1.2 4.6-1.2 6.5-5.4 3.8-9.2 6.1-18.4 6.5-28.4.4-4.6.4-9.2.8-15.4-4.2 3.8-7.7 6.9-10.8 10-8.8 8.8-17.3 18.1-26.1 26.5-5 5-10.4 9.2-16.5 13.1-10.4 6.9-21.9 10-35.7 10.4 3.8-3.5 6.5-6.1 9.6-8.8 2.7-2.7 5.4-5.8 8.5-7.7 3.5-2.3 4.6-5.8 8.1-8.1 3.1-1.9 5.8-5 8.5-8.1 3.1-2.7 5.8-5.8 8.5-8.8 2.7-2.7 5.4-5.8 8.1-8.5 2.7-3.1 5.4-5.8 8.5-8.8 2.7-3.1 5.4-6.1 8.1-9.2 2.3-3.1 5-5.8 7.3-8.8 2.7-3.1 5.4-6.1 7.3-9.6 1.9-3.1 5.4-5 7.3-8.1 1.9-3.5 4.6-6.5 7.3-10.4-1.5.4-1.9.4-1.9.4-1.2 1.5-2.3 1.2-3.1-.4-1.2-1.5 0-2.7 1.2-2.7 3.1.4.4-2.7 1.9-3.1 1.2 0 1.9.4 3.1.4-.4 1.2-.4 1.9-.8 2.7 1.5-.4 2.3-1.2 2.7-2.3 7.3-12.3 15-24.6 22.3-36.9 1.5-2.7 4.6-5.4 3.5-9.6 0-.4.4-1.2.8-1.2.4-.4.8-.4.8-.8 0 0 .4 0 .4-.4l.4-.4.4-.4s0-.4.4-.4l.4-.4v-.4s.4-.4.4-.8c0 0 .4-.4.4-.8s.4-.4.4-.8.4-.4.4-.8 0-.8.4-.8c.8-2.3.8-4.6 0-6.9h-.4c-1.5-.4-3.1-.4-5-.8 2.7-3.1 3.1-3.1 5 .8h.4c.8 0 1.5 0 1.9-.4 0 0 .4 0 .4-.4l.4-.4s0-.4.4-.4v-.8s0-.4.4-.8c.4-1.9.4-4.6 1.5-6.1 4.2-6.9 5.4-15 7.3-22.3 6.1-23.4 9.6-46.9 10.4-71.1.4-10.4-.8-21.1-1.9-31.5-1.2-11.5-4.2-22.7-8.5-33.8-4.2-11.1-10-21.1-16.9-30.4-12.7-17.3-29.2-28.4-50-33.4-13.1-3.5-26.9-5.4-40.3-5.4-15.4-.4-31.1-.4-46.5 0-7.7 0-15.4 1.9-23.1 3.1-9.6 1.5-19.2 3.8-28.8 5.8 5 10.4 15.8 16.5 26.1 15.8 9.6-.8 19.6-1.2 29.2-1.2 16.9 0 33.8.4 51.1.4 1.5 0 3.1-.8 4.6-.4 4.2.8 8.5 1.5 13.1 2.3 11.9 1.5 23.4 3.5 34.2 8.1 4.6 1.9 9.2 3.8 14.2 4.2 2.3 0 3.5 1.5 3.8 3.8.4 1.5.8 3.8 1.9 5 5 5.8 8.1 12.7 10.4 20 4.6 13.8 6.5 36.9 5.4 52.6-.4 6.1-.8 12.7-1.2 19.6.8-.4 1.5-.4 2.3-.8h.8v-.4c0-.4 0-.8.4-.8.4-1.2.4-2.3.8-3.8 1.2 1.5 2.3 2.7 1.9 3.5 0 .4-.4.8-.4.8-.4.4-1.2.8-1.9.8-.4 0-.8 0-.8-.4h-.4l-.4.4s0 .4-.4.4c0 0 0 .4-.4.4-.4.4-.8 1.2-1.2 1.5 0 .4-.4.4-.4.8s-.4.4-.4.4v.4s0 .4-.4.4v.4c0 .4 0 .4-.4.8-1.5 8.8-2.3 17.7-3.5 26.9 1.2.4 3.5-.8 3.5 1.9 0 .8-2.3 1.2-4.2 1.9-1.5 2.3 0 4.2 3.1 5.8-3.1 1.2-6.5 1.2-3.8 5.4.4.8-.8 2.7-1.5 4.2-.8 1.9-2.3 3.5-2.3 5.4 0 3.8-1.9 6.9-2.7 10.4-.4 1.5-.8 3.5-1.2 5 2.3 1.2 4.2 1.9 6.1 2.7 0 .4 0 .8-.4 1.2-2.3 0-5-.4-7.3-.4-6.5 19.2-15.4 37.3-25.7 54.2-11.1 18.1-23.8 35-38 50.3-8.1 8.8-16.5 17.3-24.6 26.1-.8.8-1.5 1.9-2.7 2.7 0 0-.4 0-.4.4-2.7 2.7-5 5-7.7 7.3h1.9c.4.4.8.4.8.8 1.5 3.1-3.8 2.3-2.7 4.6 1.2 2.7 0 3.8-2.3 5-1.2-2.3-.4-4.6.8-6.5.8-1.2 1.2-2.3 1.9-3.8l-8.1 6.9s-5.4 4.6-8.5 7.3c.8 1.5 1.5 2.3 2.3 3.8-1.5-.4-2.3-.8-2.7-1.2-.4-.4-.4-1.5-.4-1.9-5.4 4.6-10 8.5-14.2 11.9 1.5 1.9 2.7 3.5 3.8 4.6 0 .4-.4.4-.4.8-2.3-.8-4.6-1.5-6.9-2.7-.8 1.5-1.2 3.1-1.2 3.5-2.7.8-4.2 1.5-6.9 2.3 2.3 1.5 3.8 2.3 5 3.1-2.7 2.7-5 1.5-6.1-1.2-4.6 3.1-8.5 6.1-12.7 8.5-8.5 5-16.9 3.1-21.5-4.6 3.8-3.5 8.1-7.3 11.9-11.1-1.9-.8-3.5-1.2-4.6-1.9 0-.4.4-.8.4-1.2 2.3.4 4.6.8 8.1 1.2.8-.8 2.3-2.7 3.5-4.2-2.7 0-5.8.8-9.2-1.9 2.7-.4 5-.4 6.9-.8 1.2-.4 1.9-1.5 3.1-2.3 0 1.2.4 2.3.4 3.5 3.5-1.2 6.5-3.5 8.1-7.7-4.2.8-7.3-2.3-10.8.4 1.2-1.2 2.3-1.9 3.5-2.3 1.5-.8 3.1-1.2 4.6-1.5 1.9.8 3.5 1.9 5.4 2.7 1.2-.8 2.3-1.5 3.1-2.3 16.9-14.2 32.3-30 46.9-46.5 4.2-4.6 9.2-9.2 10.8-16.1-2.3-1.2-4.6-1.9-7.3-3.1 1.2-.8 1.9-1.2 2.7-1.2 9.2.8 10 .8 15-6.5 3.1-4.2 6.1-8.8 9.2-13.1 12.7-18.8 23.1-38.4 30.7-59.9 2.3-6.1 3.8-12.7 6.1-19.2-5.8-2.3-3.1 3.1-5 4.2-2.7 0-6.1-2.3-8.5 2.3 1.9.8 3.5 1.5 5.8 2.3-1.5.8-3.1 1.9-3.8 1.5-3.8-1.2-7.7-2.7-11.5-4.6h-.4s-.4 0-.4-.4c-.4-.4-.8-.8-.8-1.2-2.7.4-5 .8-7.7.8-.4 0-.8.4-1.2.4-2.3.8-5 1.2-5.4-2.3-.4-2.7-2.7-2.3-5-1.9.8-5-1.9-7.7-4.2-10.8-.4-.8-2.3-.8-2.3-1.2-1.2-6.1-6.5-9.6-9.6-14.2-2.7-3.8-6.1-6.9-10.4-11.1-1.2 2.7-1.5 4.2-2.3 5.8-.8 1.5-3.8 1.9-5.4.4-.8-.8-.8-1.9-1.5-3.1 1.9.8 3.1 1.2 4.2 1.5 1.5-2.3 2.7-3.8 3.8-5.8 0 0 0-.4-.4-.8l-2.7-2.7c-.8.8-1.5 1.5-3.1 2.7 1.9-7.3.4-6.5-5-6.1.4-3.5.4-3.5-1.9-6.5-1.5-1.5-3.1-3.5-4.6-5-2.7-2.7-5.8-5.4-8.5-8.5-2.7-2.7-5.8-5-8.5-7.7-8.8-8.1-17.7-15.8-27.3-23.1-18.8-14.6-39.6-27.3-62.2-36.5-.8 2.7-5.4 1.2-5 5 3.1 2.3 7.7 0 10 4.2-.8.4-.8.8-.8.8H251c-3.8-2.3-7.3-2.7-10.8 1.2-1.5 1.5-4.2 2.7-6.5 2.7-3.5.4-6.9-.4-10.4-.8-1.2 0-2.3-.8-3.8-.8v.4c3.5-.8 8.1.8 9.6-3.5 2.7.8 5.4 1.5 7.3 2.3 4.6-3.1 3.8-9.6 10.8-10.4-5-1.9-9.2-3.1-12.7-4.6-3.1-1.5-5.8-2.3-8.8.4-.8-1.5-1.2-3.5-1.9-3.8-4.6-1.5-9.2-3.5-14.2-2.7 3.5 1.5 6.9 2.7 10.8 4.2-1.9.8-4.2 1.5-5.8 1.9-1.2 2.3-2.3 4.2-3.5 6.9-2.3-2.3 0-7.3-5-6.1-.4.8-.8 1.9-.8 1.9-5-.4-9.6-.8-14.6-1.2 2.7-1.9 4.6-3.5 6.9-5.4 1.9 1.2 3.8 2.7 5.8 3.8 2.3-.8 4.2-1.9 6.5-2.7-1.9-1.5-3.8-3.5-5-4.2-4.2 0-7.7 0-11.1.4-4.6.8-6.1-4.2-11.1-4.2 1.5 3.8-4.6 1.9-4.2 6.5 3.8-1.9 7.7-2.3 11.1.4-1.9 3.1-3.1.8-4.2-.4-1.9 1.2-4.2 1.9-6.1 3.1 1.9 4.2 6.5.4 9.2 3.5-2.7.4-4.2 3.1-7.3.8-.4-.4-1.9.4-2.3.8-1.2 2.7-3.1 1.2-5.8 1.5 1.5-1.9 2.7-3.1 3.8-4.6-1.9-.8-1.5-5-5-2.7.4 3.8.4 3.8-3.5 4.6 1.2-7.7 2.3-9.6 7.7-12.7.4-.4.8-1.2 1.5-1.9-5.8-.4-10.8-1.9-15.8-1.2-5.4.8-10.4-1.9-15 .4-1.2 1.2-3.1 3.5-4.2 3.5-3.5-.4-4.2 1.9-5.8 3.5-1.9-.4-3.8-.8-5.4-.8-1.9-.4-3.5-1.2-5.4-.8-1.2 0-2.7 1.2-3.8 1.5 0-1.2-.4-1.9-.4-3.5-1.2 1.5-2.3 2.3-2.7 3.5-.4 1.2-.8 2.3-.4 3.5.8 1.5 1.9 1.9 3.8 1.2l.4-.4h4c.8.4 1.9.4 2.7.8h.4c.8-.4 1.9-1.5 2.7-1.2 3.8 1.2 6.1 3.8 9.2 6.1 1.2.8 1.9 1.5 2.3 3.5-3.1-.8-6.1-1.5-9.6-2.3.8-1.5 1.2-2.7 1.9-3.8-2.3-.4-4.6-1.2-6.5-1.5 0 1.5-.4 3.1-.4 5 .4 0 .8-.4.8-.4.8 0 .4.8 0 1.5v.4c-1.2 1.9-3.8 3.8-1.5 7.3 1.5-1.2 2.7-2.3 4.2-3.1 2.3-.8 3.5.4 4.6 1.9-7.3 3.5-14.6 2.3-22.3 1.5-1.2 1.5-3.8 3.1-1.9 6.5 6.9-.4 13.4-6.1 20-.4 8.5-1.9 16.1-5 25-3.1-1.5-1.9-3.1-3.8-4.2-6.1 2.7-2.7 5.8-2.3 6.9 1.5 1.2 3.8 3.1 5 6.9 5v1.2c-.8.4-1.9 1.2-2.7 1.2-2.3-.4-4.6-1.5-6.5-2.3 0 2.3 1.9 3.1 3.8 4.2 4.6 2.3 9.2 4.6 14.2 6.9 1.9-2.3 4.2-2.3 7.7-1.5 3.5.8 7.3 0 10.8 0 .8 0 1.2-.8 1.5-.8-.4-1.2-.8-1.9-1.2-3.5 3.5 2.7 5.8 2.7 7.7-.8-1.5-1.5-3.1-3.5-5.4-1.9-.4 0-.8.4-.8.4H193.6l-.4-.4s0-.4-.4-.4l-1.2-1.2c-3.1.8-6.1 1.9-10 3.1-.4 0-1.9-.8-4.2-1.5 1.9-1.9 3.1-3.8 4.6-5.4 3.5 1.5 6.9 2.7 10 3.8 0-.8-.4-1.9 0-2.3 1.5-1.2 3.1-2.7 4.6-2.7 3.5 0 5.4-1.5 7.3-4.2.4-.4 1.2-.4 1.9-.4.8 1.5 1.5 2.7 2.3 4.6 3.1-4.6 6.1-1.9 9.2-.8-1.5 6.5-1.9 6.9-7.7 5-1.2-.4-1.9-.4-3.5-.8-.4 2.3-1.2 4.6-1.5 6.9 8.5 1.2 10.8 1.9 14.6 6.5-1.2 1.2-2.3 2.3-4.2 3.8 3.8-.8 5.4 0 5.8 3.5-8.1-1.9-11.9-.4-16.5 6.9 1.2.4 1.9.8 3.1 1.5-1.5 1.2-3.1 1.9-4.2 1.2-2.3-1.5-3.5-.4-4.6.8-5 4.2-10.4 8.8-15.8 13.4 6.9 3.5 13.1 1.2 19.6-1.9-2.3 3.8-3.1 4.2-5.8 4.6-1.2 0-3.1 0-3.5.8-1.9 3.8-3.5 2.3-5.8.8-2.7-1.9-6.9-1.9-9.6.4-6.9 6.1-14.2 12.3-20.7 19.2-10.4 11.1-20 22.7-30 33.8-2.3 2.7-4.2 5.4-3.5 10-3.8-2.3-4.6.8-6.1 2.7-1.5 1.9-3.8 3.8-2.7 6.1-2.3 1.9-4.2 3.8-5.8 5.4-1.5 1.9-3.5 3.8-2.7 6.9-3.1.4-3.8 3.1-5 5.4-1.9 2.7-3.5 5.8-5 8.5-11.9 19.6-20.7 40.7-26.5 63-.4 1.5-.4 2.7-.8 4.6 3.1-.8 5.4-1.5 8.5-2.7-2.7 4.2-6.9 2.7-9.6 5.4-.4 1.2-.8 2.7-1.2 4.2-3.1 15.4-4.2 30.7-3.8 46.1.4 11.9 1.5 23.8 5.4 35.4 3.8 11.9 10 22.3 18.8 31.5 1.5 1.5 3.1 4.2 6.1 2.3.4 0 1.2.8 1.5 1.2-.8.8-1.2 1.2-1.9 1.5 2.7 1.5 5 3.1 7.3 4.6 1.9-1.9-2.3-4.6.8-5.8 1.9 1.2 3.8 1.9 5.8 3.1-.8 1.5-1.5 3.1-1.9 4.6 1.5.8 2.7 1.5 4.2 1.9 2.7.8 5 1.5 7.7 2.3.8.4 1.9 0 2.3.4 2.7 2.3 4.6 1.2 6.5-.8 1.2 1.2 1.9 2.7 3.1 2.7 6.5.8 13.1.8 20-.4-.8-1.2-1.2-1.5-1.5-2.3l-18.1-18.1s-.4-.4-.8-.4c-.8-.4-1.2-.8-1.9-1.2-.4 2.3-.4 2.3-3.8 2.7.4-2.3 1.9-2.7 3.8-2.7v-.4c-.4-.8-.4-1.2-.8-1.9v-.8h-2c-2.7.8-3.1-.4-3.5-2.3-.8-4.2-2.3-6.1-6.1-7.3-.4 0-.4 0-.8-.4s-1.2-.8-1.5-.8h-.4v-.4c-1.9 0-4.2 0-6.1-.4-2.7-.8-4.6-1.2-7.3 1.5-2.3 2.3-5 3.8-4.6 7.7 0 .4-.8.8-1.2 1.2-.4-3.1-.8-5.8-1.5-8.8 2.7-1.5 7.3-.4 7.7-6.1 3.8 3.5 9.2 1.5 12.7 5.4h3.5c-1.9-4.2-6.9-5.4-7.7-9.6 0-.4-.8-.4-1.2-.4-2.3 0-2.3-1.2-1.9-2.7 0-.8-.8-1.9-1.9-3.5-1.2 1.5-2.7 2.7-2.7 3.8-.4 2.7 0 2.7-3.5 1.5 3.8-3.5 0-6.1-.4-9.2.8-1.2 1.9-2.3 3.1-3.8-1.2-2.7-2.3-5.8-3.8-8.8 3.5-1.5.4-3.5.4-5.4-2.7.8-5.4 1.2-8.1 1.5.8-2.3 1.2-4.6 1.9-6.5 2.3 3.8 4.2 4.2 6.1 3.1.4-1.5.4-2.7.8-5 2.3 2.3 3.8 4.2 6.1 5.4 1.9 1.2 4.6 1.5 6.9 2.3-.8 5.4 0 5.8 5 6.9 1.5 0 3.1.8 5 1.5-.8 1.9-1.2 3.1-1.9 4.6 7.7 7.3 15 15 22.7 21.9 8.8 8.1 18.1 16.1 27.3 24.2 2.7 2.7 5.8 3.5 8.1 1.5 3.1.8 5 1.5 7.3 1.5 3.1 0 6.1-.8 9.2-.8.4 0 .8.4 1.2.8-1.2 1.2-1.9 2.3-3.5 3.8 4.2 1.9 7.7 3.5 11.5 5.4-3.1 1.2-5.4 1.2-7.3-.8-4.2-4.6-9.6-5-15-5.8-.8 0-1.5.8-3.1 1.5 3.8 3.1 7.3 5.8 10.8 8.1 1.2-.8 2.3-1.2 3.8-1.9-1.2 6.1 3.8 7.3 6.9 9.6 4.6 3.5 4.6 3.5 12.3 3.8-1.2 1.2-1.9 1.9-3.1 2.7 8.5 5 16.9 10.4 25.4 15 11.5 5.8 23.8 11.1 35.7 16.1 0-2.5 2.7-2.5 5.4-2.2m220.1-49.5c-2.3 1.5-2.3 1.5-5.8-1.5 2 .7 3.9 1.1 5.8 1.5m-9.9-13.5c-.4.4-.8.8-1.2 1.5-.4-.8-.8-1.5-.8-1.5.4-.4.8-.8 1.5-1.2-.3.5.5 1.2.5 1.2m-1.6-6.5c-.4.4-.4.8-.4 1.2-1.9 1.2-3.1.4-3.1-2.3.8.3 2.4.7 3.5 1.1m-24.2 49.2c-1.2-3.1.4-3.5 3.5-3.8-1.6 1.5-2.3 2.2-3.5 3.8m12.3-21.2c0 .4 0 .8.4 1.2-1.2.4-2.3.8-3.5 1.2 0-.4-.4-.8-.4-1.2 1.2-.4 2.4-.8 3.5-1.2m-4.6 9.7c1.2.4 1.9.8 2.7 1.5-.4.4-.4.8-.8 1.2-.8-.4-1.9-.8-2.7-1.2 0 0 .4-1.2.8-1.5m-3.5-26.2c-1.5 2.7-3.5 2.3-5 1.2 1.6 0 3.1-.4 5-1.2m-12.3 13.9c.4.4.8.8 1.2 1.5-.8.4-1.9 1.2-2.7 1.5-.4-.4-.4-.8-.8-1.2.8-.7 1.6-1.5 2.3-1.8m-69.5 52.6c.4 0 .4-.4.4-.4h2c.4.4.8.8.8 1.2h1.2s0 .4.4.4h.8v2.4c-1.2-1.5-1.9-2.3-2.7-3.5h-2c-1.2 0-2.7-.4-4.6-.8 3.3 1.1 3.7.7 3.7.7m-3.1-1.5l-4.2 4.2c-.8-1.2-1.5-2.3-2.3-4.2h6.5zm-8.4 0c0 .4 0 .8.4 1.2-1.2 0-2.7.4-4.6.4 1.1-2.8 3-2 4.2-1.6M289 675.8c-1.9 1.5-3.1 2.3-4.6 3.1-.8-1.5-.8-2.3-1.2-3.1h5.8zm99.9-45.7c.4 0 1.2.4 1.9.4 2.3 1.2 4.6 1.9 6.9 3.1 0 .4-.4.4-.4.8-3.5-.8-6.9-1.5-10.8-2.7.8-.5 1.6-1.2 2.4-1.6m-3.5-1.6c-3.1-.8-4.6-1.2-6.5-1.9 1.5-1.9 1.5-1.9 6.5 1.9m-2.7 5c-.8 2.7-3.5 1.5-5 2.3-1.5.8-3.1 2.3-4.6 3.5-.4-.4-.4-.8-.8-.8 3.1-2.3 4.7-7.7 10.4-5m-9.6-13.4c.8.4 1.9.8 2.7 1.2 0 .4-.4.8-.4 1.2-1.2-.4-1.9-.8-3.1-1.2.4-.4.8-1.2.8-1.2m-9.6 17.7c.4.4.4.8.4 1.2-.8 2.3-1.9 2.3-4.6.4 1.5-.5 3.1-.9 4.2-1.6m-62.6-418.5c-.4-.4-.8-1.2-1.2-1.5.4-.4 1.2-.8 1.5-.8s.8.8 1.5 1.9c-.7.4-1.4.8-1.8.4m32.6-8.4c.8.8 1.5 1.2 1.5 1.5-.4.8-.8 1.5-1.5 1.9-.4 0-1.2-.8-1.9-1.2.8-.7 1.2-1.1 1.9-2.2m0 11.5c-2.7-.4-2.3-1.5-.4-5 1.2 1.5 1.5 2.7 2.3 3.8-.7.8-1.5 1.2-1.9 1.2m32.7-5c-1.2-2.3-1.2-2.3 2.3-3.8-1.1 1.5-1.9 2.3-2.3 3.8m96.8 23.4c-1.5-2.7-1.5-2.7 3.1-2.7-1.5 1.2-2.3 2-3.1 2.7m10.4 1.6c1.2.4 2.3.8 3.8 1.2 0 .4 0 .8-.4 1.2-1.2-.4-2.3-.4-3.8-.8 0-.5.4-1.3.4-1.6m4.2 10.7s-.8.8-1.2 1.5c-.4-.4-1.2-1.2-1.2-1.5-.4-1.2-.8-2.3-1.2-4.2h5c.2 1.5-3.3 1.9-1.4 4.2m28.9 76.1v1.2h-2.7v-1.5c1.1.3 1.9.3 2.7.3m-2.7 8.1c.4.8.8 1.5 1.5 2.3-.4.4-1.2.4-1.5.8-.4-.8-.8-1.9-.8-2.7 0 0 .4 0 .8-.4m-.4 30.7c-1.2.8-1.9 1.2-3.8 1.9.3-3 2.3-2.3 3.8-1.9m-4.2-64.2c.4 0 .8.8 1.2 1.2-.8.4-1.5.8-1.9.8s-.4-.8-.8-1.2c.7-.4 1.1-.8 1.5-.8m.3 20.8c-.8-2.3-1.2-3.8-2.3-5.8 3.9 1.6 3.1 3.1 2.3 5.8m-9.6 10c4.6-2.3 5.8-1.9 9.2 3.1-3.4 0-5.3-5-9.2-3.1m-.3 42.3c1.2 0 1.9.4 3.1.4 0 .4-.4.8-.4 1.5-1.2-.4-1.9-.8-3.1-.8 0-.4.4-1.1.4-1.1m-8.5 29.2c.4 0 1.2.4 1.5.4-.4 1.5-.8 2.7-1.2 4.6-2.6-2.4-1.4-3.5-.3-5m-14.6 47.6c.8.8 1.2 1.5 1.9 2.3-.4.4-.8.4-.8.8-.8-.8-1.2-1.9-1.9-2.7.4 0 .4 0 .8-.4M436.9 519c1.9 1.2 3.1 1.9 4.2 2.3-2.6 1.6-2.6 1.6-4.2-2.3m8.9-19.6c.8 1.2 1.2 1.9 1.9 3.5h-8.1c1.9-1.2 3.5-2.3 6.2-3.5m-6.6-6.9c.8 3.5-1.5 2.3-2.3 3.1 0-.4-.4-.8-.8-.8.8-.7 2-1.5 3.1-2.3m-1.9 15.4c-4.6 4.2-4.6 4.2-6.9 3.1 2.3-1.6 4.6-2.3 6.9-3.1m-7.3 14.2c1.5 0 2.7-.4 4.6.4-1.9.4-3.8 1.2-5.8 1.5 0-.4 0-.8-.4-1.5.4 0 .8-.4 1.6-.4m-11.5 6.9c1.5 1.2 3.1 1.9 5.4 3.8-5.8.4-5.8.4-5.4-3.8m-.8 18.1c-.4.8-1.2 1.5-1.5 2.7-.4-.4-1.2-.8-1.5-1.2.8-.8 1.5-1.2 2.3-1.9-.1-.4.7.4.7.4m-.4-10.4c-2.7.8-3.1-.8-4.2-2.7 2.3-.8 3.4.4 4.2 2.7m-2.7 6.9c-2.7.4-4.2.4-6.1.8 2.3-2.7 2.3-2.7 6.1-.8m-16.5 4.6c-1.2.4-2.7.4-3.8.8.7-2.3 2.3-1.9 3.8-.8m-45.7 85.3h-3.5V632c1.2 0 2.3.4 3.5.4v1.1M352 602c0-.4-.4-.8-.4-1.2.8-.8 1.2-1.5 2.3-2.7.4 1.5.8 2.7.8 3.5-1.2 0-1.9.4-2.7.4m7.7-1.1c2.3 0 4.6-.4 6.5-.4v1.2c-1.9 1.1-3.8 2.3-6.5-.8m-2.3-4.6c2.3-.4 4.2-1.2 6.9-1.5-2.3 3-3.9 4.5-6.9 1.5m16.5-21.9c.4.4 0 1.5-.4 1.5-1.2.4-1.9 0-4.2 0 1.9-1.9 3.1-3.1 4.6-1.5m5.4 4.2c-3.5 4.6-8.8 2.7-12.7 4.6-.4 0-1.2-1.2-2.3-1.9 4.6-4.2 9.6-2.3 15-2.7m-14.6 8.4c0-.8.8-1.2 1.2-1.9 4.2 5.8 4.6 4.6 8.8 1.5 3.1-2.3 6.5-4.6 9.6-6.9.4.4.8.8 1.2 1.5-3.5 2.7-6.9 5-10.8 7.7 1.2 1.2 1.9 1.9 2.7 3.1-.8.4-1.2.8-1.5.8-2.7 0-5.4-.8-8.1-.4-1.5 0-3.5 1.2-4.2-1.2-.1-1.1.7-2.6 1.1-4.2m-4.6-6.1c-2.7.8-5 3.1-7.7.8 2.7 0 5.4-.4 7.7-.8m-5.4 5c1.5 1.5 2.7 1.9 5.4 1.9-1.2 1.5-1.9 3.5-2.3 3.5-2.7-.8-4.6.4-6.9 1.9-.4.4-1.5-.4-2.7-.4 1.9-1.2 3.1-2.3 5-3.5-2.3-1.2-3.8-1.9-5.4-2.3 2.3-3 4.2-3.4 6.9-1.1M337.8 597c3.1-.8 4.6-.4 10.4 4.6-1.5-.4-3.5-.4-4.6-1.5-1.5-1.5-3.5-1.9-5.4-1.9l-.4-.4c-.4-.4-.4-.4 0-.8m2.7 34.6l1.2 1.2c-1.2 1.9-1.5 4.6-5.8 4.6 1.9-2.7 3.4-4.2 4.6-5.8m-6.2.4c.4 0 .8.4 1.5 1.2-1.2.4-1.9.8-2.3.8s-.4-.8-.8-1.2c.8-.4 1.2-.8 1.6-.8m-7.3-.8h2.3v.8c-.8.4-1.2.4-1.9.8-.4 0-1.2 0-1.9-.4.7-.8 1.1-1.2 1.5-1.2m89.9-188.3c-2.3 3.1-2.3 3.1-6.1 0h6.1zM403.1 416c.4 1.2.4 1.9.8 3.1-.4 0-.8.4-1.2.4-.4-1.2-.4-1.9-.8-3.1.4-.4.8-.4 1.2-.4M233.3 274.3c-1.5 1.2-2.7 1.9-4.6 3.5l-2.7-2.7c2.3-2.4 4.6-1.2 7.3-.8m-83.8-15.4h2.3c0 1.2-.4 2.3-.4 3.5-.4 0-.8 0-1.2-.4-.3-.8-.7-2-.7-3.1m5.4 12.3c-1.2-.4-2.7-1.2-4.2-2.3 2.3.4 3.8.4 5.4.4 3.8.8 4.2.8 5.4-3.8h1.2c0 1.2.8 2.3.4 3.1-2.1 3-5.2 4.1-8.2 2.6m9.6 5c-.8-.4-1.5-.8-1.9-1.5-.4-.4-.4-1.2.4-2.3.8.8 1.9 1.5 2.7 2.7-.5.3-.8.7-1.2 1.1m53 .7c-.8-3.5-.8-3.5 1.9-3.8-.4 1.5-.7 2.3-1.9 3.8M118 496v-1.2h6.1v1.2H118zm-2.3-21.9c4.2-1.9 3.8.4 3.1 3.1-1.2-.8-2-2-3.1-3.1m3.8 13.8c1.5-3.1 1.5-3.1 5-1.2-1.9.8-3.4.8-5 1.2m10.4 13.1c.4-2.3.8-3.8 1.2-5.8 1.2.8 1.9 1.2 3.5 1.9-2 1.2-2.8 2.3-4.7 3.9m1.9 7.7c-1.2-1.2-1.9-1.9.4-4.2.4 1.5.8 2.7 1.2 3.8-1.2.4-1.6.7-1.6.4m1.9 11.5c0-1.2-.4-2.3-.8-3.5.4 0 .8 0 1.2-.4.4 1.2.8 2.3 1.2 3.1-.4.4-1.2.4-1.6.8m25 24.6s-.4-.4-.8-.4c.4-.8.8-1.5 1.2-1.9.4 0 .4 0 .8.4-.4.3-.8 1.1-1.2 1.9m-3.4-5c0-.4-.4-.8-.4-1.5 1.5-.4 3.5-.8 5-1.2 0 .4 0 1.2.4 1.5-1.6.4-3.1.8-5 1.2m8-8.5c-.8.4-1.5.8-1.9 1.2-.4.4-1.2.8-1.5.8-1.9.4-3.8.4-6.1.8v-1.2c1.9 0 3.8.4 6.1.4.4-1.5.8-1.9 1.2-2.3h3.1c-.5-.1-.9-.1-.9.3m-9.6-15.3c3.1 1.2 3.1 2.3 1.9 5-.7-2-1.1-3.1-1.9-5m32.3 43.4v-1.5c.8 0 1.2-.4 1.9-.4.4 0 1.2.8 1.2 1.9-.8.4-2 .4-3.1 0m17.3 20c-.8 0-1.2-.4-1.9-.8.4-.4.8-1.2 1.2-1.2s1.2.4 1.9.8c-.4.4-.8 1.2-1.2 1.2m6.9 10.7c-1.2-.8-1.9-1.5-3.1-2.3.8-.4 1.5-1.2 2.3-1.9.8 1.5 1.5 2.7 2.3 4.6-.7-.4-1.5-.4-1.5-.4m-2.7-14.2h1.2v3.8h-.8c-.4-1.1-.4-2.3-.4-3.8m9.2 5.4c-.4 0-.8-.4-1.2-.8 0-.4 0-.8.4-1.2.8.4 1.5.4 2.7.8v.8c-.7 0-1.1.4-1.9.4m20.8 8c-.8-.4-1.9-.8-2.7-1.2v-.8c1.2.4 1.9.8 3.1 1.2l.4.4c-.4.1-.8.4-.8.4m11.1 2.7c0-1.5 0-2.7.4-4.2 1.9.8 2.7 1.5 3.8 1.9-1.5.8-2.6 1.6-4.2 2.3m8.1 3.5c-.8-.4-1.2-.4-1.5-.4-.4 0-.4-.4-1.2-1.2 1.2-1.5 2.7-3.1 3.8-4.2.4.4.8.4 1.2.4-.8 1.9-1.5 3.5-2.3 5.4m16.5 14.2c1.9-.8 3.1-1.2 5-2.3-.8 3.5-1.9 4.6-5 2.3m-.4-7.3c.4-2.7.4-3.8.4-5.8 1.9.8 3.8 1.5 6.5 2.3-2.3 1.2-4.2 2.4-6.9 3.5m-1.5-12.7c1.9-2.7 3.8-1.9 5.8-.8 2.3 1.5 2.3 4.6.8 6.9-.4-1.5-.8-3.1-1.2-4.2-1.6-.3-3.5-1.1-5.4-1.9m20.4 1.2c.8-1.9 1.9-4.2 2.7-6.1 2.3 3.4 1.1 6.1-2.7 6.1m7.3-14.2c1.2-2.7 3.8-1.2 5.8-2.7-.8 3.4-.8 3.4-5.8 2.7m25.3-6.6c-1.9-1.2-2.7-2.7-.8-5.4.4 1.2.8 1.9.8 2.7 1.5-.4 3.1-.8 5-1.2-1.5 3.9-3.4 5.1-5 3.9m6.6-9.6s-.8 0-1.2.4v-3.1h1.5c-.3.8-.3 2-.3 2.7m39.5-32.2c-3.1-1.2-6.1-2.3-9.2-3.8.4.4.8 1.2 1.5 1.9-3.5 1.5-6.1 3.1-9.2 4.2-1.5-2.3-6.1.4-6.5-4.2 4.2-.4 6.5-2.3 6.5-7.3 2.3.8 4.2 1.5 6.5 2.3-.4 2.3-4.6 0-3.5 3.8 1.5-.4 3.1-.4 4.6-.8 1.5-1.2 3.1-1.5 4.6-1.5h7.3c-1 1.9-1.4 3.4-2.6 5.4m-8.4-11.2c.4-1.5.8-2.3 1.2-4.6 1.2 2.7 1.9 4.6 4.6 3.1.4-.4 2.3 1.2 4.2 2.3-4.6 2.3-6.6-1.2-10-.8m7.3-8.8c.4 1.5.4 3.1 1.2 5.4-2.3-1.5-4.2-3.1-5.8-4.2 2.7-4.6 4.2-5 10.4-2.3-2.7.7-3.9.7-5.8 1.1m5-4.3c1.2-2.7 1.2-2.7 3.8-1.5-1.1.4-2.3.8-3.8 1.5m13-2.6c-.8-.4-1.2-2.3-.8-2.7 1.5-2.3 3.1-.8 4.2.4-.7 1.5-1.4 3.4-3.4 2.3m13.1-72.3c-2.3-.4-2.3-.4-3.8-4.6 3.4 0 3.4 0 3.8 4.6m-3.4 65c.4 3.1-1.9 3.8-3.5 5l-1.2-1.2c1.6-1.2 3.1-2.3 4.7-3.8m-22.3-116.5h.8c0 .8.4 1.5.4 2.3 0 .4-1.2.8-2.7 1.5.7-1.9 1.1-2.6 1.5-3.8m-17.3-5.7c0 2.3.4 4.6.4 6.5-2.7-.8-2.7-.8-.4-6.5m-20.4-25c.8 0 1.9 0 2.7.4v1.2c-.8 0-1.9-.4-2.7-.4v-1.2m1.2 17.7c.4.4.8.4 1.2.8-.4 1.2-.4 2.7-.8 5-1.5-1.9-2.7-2.7-2.7-3.5s1.5-1.6 2.3-2.3m-3.5-6.2c-1.2-1.5-1.9-2.3-2.7-3.5 3.1-.7 3.1-.7 2.7 3.5m-33.4-34.6c.4 0 .4 0 0 0l.4-.4c1.2-1.2 3.1-1.9 4.6-.8V319h2.8c-.4.4-.4.8-.8 1.2-.8 1.5-1.5 2.7-1.9 3.8-.8.8-1.5 1.2-2.3 1.9-.8.8-1.2 1.5-1.5 2.3-1.7-1.7-3.2-2.5-1.3-4.4m1.9 10.4c.4.4.4.8.8 1.2s.4.8.8 1.2c1.5-2.3 2.7-5 4.2-7.7 1.2.8 2.3 1.2 3.5 2.3-1.9 1.9-3.5 3.8-5 5.4-.4.4-1.5 0-2.7 0-1.5 0-2.7.8-4.2 0v-.4s0-.4-.4-.4c-.8-1.2-2.7-1.9-4.2-3.1 4.1-2.3 5.3-2 7.2 1.5m11.5 8.1c-1.2 2.7-2.7 1.9-5-.4 2.7 0 3.9.4 5 .4m-20.3-13.1c-.4-.4-.8-1.2-1.2-1.9.4-.4 1.2-.8 1.2-.8.4.4.8.8 1.5 1.9-.8.4-1.5.8-1.5.8m4.2-7.7c-1.2 0-2.7-.4-3.8-.8v-1.2c1.5.4 2.7.4 4.2.8 0 .5-.4.8-.4 1.2m-12.7-20v1.2c-2.3.8-5 1.2-7.3-1.2h7.3zm-8.8-5.7c3.1 1.9.4 3.5-.4 4.6-.8 1.5-1.9 1.2-3.1-.4 1.2-1.1 2.3-2.7 3.5-4.2m-1.6 8c2.3.8 5 2.3 3.8 5.8h6.5c0-.4 0-.8.4-1.2-1.5-.8-3.5-1.5-5-2.3 5-1.2 5-1.2 8.8 5.4-1.2.4-2.3 1.2-4.2 1.9 4.2 3.1 6.9 1.5 9.6.8.4.4.4.8.4 1.2-2.7 1.5-5.8 3.5-8.8 5-1.9-8.1-7.7-9.2-15.8-7.7 1.9-1.5 2.7-2.3 3.8-3.1.1-1.9-3.3-3.8.5-5.8m-5.4-15.7v5.8c-2.7.4-2.7-1.9-2.7-3.1.1-.4 1.2-1.2 2.7-2.7m-8.4 1.1c-3.5 4.2-5.8 0-8.5-1.9 2.7.8 5.8 1.6 8.5 1.9m1.9 8.1l-6.9 1.2c1.9-3.5 2.3-3.5 6.9-1.2m-12.3 3.9c2.7.8 5 1.5 7.3 2.3v.8h-8.1c-.4 0-1.2-1.2-1.5-1.9.8-.5 1.5-1.2 2.3-1.2m-1.9-3.9c-1.5 1.2-2.7 1.9-3.8-.4 1.5-1.5 2.6-1.1 3.8.4m-10.4 9.6c1.9.4 5.4-1.9 5.8 3.1-3.1.4-6.1.8-10 1.5 1.1-3 1.9-5.3 4.2-4.6m-6.9-8.4c1.2 1.9 3.8 3.5 1.9 7.3-1.9-2.3-2.7-4.6-1.9-7.3m0 21.1v1.2c-1.5.4-3.1 1.2-4.2 1.2-.8 0-1.2-1.2-1.9-1.9.8-.8 1.5-1.9 2.3-1.5 1.1-.2 2.3.6 3.8 1m-7.7-8.1c1.5 1.5 3.1 2.3 5 1.5.4 0 .8-.4 1.2-.4-.4.4-.8.4-1.2.4-4.2 1.9-4.6 1.9-9.2 0 1.1-1.9 2.3-3.4 4.2-1.5m-10.7 5c-2.3 0-3.5-.4-5-.4 1.5-2.6 2.7-2.3 5 .4m-7.7 20.8c-1.5 3.1-1.5 3.1-5.8 2.7 2.7-1.2 4.2-2 5.8-2.7m-77.3 79.1c-.4 1.5-.4 2.7-.8 4.2-1.9-.8-3.5-1.2-5.4-1.9-.4-1.9-.8-3.5-1.2-5.4 1.7 3.5 3.6 5.1 7.4 3.1m-9.6-13c1.2-2.7 3.5-1.5 5.8-1.2-1.2 1.5-2.3 3.1-3.8 5-.8-1.1-2.4-3.1-2-3.8m1.6 34.2v-3.1c2.3-1.2 5.4-1.5 4.6-5.4 0-.4 1.9-1.2 3.8-2.7-4.6-.4-6.9-5-11.5-2.3 3.5-1.9 3.5-1.9 12.7 0 25.4-35.4 54.6-66.9 90.7-93-1.5-.8-2.3-1.2-3.8-1.9 1.9-.8 3.1-1.5 3.8-1.2 2.7 1.2 4.6 0 6.9-1.5 2.3-1.9 5-3.5 7.3-5 1.2-.8 2.3-1.5 2.7-2.7.8-2.3 1.9-2.7 4.2-3.1 1.9-.4 3.5-1.2 5-1.9 4.2-2.3 4.2-2.7 3.5-7.3 3.1-.4 6.1-.8 9.2-.8 1.2 0 1.9 1.2 3.5 1.9-1.5.8-2.3 1.5-3.5 2.3 2.3 1.5 4.2 3.1 6.5 4.6 7.3 3.8 13.4 9.2 20.4 13.4 6.9 4.6 13.4 9.2 19.6 14.6 3.1 2.7 6.1 4.6 10.4 4.2h.4c.4 0 .4.4.8.8 3.1-.8 3.1-.8 6.5.8 1.2 4.2-5.4 1.2-4.2 5.8 1.5 0 3.5 0 5.4.4-.8 1.2-1.2 1.9-1.5 2.3 6.9 6.9 13.4 13.8 20.4 20.4.4-.8-1.2-3.1 1.5-2.7.8 0 1.5 1.9 1.5 2.7 0 1.2-.4 2.3-.4 3.8 4.6 5 8.8 10.4 13.4 15.4 1.2 1.2 2.7 1.9 3.8 2.7.4 0 .8.4.8.4-.8 5 3.1 3.5 5.8 3.8-1.2.8-1.9 1.2-3.1 1.9 2.7 3.5 5 6.9 7.7 10 4.2 6.1 8.8 12.3 13.1 18.4 3.8 5.8 5.8 12.7 4.6 19.6-.8 4.2-2.3 8.1-4.6 11.5-5.8 8.8-12.3 17.7-18.4 26.1-3.5 5-7.3 10-11.1 15.4-.8 1.2-1.2 2.7-1.9 4.2 0 .4 0 .8-.4 1.2-5.4 4.2-8.5 8.1-11.1 13.4-1.5 2.7-4.2 5-6.1 7.3-6.1 6.5-12.3 13.4-18.4 19.6-3.5 3.5-7.3 6.1-10.8 9.2-1.2 1.2-1.9 2.7-3.1 4.2-4.6.8-5.8 1.9-5.4 5.8-2.3.4-4.6.8-8.1 1.2 1.2 1.9 1.9 2.7 2.7 3.5-2.7 3.1-3.8-.8-5.4-.8-2.7 1.5-5.4 2.7-8.8 4.6.4 1.2 1.2 2.7 1.5 4.2-2.7.8-3.8 0-3.8-3.5-3.8.8-6.9 1.9-10.4 2.3-16.5 3.5-31.9.4-46.9-6.5-2.7-1.2-5.4-1.5-8.5-2.3 0-.4-.4-.8-.4-.8v-.4s-.4-.4-.4-.8c0 0 0-.4-.4-.4l-.4-.4s0-.4-.4-.4l-.4-.4s-.4 0-.4-.4l-.4-.4-.4-.4s-.4 0-.4-.4l-.4-.4-.4-.4-.4-.4s-.4 0-.4-.4l-.4-.4s-.4 0-.4-.4l-.4-.4h-.4c-.4 0-.4-.4-.8-.4-1.5-.8-3.1-1.5-5-2.3.8 2.3 1.5 4.2 2.3 6.5h4.2v1.2c-1.5-.4-2.7-.8-3.8-1.2-.8 0-1.9 0-2.7-.4h-2.7c-1.9-.8-3.8-1.5-6.1-2.3 1.5-1.9 3.5-3.5 6.5-2.3h.8c.4 0 .8 0 1.2-.4v-.4c.4-.4.4-.8.4-1.2-1.9-1.9-3.8-4.2-6.1-6.1-13.1-11.5-24.2-25.4-35-39.2-1.2-1.5-2.3-2.7-3.5-4.6-2.7-4.6-6.9-5.8-11.9-4.6-2.7.8-3.5-.4-4.6-1.9.4-1.2 1.5-2.3 1.5-3.5-.4-1.2-1.5-1.9-3.1-3.5 4.2 1.5 4.2 1.5 6.1 6.5h6.9c-4.2-6.1-8.1-11.5-12.3-17.3-3.5-.4-2.3-3.8-3.8-5.8-5-6.5-9.2-13.8-14.2-20.4-4.6-6.9-6.1-14.2-2.3-22.3-3.1.4-5.8.8-8.1 1.2 0-.4-.4-.8-.4-1.2 3.6 0 6.7-1.2 10.2-2.3m-11.2 16.9c1.2 0 1.9 0 3.1-.4v1.5c-1.2 0-1.9 0-3.1-.4v-.7zm-.4 5.4v1.5c-1.2 0-2.3 0-3.5.4 0-.4 0-.8-.4-.8 1.6-.4 2.8-.8 3.9-1.1m-37.2 74.9c1.2.8 1.5 1.5 2.7 2.3-2.3 0-2.3 0-2.7-2.3m56.5 98.4c1.5.8 2.7 1.5 4.2 2.3 0 .4-.4.8-.4.8-1.5-.8-2.7-1.2-4.2-1.9 0-.5.4-.9.4-1.2m-8.5-12.3l1.2 1.2c-.8.8-1.5 1.5-3.1 2.7-.4-2.8-.4-2.8 1.9-3.9m-13.4-1.6c-1.9-.4-3.8-.8-6.1-1.5 2.6-1.6 4.5-3.1 6.1 1.5m-1.6-13.4c-2.3.8-4.2 1.9-6.1 1.9-1.2 0-2.3-1.2-3.8-1.9 7.2-3.1 5.7-5 9.9 0m-16.1-14.2c.4-.4 1.2 0 2.3 0-.8.8-.8 1.5-1.5 1.9-.8.4-1.5 0-2.3 0 .3-.8.7-1.6 1.5-1.9m10-120.3c1.5-1.5 2.3-2.3 3.1-3.5.3 1.9.3 3.5-3.1 3.5m3-20.8c-2.3 2.3-2.3 2.3-5.8 1.9 2.4-.7 3.5-1.1 5.8-1.9M98 472.5c.4.8.8 1.2.8 1.2-.4 2.7-1.9 2.3-3.5 1.9 0-.4-.4-.8-.4-1.2.8-.3 1.9-1.1 3.1-1.9m-10-24.9c1.2 0 1.9-.4 2.3 0 1.2.8 1.2.8.4 3.5-.8-1.2-1.5-2-2.7-3.5m3.5 38.8c0-.4 0-.8.4-1.2h8.5c-.4 1.2-.4 1.9-.8 3.5-3.1-.8-5.4-1.6-8.1-2.3m10.7 43.4c.4-.4.8-.4 1.2-.8.8.8 1.2 1.9 1.9 2.7-.4.4-.8.4-1.2.8-.7-.8-1.1-1.6-1.9-2.7m2.3 29.2c1.9-1.2 3.1-1.9 3.8-2.7 1.5 1.5 3.1 2.7 4.6 4.2-2.6 1.6-4.9-.4-8.4-1.5m45.4 30.3c-3.8.8-7.7 1.5-11.9 1.9-.4 0-1.2-.8-1.5-1.5 2.3.8 4.2 0 6.1-1.5 2.3-1.5 5-1.9 8.1-.8-.1.8-.4 1.9-.8 1.9m2.7 3.5h-2.3v-1.2c.8 0 1.5.4 2.3.4v.8m9.6-6.9c-.4 2.7 0 5 2.7 6.1-5.4 0-7.3-3.5-8.5-8.1 1.9.8 3.8 1.6 5.8 2m-6.6 23c1.9-1.5 3.5-2.7 5-3.8 1.6 3.8 1.6 3.8-5 3.8m13.9-3.4l-.8.8c-2.7-2.3-5-4.2-7.3-6.5-.4-.4.4-2.3 1.2-4.2 3.1 1.9 5.4 2.3 7.3-1.5 0 .4.4 1.2.4 1.5-.8 1.2-1.5 1.9-2.7 3.5.7 1.8 1.1 4.1 1.9 6.4m3.8 12.3c-1.2-6.9-.8-7.3 3.5-6.1-1.2 2.2-2.3 4.2-3.5 6.1m24.6 24.2c-.8-.8-1.5-1.5-3.1-2.7 2.7-.8 3.5 0 3.1 2.7m3.1-17.3c1.9 1.2 3.8 1.9 6.5 3.5-4.6 1.1-6.1 0-6.5-3.5m18 30c-1.2-.4-2.3-.8-3.5-1.2.4-.4.4-.8.4-1.5 1.2.4 2.3.8 3.5 1.5 0 .4 0 .8-.4 1.2m2.3-11.6c-2.3 1.9-4.2 3.8-7.3 1.9 6.5-4.2 12.7-3.8 15.4 1.9-3.4-1.5-5.7-2.6-8.1-3.8m15.8 13.5c-1.9-2.7-3.5-5-5-6.9 0-.4.4-.4.4-.8 1.9.8 3.5 1.5 6.1 2.3-2.7 1.6 2.3 4.6-1.5 5.4m27.3 6.1h4.2v1.2c-1.5 0-2.7-.4-4.2-.4v-.8"/><path class="st0" d="M157.6 285.4c0 2.3 1.9 3.1 3.8 4.2-1.9-.7-3.8-1.9-3.8-4.2m198.6 289.3c2.7-2.3 5.4-4.6 8.5-7.3-3.1 2.7-5.8 5-8.5 7.3m24.2-21.5c-2.7 2.7-5 5-7.7 7.3 2.3-2.3 5-5 7.7-7.3M110.3 602c.4 0 .4.4.8.4-.4 0-.4-.4-.8-.4m-1.9-1.1c.4 0 0 0 0 0m49.2-315.5zM128 273.9c.4 0 .4 0 0 0 .4 0 .4 0 0 0m359.6 73c.4-.4.8-1.2 1.2-1.5 0 .3-.4.7-1.2 1.5m-358.5-73.4c.8 0 .4.8 0 1.5.8-.7.8-1.5 0-1.5m0 0l-.7.4-3.1 342c-.4-.8-.4-1.2-.8-1.9.4.3.4 1.1.8 1.9M419.2 413c-.4-.4-.8-.8-.8-1.2.1.4.5.8.8 1.2M108.8 600.9h2.7c-1.2.4-2.4 0-2.7 0-.4 0-.4 0 0 0m-.4 0l381.5-257.1s0 .4 0 0c0 .4 0 0 0 0M372.7 560.5l116.5-216.3c-.8.4-1.2.4-2.3.8 1.1 0 1.5-.4 2.3-.8m-2.3 99.9h.4zM192.1 287.7l-1.2-1.2c.5.4.9.8 1.2 1.2M127.2 617c-.8-.4-1.2-.8-1.9-1.2.8.4 1.1.8 1.9 1.2m293.6-205.2h1.2c3.1 1.5 5 .4 6.9-1.5.8-1.2.8-2.7 1.2-3.8.8 0 1.5 0 1.9.4 1.2.4 2.7 2.3 3.8.4 1.2-1.9-.8-2.3-1.9-3.1-.4 0-.8-.4-1.2-.8 1.2-.4 1.5-.4 1.5-.4 1.5.8 2.7 1.5 4.6 2.3 1.5-.8 3.8-1.5 4.6-3.1.8-1.2-.8-3.5-1.2-5.4.8-.4 1.2-.4 1.5-.8.4 0 .4-.4.8-.4 1.5-1.2 1.5-3.1 1.5-5.4-1.2-1.9-3.8-3.1-5-5 0-.4-.4-.4-.4-.8V381.7c1.5.4 2.7.4 3.8.4 0 1.9-2.3 5 2.3 4.2.8-8.8 1.5-17.3 2.3-26.1.8-14.2 0-28.1-3.5-41.9-4.2-17.3-12.7-31.9-27.3-42.3-10.8-7.7-22.7-11.9-35.7-14.2-1.9-.4-3.8.8-6.1 1.2-.8-3.1-3.8-2.7-6.5-2.7s-5.4-.4-8.8-.8c1.9 2.3 3.5 3.8 5 5.4 2.3-.4 4.6-.8 7.3-1.2.8 1.5 1.9 3.5 2.7 5.4-1.5.4-2.7.4-3.5.4 0-1.2-.4-2.3-.4-3.1-.8.8-1.9 1.5-3.5 3.1 1.9 1.2 3.5 2.3 5 3.8 8.8 8.8 17.7 17.3 26.1 26.1 8.5 8.8 15.4 18.8 18.8 31.1 1.5 5.4 2.7 10.4 2.3 16.9l-12.3-12.3c-2.7 1.5-4.6 2.3-6.9 3.5 0-.4-.4-.4-.4-.8 1.5-1.9 3.1-3.8 3.8-5-1.5-1.9-2.7-3.8-4.2-5.8-1.2 2.7-2.7 3.8-5 3.1 1.2-1.5 2.3-3.1 3.5-4.2-3.5-1.5-4.2-5-6.5-7.3-2.7-2.3-5.4-5-8.1-7.7l-7.3-7.3c-3.5 5-8.1 5.8-13.1 2.3 4.2-.4 8.1-.8 11.5-5-1.5-1.5-3.5-2.7-5-3.8-1.9-1.9-3.5-3.8-5.8-5.4-1.5-1.2-3.5-1.2-5-1.9-.4-4.6-4.6-9.2-10.4-11.9-6.1 3.1-6.1 3.1-7.7-1.5 1.9.4 3.5.4 5.4.4 0-3.8-3.1-3.5-5.4-4.2 1.2-2.7-.8-4.2-2.3-5.4-4.2-3.5-8.8-6.5-13.1-10-3.5-2.7-6.5-5.8-9.6-8.8-3.5-3.5-6.9-3.5-10.4-.8-4.6-3.5-4.6-3.5-6.5.8 1.5 1.2 3.5 1.9 5.8 3.5-2.7 1.5-4.6 2.3-6.9 3.8V250c-1.5.8-3.1 1.2-4.2 1.9 0-.4-.4-.4-.4-.8 1.2-1.2 2.7-2.3 3.8-3.5-3.5-2.7-5 .8-7.7.8 0 1.5.4 2.7.4 4.2-1.2 0-1.5 0-2.3-.4 0-1.9 0-3.5.4-5-3.5.8-6.1 1.2-9.6 1.2.4-1.5.8-2.3 1.2-3.1 2.7.4 5 .8 7.3.8.4-1.5.4-2.7.4-3.8 1.9 1.2 3.8 2.3 5.8 0 1.5-1.9 3.1-2.7 5.8-3.1.8 0 1.2-1.5 2.3-3.1-3.1-.4-5-.4-6.5-.8-5-8.1-13.1-11.1-20.4-15.4h-11.6c-.4 5.4-5 8.1-10.4 7.3 0 .4.4 1.2.4 1.5v2h-1.6c.8-1.9 1.2-3.1 1.9-4.6h.8c1.2-.8.8-1.9.4-3.1 0-.4-.4-1.2-.4-1.5v-.4c-.4-1.2-.8-2.3-.8-3.5 0-.4 0-.8-.4-.8h-.4c-.8.4-1.9.4-3.1.8-.4-1.2-1.2-2.3-1.9-3.8 1.5-.8 2.7-1.2 4.6-1.9v5.8h.4c1.2-.8 1.9-1.9 3.1-2.7.4-.4 1.2-.8 1.5-1.5-3.5-3.1-6.5-4.2-10.4-4.6-1.5 0-4.2 0-4.2-1.2-1.2-2.7-3.5-2.3-5.4-3.1-5.8-2.3-11.5-2.3-16.9-4.2-7.7-2.7-15.8-3.8-23.4-5.8-1.9-.4-4.2.4-6.5.8-5-1.5-10.4-3.8-16.9-3.5.8 3.1 1.2 5.8 1.9 8.8-2.7-.8-5-1.2-6.9-1.5.8-2.7 1.2-5.4 1.5-8.5-1.5.4-3.1 0-4.6 0-10.4-.4-21.1.8-31.5 2.3-6.1 1.2-10.8 4.2-15.4 8.5 1.9 1.5 3.5 3.1 5 4.6-1.9 1.5-3.8 1.9-5.8-.8-1.5-2.3-3.5-2.3-5.4-1.9-1.5 1.9-2.7 3.5-3.8 5-2.3-.8-4.6-1.2-7.7-1.9 2.3-.8 3.1-1.2 4.2-1.2s2.3.4 3.8.4c.4-1.5 1.2-3.1 1.5-5-2.3-.4-4.2.4-6.1 1.5-1.5 1.2-3.5 1.9-5.4 2.7-2.3.8-4.6 1.2-6.9 2.3-4.6 2.7-9.6 5.8-14.6 8.5-3.1 1.9-5.8 4.2-5.4 8.1 0 .4-.8 1.2-1.5 1.5-1.5-.8-3.1-1.5-5-2.7-6.9 6.1-13.4 11.9-21.1 18.8 2.3.4 3.5.4 4.6.4v.8c-1.9.4-3.8.8-5.4 1.2.4 1.2 1.5 2.7 1.2 3.5-1.2 3.1-3.5-.4-6.1.8-2.7 3.5-5.4 7.7-8.8 12.7 2.7-.4 3.8-.4 5.4-.8-.8 2.3-1.2 4.6-1.9 6.5-1.2-.8-2.7-1.9-5-3.1-.4 2.3-.4 4.2-.8 5.4-.8 1.5-2.3 3.1-4.2 5H30c0 1.2 0 2.7-.4 3.8-5.4-.4-6.9 0-8.1 3.1-3.1 8.1-5.4 16.1-6.5 25 5 .4 9.6.8 15.4 1.2-3.1 1.9-5.4 1.5-7.7.8-3.1-1.2-5.8-.8-8.5 1.5-.4 5.4-1.2 10.8-1.5 16.1-.4 3.5-.4 6.9-.4 10.4v11.1c0 3.1.8 6.1.8 9.2 0 6.9 1.5 13.8 6.1 19.6.8.8 1.2 1.9 1.5 2.7-1.5.4-2.3 1.2-3.8 1.5 0-1.2 0-1.9-.4-3.1 0-.8-.4-1.5-.4-2.3 1.2 20.4 7.7 39.2 14.2 57.6 1.2.8 2.3.8 3.5.8-2.3 1.9-3.1 3.8-1.5 6.5 2.3 4.2 1.2 8.5-.8 12.7-6.5 15-13.1 30-18.8 45.3C5 517.3-.4 538 2.3 559.9c1.2 9.2 1.9 18.4 3.8 27.3 2.3 9.6 5.4 19.2 9.6 28.4 10 23.1 25 42.3 45.3 57.6 10 7.3 21.1 13.4 32.7 17.7l3.5-3.5c-.4 2.3-.8 3.5-.8 4.6 1.2.4 1.9.8 2.7 1.2 1.9-1.5 2.7-5 7.3-4.2-1.9 1.9-3.5 3.1-5 4.2 0 .4.4.8.4 1.2 2.3 0 5-.4 7.3.4s4.6 2.7 6.9 3.1c3.8 0 7.3 1.5 10.8 1.9 3.1.8 6.5.8 9.6 1.2 9.2.4 18.4 1.5 27.3-1.2-.4-.8-.8-1.9-.8-2.7 2.7-.8 5.4-1.2 6.9-1.5 1.2.8 1.9 1.9 2.3 1.9 6.1-1.9 11.9-3.8 18.1-5.8.8-.4 1.5-1.2 1.5-1.9.4-2.7 2.3-3.5 5-3.1 2.7.4 5 .8 7.7.4 3.8-.8 7.3-1.9 11.1-3.1.4 0 .4-.4.8-1.2-.8-1.2-1.5-1.9-2.7-3.1-2.3 1.2-3.8 2.3-5.8 3.1 0-.4-.4-.4-.4-.8 1.5-1.5 3.5-3.1 5-4.6-4.6-8.1-16.1-13.1-26.1-13.4-6.5-.4-13.4 0-20 0-1.9 0-2.7.8-3.1 2.3 0 .4-.8.4-1.5.8 0-1.2-.4-2.3-.4-3.1h-14.6c-1.5 1.5.4 3.8-2.7 4.2 0-1.5-.4-3.1-.4-5-1.9.4-4.2 1.5-5 .8-3.5-2.7-7.3-1.9-11.1-1.9-5.4-.4-11.1-3.8-16.1 1.5-1.2-1.2-2.3-1.9-3.5-2.7-1.9.8-3.5 2.7-5 .4.4-.8.8-1.9 1.5-3.5-6.5-1.5-12.7-2.7-18.4-3.8-.8 0-1.9 0-2.7-.8-3.1-4.2-8.1-4.6-12.3-6.9-2.3-1.5-5.4-2.3-8.1-3.5-.8-3.8-3.5-5.4-7.3-6.5-2.3-.4-3.8-2.3-5.8-3.5.8-1.5 1.2-2.3 1.5-3.5-.8-.8-1.5-1.2-1.9-1.9-7.7-12.7-11.5-26.1-12.7-40.7-.8-14.6 0-28.8 2.3-43 2.7-15.4 6.1-30.7 9.2-46.1.4-2.3 0-4.6 1.2-6.1 2.3-3.8 2.7-6.9.4-10.8-.4-.4-.4-1.2-.4-2.3h3.8c5.8-13.8 11.1-27.3 16.5-40.3-1.5 0-2.7-.4-4.6-.4 1.2-2.3 1.9-3.8 2.7-5.4 1.2.8 2.7 1.2 3.8 1.9 2.3-3.1 5-5.8 3.8-9.6 1.2-1.2 3.1-1.9 3.1-2.7 0-3.1 2.3-4.2 3.5-6.1 5.4-8.8 10.8-17.7 17.3-26.1 7.7-10.4 15.4-20.7 23.8-30.4 1.2-1.2 1.9-2.7 2.7-3.8-4.6-1.9-5.8 3.1-10 3.8 1.5-2.3 2.3-3.8 3.5-5.8-.8-1.2-1.9-2.3-2.7-3.5 2.3-3.8 2.3-3.8-1.9-7.3 2.3-.8 4.6 0 5 1.9 1.2 4.6 4.6 6.5 8.8 8.1 5.4-7.3 13.4-11.9 17.3-20.4l.4-.4c8.1-3.8 13.8-11.1 20.7-16.9.8-.8.8-2.3.8-3.1 4.2-.8 6.1-1.9 11.9-8.5-1.9-3.5-4.6-5.4-8.8-5.8.8 1.9 1.5 3.1 2.3 4.6-.4.4-.8.4-1.2.8-1.2-1.2-2.3-2.3-3.5-3.1-.8-.8-1.5-1.5-2.3-1.5-1.2.4-2.3 1.2-2.7 1.9-.8 1.9-.8 3.8-1.2 5.8-3.8-1.5-7.7-3.5-10.4 1.5-.4.4-1.9 0-4.2.4 5-3.8 1.5-6.5-1.2-10 1.9.4 3.5.4 3.8.8 1.9 4.2 5.4 2.7 7.3 2.7 2.7-3.5 4.6-5.8 7.3-9.6-5.4 2.3-6.1-4.6-11.5-3.1 2.3 1.9 3.8 3.5 5.8 5.4-2.7 1.2-4.2 1.9-6.5 2.7v-3.1c-4.2.8-8.5 1.5-13.1 2.7-.4.4-.8 1.2-1.2 1.5 1.2.8 2.7 1.5 3.8 1.9-2.7 3.5-3.1-1.9-5.4-.4-1.2.8-2.3 1.9-3.8 3.5 2.3 1.5 3.8 3.1 5.8 4.2 1.2-1.2 1.9-1.5 3.1-2.7 0 1.9.4 3.1.4 5-4.2-.4-8.1-.8-11.9-1.2-.4 0-.4.4-.8.8 1.2.8 2.3 1.5 3.8 2.7-1.9.4-3.1 1.2-4.2 1.2-1.2-.4-2.3-1.5-3.8-2.7-.8.8-1.5 1.5-1.9 2.3 1.9 2.7 6.1 2.7 6.9 7.3-2.3-.8-4.6-.8-5.8-1.9-3.1-2.7-3.5-2.7-6.1-.4-1.5 1.2-2.7 2.3-3.8 3.1.4 3.1.4 5.4.8 8.1 1.2-.8 2.3-1.5 2.7-1.9 1.9 1.5 3.5 2.7 5 4.2-.4 1.2-.8 2.7-1.2 3.8 1.9 1.2 3.8 2.7 5.8 3.8 0 .4-.4.8-.4 1.2-3.8-1.2-8.1-1.9-11.9-3.1-.4 2.3-2.3 2.3-3.8 1.2-2.3-1.5-4.6-3.1-7.3-5-6.9 8.1-15 16.9-21.9 26.9 1.2.8 1.5 1.2 2.7 1.9-4.6.4-5 0-6.9 3.5-7.7 11.1-15 22.7-22.7 33.8-1.2 1.9-2.3 3.8-3.1 5.8-.4 1.2.4 2.7.4 4.2-7.7 3.1-8.1 11.9-13.1 18.8.4-5.8.8-10.8.8-15.8 0-6.9-.8-13.4-1.2-20.4 0-1.2-1.2-2.3-1.5-3.5.8-3.5 1.9-6.9 2.3-10.8.4-5.4.4-10.8 0-16.1-.4-7.3 1.2-14.6 1.5-21.9.8-15 3.5-29.6 7.7-44.2.8-2.7 1.5-5.4 2.7-9.2-1.9.8-3.5 1.2-4.6 1.5-.4-.8-1.2-1.2-1.5-1.9 0-.4.4-.8.4-1.2-1.5 1.5-3.1 1.2-5-1.5 2.3.8 3.8 1.2 5 1.5h7.3c1.2-6.1 5.8-10.4 5-16.5 1.2-1.2 2.3-1.9 3.8-3.1-1.9-1.2-3.5-1.9-4.6-2.7 0-.4.4-.8.4-1.2 1.5.8 3.1 1.2 5 1.9 1.5-2.7 3.5-5 5-7.7-1.5-.8-2.3-1.2-4.2-1.9 3.5-1.5 5.8-2.7 9.2-4.2-2.7-1.2-3.8-2.3-3.5-5.4.4-1.5-1.2-3.1-1.9-5.4-1.5 1.9-3.1 3.5-3.5 4.2-3.1-1.2-5.4-1.9-7.7-2.7-1.5-.8-1.5-1.9-.4-2.7 1.9.4 4.2.8 6.1 1.2 5.4.4 7.3-1.5 7.7-7.3 0-1.5.4-3.1.8-4.2.8-1.9 2.3-2.3 4.2-.8-.8 1.2-1.5 2.3-2.3 3.5 3.1 3.8 3.1 4.6 1.2 8.1 1.2 1.9 2.3 4.2 3.5 6.5 3.5-3.1 6.5-5.8 9.6-8.8.8-.8.4-2.3.8-3.5.8-4.2 3.1-6.1 7.7-5.4.8 0 1.5-.4 2.3-.8v-.8c-1.5-.4-3.1-.8-4.6-1.2 2.7-1.9 2.7-1.5 5.8-1.2 5.8.8 8.8 1.9 12.7-5.8-1.9-.4-4.2-.8-6.5-1.5 10-5.4 10-5.4 13.8-3.5-1.5 1.5-2.7 3.1-4.2 4.2 5.4 2.7 10 2.3 15 1.2 1.9-.4 3.8-.8 6.1-.8 19.2-.8 38.4-.8 57.6.8 3.1.4 6.1.8 9.2 1.5v-3.8h.8c.8 1.9 1.9 3.8 3.1 6.1h5.4c1.5 0 3.5.8 4.6 1.5 3.8 2.7 8.1 4.6 13.1 3.8 2.3-.4 4.6.4 6.5.4-.8.8-1.5 1.9-2.3 2.7 4.6 1.9 8.8 3.8 12.7 6.1 2.7 1.5 5 2.3 7.3-.4.8-.8 2.7-1.5 4.2-1.2 2.7.4 3.5-1.2 3.8-3.1.8-5 1.9-5.8 6.9-5.8h2.3c1.5-.8 2.7-.4 2.7 1.2 0 1.5-1.2 2.3-3.1 2.3s-3.8 0-5.4.4c.4 2.7.4 4.6.8 7.3 2.3-1.2 3.8-1.9 5.4-2.7 1.9 1.9 1.9 1.9 1.9 3.5-2.7 0-5 0-7.3.8-1.5.4-2.3 2.7-3.1 4.2-.8 1.5 0 3.8 1.9 3.8 3.1 0 4.6 3.1 7.3 4.2 3.1-5.4 1.9-7.7-3.8-7.7-.8 0-1.5-.4-2.7-.4.8-.8.8-1.2 1.2-1.2 2.7.4 5.4 1.5 7.7-1.2 0-.4.8-.4 1.2 0 2.3 1.2 4.2.4 6.1-.8 1.9-1.2 3.5 0 4.6 2.7h-5c-5 .4-5.8 1.5-4.6 6.1.4 1.9.4 3.8.4 5 1.9 5 6.1 1.9 9.6 2.7-.8 1.5-1.2 2.3-1.5 3.5 3.5 2.3 6.5 5 9.6 6.9 3.1 2.3 6.1 4.6 9.6 6.9.4-.8.4-1.2.8-1.5l1.5-1.5c0 5.8 3.5 10.8 8.1 10.8 4.2 0 6.5 2.3 9.2 4.6v1.2h-3.5c1.9 1.5 2.3 5.4 6.1 3.8.4-.4 2.7 1.5 2.7 2.3 0 3.8 2.7 5.4 5 7.7 2.7 2.7 5.8 5 8.5 8.1 13.1 14.2 26.1 28.8 39.2 43 3.8 4.6 8.5 8.8 11.9 13.4 5.8 7.3 10.8 14.6 16.1 21.9 3.5-1.9 5.8.8 8.1 1.5-3.1 5-4.2-2.3-6.9 0 .4.8 1.2 1.9 1.5 2.7.8 1.5 1.5 3.1 2.7 4.2v-1.5c1.5-.8 3.1-.8 5.8.8-2.7.4-4.2.4-6.1.8v-1.6 10.4c1.9.8 3.8 1.2 5.8 1.5-.8 2.3-1.2 3.5-1.5 5-.4 2 .4 2 1.2 2zm20.3-61.8c-.4-2.3-.8-4.2-1.2-6.5 4.3 3.8 4.3 3.8 1.2 6.5m-48.8-75.4c1.2-2.3 2.3-4.6 6.5-3.5-2.6 1.6-4.5 2.4-6.5 3.5M9.6 529.4c1.9-1.9 3.1-4.2 6.5-2.3-1.9 1.2-3 3.1-6.5 2.3M172.9 675c2.7-.8 5-1.2 7.3-1.5-1.5 2.7-2.3 3.5-5.8 3.1h-.4s-1.2 0-1.9-.4c-.8 0-1.5-.4-2.3-.4 1.2-.4 2.4-.4 3.1-.8m-4.6 5.4c1.5 1.9 4.2 2.3 3.8 5.8-2.7-1.2-5-2.3-8.1-3.5 1.6-.7 2.8-1.5 4.3-2.3m-15.7 17.3c-2.7-1.2-5.4-2.3-8.5-3.8 4.6-1.2 5-1.2 8.8 2.7 0 .3-.3.7-.3 1.1m4.2-20.7c.4-.4 1.9.4 3.5.8-2.7 3.1-4.2 6.5-9.2 5 .7-2.8 3.4-4.3 5.7-5.8m-8.8-5.8c.4.4.8.4.8.8-1.2 1.2-2.3 2.3-3.5 3.8l-.8-.8c1.1-1.1 2.3-2.3 3.5-3.8m-.8 15.7c-1.5 1.5-3.1 1.5-4.2-.4 1.5.1 3 .1 4.2.4m-36.5 5c1.5-.8 2.7-1.5 3.8-2.3-.4-.4-.4-.8-.4-1.2-1.2-.4-2.3-.8-3.8-1.2.4-.8.8-1.2 1.5-1.2 2.7-.4 4.6 1.2 7.7 3.8-3.8.6-4.6 4.8-8.8 2.1m10.4 3.9c.8-2.7 2.3-1.5 3.5-1.5v1.2c-.9-.1-2 .3-3.5.3m11.5-13.8c2.3 1.2 3.8 1.9 1.9 4.6-2.7-.8-2.7-2.3-1.9-4.6m3.4 13.8c-6.5-.8-9.2-2.3-10.8-6.1 2.3-1.9 2.3-1.9 5.8-1.2-1.2.4-2.3.8-3.8 1.2 1.9 3.8 6.2 3.4 8.8 6.1m-5.3-31.1c0 3.8 0 3.8-3.5 4.2 1.2-1.2 2.3-2.7 3.5-4.2m-2 15.7c-1.9 1.2-3.8 2.3-6.5 3.8.8-2.7 1.2-5 1.9-8.1 2 2 3.5 3.2 4.6 4.3m-19.2-7.7c2.3.4 3.8 3.5 6.5 1.5 1.9-1.2 4.2-1.5 6.9-1.5-1.5 1.5-3.1 3.1-3.8 4.2-2.7 0-4.2.4-6.1 0-1.9.1-4.2-.3-3.5-4.2m3.1 8.5c-3.1 2.3-3.1 2.3-6.1 0h6.1zm-7.7-5.8c-.4.4-.8 1.2-1.2 1.5-.4-.4-.8-.8-.8-1.2 0-.8.8-1.2 1.2-1.9 0 .9.8 1.2.8 1.6m.8-6.5c-3.5-1.2-3.5-1.2-3.5-5 1.6 2.3 2.3 3.8 3.5 5m-6.2 11.5c.8.4 1.9.8 2.7.8v.8c-.8.4-1.5.8-1.9.8-.8 0-1.5-.4-2.3-.8.4-.4.8-1.2 1.5-1.6m-27.6-17.7c-3.1-.8-4.6-.4-4.6-3.5 2.3-.7 3 .9 4.6 3.5m3.4 6.6v1.5c-3.1 0-6.1.4-8.8.8v-1.2c3.1-.7 6.1-.7 8.8-1.1m-15.7-24.2c-1.2 2.7-2.3 2.3-3.5-.4.8 0 1.9.4 3.5.4m-4.6 5.7c-1.2-.4-2.3-.8-3.5-1.2 2.3-1.8 2.3-1.8 3.5 1.2m87.2-336.6c-.4 2.7-1.5 3.8-4.6 2.7 1.5-1.1 2.7-1.5 4.6-2.7m-7.3 4.6c.4 0 1.2.8 1.9 1.2-.8.8-1.5 1.5-1.9 1.5s-1.2-.8-1.5-1.2c.7-.7 1.1-1.5 1.5-1.5m1.5 5v1.2c-.8 0-1.9.4-3.1.4v-1.5c.1-.1 3.1-.1 3.1-.1zm-8.4 14.6v-3.5c1.9.4 3.8.8 5.8 1.2v1.2c-1.6 0-3.5.4-5.8 1.1m1.5 8.1c-4.2 2.3-4.2 2.3-8.5-1.2 2.7-1.1 5.4-1.1 8.5 1.2m-25 20.4c1.5 2.7.8 3.8-.8 5-.4 0-.8-.4-1.2-.4.9-1.6 1.3-2.7 2-4.6m-35.3 48.4c-.4-.4-.4-.8-.8-1.2 1.2-.8 1.9-1.5 3.1-1.9.4.4.4.8.8 1.2-.8.7-2 1.5-3.1 1.9m27.3-30.4c-.8.4-1.5.8-2.3 1.2 0-.4-.4-.8-.4-1.5.8-.4 1.9-.4 2.7-.8-.4.7 0 1.1 0 1.1m-2.7-17.3c1.9 1.5 2.3 2.3 3.8 3.5-1.5.8-2.7 1.2-3.8 1.5-.4-1.5-.4-2.7 0-5m-1.2 10c.8-.4 2.7.8 4.2 1.2-3.5 1.9-6.5 3.5-9.6 5-.4-.4-.4-.8-.8-1.2 2.4-1.5 3.9-3.8 6.2-5m-5.7 26.5c-4.6.4-4.6.4-6.5-4.2 2.6 1.5 4.2 2.7 6.5 4.2m-15.4-8.8c-.8 1.5-1.2 2.7-1.9 4.2-2-3-.8-3.4 1.9-4.2m-2.7 9.2c.8-2.7.8-5.4 4.6-5.8h.4c1.2-1.9 1.9-3.8 2.7-5.4.8-1.2 1.2-1.9 1.9-3.1 1.2-1.2 3.5-1.2 5.8-1.2-1.9 1.5-3.5 2.7-5 3.8.4 1.5.4 2.3.8 3.5 1.2-.4 2.3-1.2 4.2-1.9l-.4.4c0 .4-.4.4-.4.8v.4H83c-.8.8-1.2.8-2.7.4h-.4c-1.9.8-4.2 1.2-6.1 1.5.4 1.2.8 2.3 1.2 3.5-.8.4-1.9 1.2-2.3 1.9s.4 1.9.4 3.5h-5.4c.7-.4.7-1.5 1.1-2.3m.4 16.5c0 .4.4.4.4.8-1.2 1.2-2.3 1.9-4.2 3.5 1.9.8 3.5 1.2 5 1.9-1.9.4-3.8.4-5.8.8v4.6c-3.8-3.8 1.9-6.9-1.9-10.4 3-.8 4.9-1.2 6.5-1.2m-8.5-.3l1.2 1.2c-.8.8-1.2 1.5-1.9 1.9l-1.2-1.2c.8-.8 1.5-1.2 1.9-1.9m-1.9 5.7c-.4 1.9-.8 3.5-1.2 5.8-1.9-2.7-.7-3.9 1.2-5.8M44.6 251.2c1.5.8 3.1 1.2 5 2.3-1.9 1.2-3.5 1.9-5 2.7v-5zm-10.4 90.7c.8.8 1.2 1.5 1.9 3.5-1.9-.4-3.1-.4-5.4-.8 2-1.2 2.7-1.9 3.5-2.7m-10.7-29.6c1.5.4 3.1.8 4.6 1.5v.4c-1.5-.4-3.1-.4-4.6-.8v-1.1m-3.9 59.2c.4 0 .8-.4 1.2-.4s.8.4 1.2.8l-1.2 1.2c-.4-.5-.8-1.2-1.2-1.6m5.4 12.3c-.4 3.1-.4 3.1-5.8 1.2 1.9-.5 3.9-.8 5.8-1.2m1.5 11.1c-1.2-1.9-1.9-3.8-3.1-5.8.8-.8 1.9-1.2 4.2-2.7 0 1.2-.4 1.9-.4 2.7-.3 2.4-.7 3.9-.7 5.8 1.5 0 2.3 1.2 3.1 1.9v2c0 .4 0 .8-.4 1.2-2.7-.8-1.9-2.7-2.3-4.6 0 .3 0-.1-.4-.5m3.1 29.2c-.8-2.7-1.5-5-2.3-7.7 3.1 1.6 3.8 4.3 2.3 7.7m12.7 48.4c0 .4 0 .8.4 1.5-3.5.4-6.9.8-10.4 1.2v-.8c3.1-.7 6.5-1.5 10-1.9M40 415.7h-4.6c1.5-1.6 3-3.5 4.6 0m-4.2-38.1c1.2.8 2.3 1.2 3.8 1.9-2.3 1.2-4.2 1.9-6.1 2.7.8 1.5 1.5 3.1 2.7 4.6-4.6-1.9-7.7-5.8-6.1-9.6 1.5-3.8.4-5.4-3.8-6.5 5-1.5 7.7 1.2 10.8 1.5 1.9.4 3.1 1.2 3.1 3.8-2.3-1.2-4.6-1.9-7.3-3.5v7.3c.9-.6 2.1-1.4 2.9-2.2m-.8-99.1c0-.4 0-.8-.4-.8 1.5-.8 3.1-1.5 4.6-2.3 1.5 1.5 2.7 3.1 4.6 5-3.8-1.1-6.1-1.5-8.8-1.9m12.3-1.6c-1.9-3.1-1.9-3.1-1.2-7.3-1.2-1.9-6.1-1.2-3.8-6.1l2.7 2.7c.4-.4 1.2-.8 1.2-1.2.4-1.2.4-2.7.8-3.8.4-.8 1.5-1.2 3.1-1.5-3.5 2.3-.8 5.8-1.9 9.2 2.3-.8 4.2-1.5 6.1-2.3 0 .4 0 .8.4 1.2-4.3 2.2-4.7 2.6-7.4 9.1m6.9-23c-2.3.8-3.5-.4-4.2-2.3 1.9-.8 3.5-.8 4.6 1.2.4-.1 0 1.1-.4 1.1m41.5-40l-1.2-1.2c.8-1.2 1.2-2.3 1.9-3.8.8.4 1.5.8 1.5.8.1 2.3-.3 3.8-2.2 4.2m35.7-9.2c-2.3-.4-4.6-1.2-6.9-1.5 3.1-2.7 5.4-1.2 7.3.4-.4.3-.4.7-.4 1.1m10.4 4.2c-.8 0-1.9-.4-2.7-.4.4-.4.4-1.2.8-1.5.8.4 1.5.8 2.3 1.5-.4-.3-.4.1-.4.4m16.5 0c-.4 0-.4-.4-.8-.4.4-.8.4-1.5.8-1.9.4-.4 1.2 0 3.1-.4-1.5 1.6-2.3 2.4-3.1 2.7m19.2 2.3h3.8c-1.1 3.1-2.2 2-3.8 0m11.6-3.4c.8-2.3.8-2.3 3.1-2.7-.1 1.9-1.2 2.3-3.1 2.7m5.7 7.7c-2.3 0-2.3-1.9-2.3-3.8 1.9.4 3.8 0 3.8 2.3.1.3-1.1 1.5-1.5 1.5m6.9-2c-1.2-.4-2.3-.8-3.5-1.2 0-.4 0-.8.4-1.2 1.2.4 2.3.4 3.5.4 0 .9-.4 1.3-.4 2m0-11.5c.4-3.1 2.7-1.2 3.8-1.5-1.1.7-2.2 1.1-3.8 1.5m3.9 3.1c1.2-2.3 2.3-1.9 3.5 0h-3.5zm12.3-1.5c1.5 1.9 1.5 1.9-2.3 3.5.8-1.2 1.5-2.4 2.3-3.5m-1.2 14.9c0-2.3 0-3.8-.4-5.8 1.5.8 2.3 1.2 4.2 1.9-1.5 1.6-2.2 2.8-3.8 3.9m17.3-11.1c3.1 2.3 3.5 3.8-.8 5.4.1-2.3.4-3.9.8-5.4m-11.1 9.6c1.2-1.5 2.3-2.7 3.8-3.8 2.7 3.5 2.3 8.8 7.7 10-5.4.3-7.7-3.9-11.5-6.2m12.7 4.6c-1.2-1.2-2.3-2.3-4.2-3.8 1.9-.4 3.1-1.2 3.8-.8 1.5.4 2.7 1.9 3.5-.4.4-.8-.8-2.3-1.5-3.5 1.2-.4 2.7-.8 3.8-1.2 1.5 1.6-1.2 6.6-5.4 9.7m41.5 15c-.8-1.2-1.5-1.9-2.7-3.8 5 .4 4.6-4.2 8.1-6.9-1.5 5 .8 7.3 5 9.6-4.3-.1-7 .3-10.4 1.1m3.4 16.1c1.2-2.3 2.3-1.9 3.8.4-1.5 0-2.2-.4-3.8-.4m20.8 12c2.7-1.5 3.8-4.2 8.1-2.7-2.7 1.9-4.3 4.2-8.1 2.7m10.7 13.4c-.4-3.8-1.2-7.3 2.3-10.4 1.5 2.7-3.1 6.5 3.5 7.7-2.7 1.5-4.2 1.9-5.8 2.7m0-15.4c.4-1.2.8-2.3 1.2-3.5-1.2-.4-1.9-.4-2.3-.8 1.2-2.7 1.9-5.4 3.1-8.5.8 0 1.5.4 2.7.4-1.2 3.8-1.9 7.3-3.1 10.8 3.1 1.5 5.8 2.7 8.5 4.2-5.8 1.3-5.8 1.3-10.1-2.6m18.5 5.4c1.9-1.2 3.1-1.9 4.6-3.1v4.2c-1.6.1-2.7-.3-4.6-1.1m.7 18.5c.4-2.7.8-4.6 1.2-7.3.8 3.4.8 4.2-1.2 7.3m.4-13.1c1.9 1.2 3.8 1.9 6.1 3.1-4.2 2.7-5.3.3-6.1-3.1m8.9 8.4c-1.5.4-3.1.8-5 1.5 2.3-3.4 2.3-3.4 5-1.5m-1.6 9.6c1.5-2.3 3.1-4.2 5-6.5 1.2.8 1.9 1.5 2.7 1.9-.4.4-.4 1.2-.4 1.2-3-.4-3 5.8-7.3 3.4m15.8 11.6c-3.8-.8-7.7-1.2-11.1-1.9V300c3.8-1.2 7.3 1.2 11.1 1.2v1.9m35.7 26.1c-1.5 0-3.5.8-3.5-2.7 1.5.4 2.7.8 3.8 1.2-.3.7-.3 1.5-.3 1.5m9.6 30c-.8 0-1.2.4-1.9 0-.4 0-.4-.8-.4-1.2.4 0 .8-.4 1.5-.4.4 0 1.2.4 1.5.4-.3.8-.3 1.2-.7 1.2m25.8 33.8c2.7-1.2 5.8-1.9 8.5-3.1 1.2 1.5 2.3 3.5 3.8 5.8-1.9.8-3.5 1.5-5.4 2.3v.4h-.4l-.4.4s-.4 0-.4.4h-3.9s-.4 0-.4-.4c-.8-.8-1.9-1.5-3.1-2.7.4 0 1.2.4 1.5.4 2.7.8 5 1.2 7.3 1.9 0-1.2 0-2.3.4-3.5-2.5-1.9-6 1.2-7.5-1.9m-22.7-109.9c2.3-3.5 2.3-3.5 6.1-.4-3 .4-4.6.4-6.1.4m15.4 33.8c-1.5-.4-3.1-.8-4.2-1.2 0-.4 0-.8.4-1.2 1.5.4 3.1.8 4.6 1.2-.8.4-.8.8-.8 1.2m1.9 3.5c1.2-1.2 1.9-1.9 2.7-1.9.4 0 1.2.8 1.5.8 0 .4 0 .8-.4 1.2h-3.8zm-1.9 63.8c4.2-2.3 5 0 5.8 2.3-1.6-.8-3.1-1.2-5.8-2.3M46.1 286.9h7.3-6.9zm372.4 124.9c-.4 0-.4 0 0 0-.4 0-.4 0 0 0m-.4 0zM264 221.2c-.4 4.2-5 6.9-10.4 6.1 5.4.8 10-1.8 10.4-6.1m-11.1-3.4s.3 0 0 0c.3 0 0 0 0 0m.7 9.6c0-.4 0-.4 0 0 0-.4 0-.4 0 0m164.5 184.4l28-21.5c.4 2.3 0 4.2-1.5 5.4 1.2-1.2 1.5-3.1 1.5-5.4-1.2-1.9-3.8-2.7-5-5 .8 2.3 3.5 3.5 5 5m-5.3-5.4c0 .4 0 .4.4.8-.1-.4-.4-.8-.4-.8M274.4 221.2H264h10.4m-16.2-7.7c-.4.4-1.2.8-1.5 1.5.4-.3.8-1.1 1.5-1.5m5.8 7.7l154.5 190.6c-.4 0-.4 0 0 0-.4 0-.4 0 0 0m-4.3-17.3v10.4-10.4zm0 0zm3.9 17.3"/><path class="st0" d="M119.9 291.9c-1.9-.8-3.8-1.2-5.8-1.9-3.8 2.3-3.8 2.3-8.8.8 3.5-4.6 3.5-5-1.2-9.6-.8 1.5-1.5 3.1-2.7 5-3.8-1.9 1.9-5.4-1.2-6.5 2.3-4.2 4.2-.4 6.9.4.8-2.3 1.5-4.6 1.9-6.9 1.2 0 2.7-.4 3.8-.4-.4-1.2-.4-2.3-.8-3.5-1.2 0-2.3 0-3.8.4 0-1.5-.4-2.7-.4-4.6-2.3 1.2-4.6 2.3-6.9 3.5 1.2 1.5 2.3 2.7 3.1 3.8 0 .4-.4.4-.4.8-1.9-.8-3.5-1.2-5.8-2.3-3.1 2.7-6.5 5.4-10 8.5H91v.8c0 .4 0 1.2-.4 1.9 1.9.4 3.5.8 5.4 1.2-1.9 3.8-2.7 5-3.8 4.2-3.5-2.3-5.4 0-6.9 2.3 3.1 1.5 7.3 0 10.8 4.6-1.2.8-2.3 1.5-3.1 2.3-1.9-1.5-2.7-3.5-4.2-4.2-3.1-1.2-6.9-.8-9.2 1.5-2.7 2.7-6.1 5-6.9 9.2-.8 4.2-3.5 8.1-4.2 12.7-1.2 6.5-2.3 13.1-3.5 19.6-.4 2.7-.8 5.4-1.2 8.8 10.4-7.7 31.9-28.4 35.7-35h-5.8c2.3-2.3 5-2.7 7.7-2.7 1.2 0 3.1-.4 3.8-1.5.8-.8.4-2.7.8-3.1 1.9-.8 3.5-1.2 5-1.9 3.1-1.5.4-4.6 1.2-6.9 4.2 3.5 4.2 3.5 8.8-.8.1.3-.7-.1-1.1-.5zm-41.1 17.7c2.7-2.3 2.7-2.3 4.2 1.9-1.9-.7-3.1-1.5-4.2-1.9m9.6 3.1c3.5-.8 3.5-.8 4.6 3.1-1.5-1.2-2.7-2-4.6-3.1m25.4-40h-.4zm0 0c0 .4 0 .4 0 0 0 .4 0 .4 0 0"/><path class="st0" d="M91.5 281.2c0 .4 0 1.2-.4 1.9.4-.8.4-1.5.4-1.9m-.4 1.9l30.3 10.4c-.4-.4-1.2-.8-1.5-1.2.4 0 1.2.4 1.5 1.2m-24.6-9.3c-1.9-.4-3.8-.8-5.4-1.2 1.6.5 3.5.9 5.4 1.2m26.2-11.5h-.8c.8 3.8-1.2 4.6-3.5 5.4-1.5.4-2.3 1.5-1.2 3.1.8 1.5 1.9 1.2 3.1 0 1.2-1.2 2.7-2.3 3.8-3.8 1.2-1.2 2.7-2.3 3.8-3.8-1.2 0-2.3-.4-3.8-.8-.7.3-1 .3-1.4-.1"/><path class="st0" d="M123 272.7c.4 0 1.2 0 1.5.4-.8 0-1.1 0-1.5-.4m5 1.2c.4 0 0 0 0 0m0 0s.4 0 0 0zm182.1-28.8c.4-.4.4-.8.8-1.2-1.9-1.5-3.8-3.1-6.1-4.6-1.2 1.2-1.9 2.3-2.7 3.5 1.9 3.4 4.9 2.6 8 2.3m-121 51.8c-4.2 0-7.7.4-11.1 2.7 4.9 2.7 8 1.9 11.1-2.7m-52.3-38.4c-5-.8-7.7 0-10.4 2.7 3.9-.8 8.1 2.3 10.4-2.7m-21.5 19.2s0-.4 0 0l.4-.4v-2.4l-.4-.4s-.4 0-.4-.4c-1.2 1.9-1.9 3.8-2.7 5.8 1.2.5 2.3-.6 3.1-2.2m-1.5-4.6zm0-.4c0 .4 0 .4 0 0zM264 220.8c0-.4-.4-.4-.4-.8l-.8-.8c-.4-.4-.4-.4-.8-.4s-.4-.4-.8-.4-.4-.4-.8-.4h-.4s-.4-.4-.8-.4H257c.8 1.9 1.5 3.5 2.3 5.4.8-.4 1.2-.4 1.9-.8.8-.4 1.2-.8 1.5-.8.5-.2.9-.2 1.3-.6 0 .4 0 0 0 0m-1.2.8c-.4.4-1.2.4-1.5.8.8-.4 1.2-.8 1.5-.8m1.2-.4s0-.4 0 0c0-.4 0 0 0 0m-1.2.4c.4 0 .8-.4 1.2-.4-.4 0-.8 0-1.2.4m1.2-.4c0-.4 0-.4 0 0 0-.4 0 0 0 0m0 0zm0-.4zm151.4 189.1c-.8-1.2-1.5-1.9-2.7-3.1-1.2 2.7-2.3 4.6-3.1 6.5.4 0 .8-.4 1.2-.4 1.1-1.1 2.7-1.8 4.6-3m-295.1-118h4.3v-1.6c-1.9 0-3.1-.4-3.8 0l-.4.4v.8c-.1 0-.1 0-.1.4v.4c-.4-.8-.4-.4 0-.4-.4 0-.4 0 0 0zm-.4 0zm2.3 0h-1.9 1.9m-2.3 0l.4 45.4c0-2.7-.8-3.8-4.2-2.7 1.9.4 1.1 3.4 4.2 2.7m-35.7-47.7c-1.9 0-3.1.4-4.6.4v1.5c1.5.8 3 1.2 4.6-1.9m60.7 5c3.1-.4 3.8-1.9 2.7-3.1-.8.8-1.6 2-2.7 3.1m112.2-55.7c-.4-.8-.8-1.2-1.5-1.5-.4 0-.8.4-1.2.4.4.4.4 1.2.8 1.5.3.4 1.1 0 1.9-.4m-168 44.6c0 .4-.3.4 0 0-.3.4-.3.4 0 0-.3.4-.3.4 0 0l-.4.4v.8c0 .4.4.8.8.4h.8v-2c-.4.4-.8.4-1.2.4zm0 0c.4 0 1.2-.4 1.5-.4-.7.4-1.1.4-1.5.4m1.6-.4zm17.7 48l1.2 1.2c.8-.8 1.2-1.5 1.9-1.9l-.8-.8c-1.2.4-1.6 1.1-2.3 1.5m207.8 20.8c.4-1.2.8-1.9.8-3.1-2.3.8-1.9 1.2-.8 3.1m1.2-3.1c-.4 0-.4 0 0 0-.4 0 0 0 0 0m0 0c-.4 0-.4 0 0 0zm-.4 0"/></svg>