<?xml version="1.0" encoding="utf-8"?>
<!-- Generator: Adobe Illustrator 19.1.0, SVG Export Plug-In . SVG Version: 6.00 Build 0)  -->
<svg version="1.1" id="Layer_1" xmlns="http://www.w3.org/2000/svg" xmlns:xlink="http://www.w3.org/1999/xlink" x="0px" y="0px"
	 viewBox="0 0 512 512" style="enable-background:new 0 0 512 512;" xml:space="preserve">
<path d="M403.7,64H108.3C83.8,64,64,83.8,64,108.3v295.4c0,24.4,19.8,44.3,44.3,44.3h295.4c24.5,0,44.3-19.9,44.2-44.4V108.3
	C447.9,83.8,428.2,64,403.7,64z M329.8,123.1c0-8.2,6.6-14.8,14.8-14.8h44.3c8.2,0,14.8,6.6,14.8,14.8v44.3
	c0,8.2-6.6,14.8-14.8,14.8h-44.3c-8.2,0-14.8-6.6-14.8-14.8V123.1z M256,182.1c40.8,0,73.9,33.1,73.9,73.9s-33.1,73.9-73.9,73.9
	s-73.9-33.1-73.9-73.9S215.2,182.1,256,182.1z M389,403.8H123.2c-8.2,0-14.8-6.6-14.8-14.8V226.5h33.4c-2.5,9.4-3.9,19.3-3.9,29.5
	c0,65.2,52.9,118.1,118.1,118.1S374.1,321.2,374.1,256c0-10.2-1.5-20-3.9-29.5h33.5l0.1,162.5C403.8,397.2,397.2,403.8,389,403.8z"
	/>
</svg>
