<svg id="Layer_1" xmlns="http://www.w3.org/2000/svg" viewBox="0 0 2500 970"><style>.st0{fill:#130f0f}</style><path class="st0" d="M992.7 187.6c0 36.2.7 41.4 20.7 43.1l11 1.1c2 1.4 1.4 7.6-.7 8.6-19.6-.7-31.4-1-45.2-1-13.8 0-25.9.3-48 1-2.1-1-2.8-6.9 0-8.6l12.4-1.1c19.7-1.7 21.4-6.9 21.4-43.1V33.3c0-10.7 0-11-10.4-11h-19c-14.8 0-33.8.7-42.5 8.6-8.3 7.6-11.7 15.2-15.5 23.8-2.8 2.1-7.6.3-9-2.4 5.5-15.5 10.7-37.6 13.1-51.4 1-.7 5.5-1 6.6 0 2.1 11 13.4 10.7 29.3 10.7H1057c18.6 0 21.7-.7 26.9-9.7 1.7-.7 5.5-.3 6.2 1-3.8 14.1-6.2 42.1-5.2 52.5-1.4 2.7-7.2 2.7-9 .7-1-8.6-3.4-21.4-8.6-25.2-7.9-5.9-21-8.6-40-8.6h-24.5c-10.4 0-10 .4-10 11.7l-.1 153.6zm220.4-59.7c-16.6 0-17.3.7-17.3 11v48.7c0 36.2 1.7 41.1 21.1 43.1l10 1c2.1 1.4 1.4 7.6-.7 8.6-18.6-.7-30.4-1.1-43.8-1.1-14.8 0-26.6.7-40 1.1-2.1-1.1-2.8-6.6-.7-8.6l5.9-1c19.3-3.5 20-6.9 20-43.1V63.3c0-36.2-2.4-42.1-20.4-43.5l-9-.7c-2.1-1.4-1.4-7.6.7-8.6 16.9.4 28.7 1 43.5 1 13.4 0 25.2-.4 40.1-1 2.1 1 2.8 7.3.7 8.6l-6.6.7c-20 2.1-20.7 7.2-20.7 43.5V103c0 10.7.7 11.1 17.3 11.1h98.7c16.5 0 17.3-.3 17.3-11.1V63.3c0-36.2-.7-41.4-21.1-43.5l-6.6-.7c-2.1-1.4-1.4-7.6.7-8.6 13.9.7 27.8 1 41.8 1 13.4 0 25.2-.4 40.7-1 2.1 1 2.8 7.3.7 8.6l-7.2.7c-20 2.1-20.7 7.2-20.7 43.5v124.2c0 36.2.7 40.7 20.7 43.1l8.3 1c2.1 1.4 1.4 7.6-.7 8.6-13.9-.7-27.8-1-41.8-1.1-14.1 0-26.6.4-41.8 1.1-2.1-1.1-2.8-6.6-.7-8.6l6.6-1c21.1-3.5 21.1-6.9 21.1-43.1v-48.7c0-10.3-.7-11-17.2-11l-98.9.1zm259.7-64.6c0-35.9-.7-41.1-21.1-43.5l-5.5-.7c-2-1.4-1.3-7.6.7-8.6 14.8.7 26.6 1 40.7 1h64.9c22.1 0 42.4 0 46.6-1 2.1 5.9 4.1 30.7 5.5 45.9-1.4 2.1-6.9 2.8-8.6.7-5.2-16.2-8.3-28.3-26.2-32.8-7.3-1.7-18.3-2.1-33.5-2.1h-24.8c-10.4 0-10.4.7-10.4 13.8v69c0 9.7 1.1 9.7 11.4 9.7h20c14.5 0 25.2-.7 29.4-2.1 4.1-1.4 6.6-3.5 8.3-12.1l2.8-14.2c1.7-2.1 7.6-2.1 9 .3 0 8.3-1.4 21.7-1.4 34.8 0 12.4 1.4 25.6 1.4 33.1-1.4 2.4-7.2 2.4-9 .3l-3.1-13.4c-1.4-6.2-3.8-11.4-10.7-13.1-4.8-1.4-13.1-1.7-26.6-1.7h-20c-10.3 0-11.4.3-11.4 9.3v48.6c0 18.3 1.1 30 6.6 35.9 4.1 4.1 11.4 7.9 41.8 7.9 26.6 0 36.6-1.4 44.2-5.2 6.2-3.5 15.5-15.5 24.5-33.5 2.4-1.7 7.3-.7 8.6 2.4-2.4 12.1-11.1 38.7-15.6 48-31-.7-61.8-1-92.5-1h-31c-14.8 0-26.6.4-46.9 1-2.1-1-2.8-6.6-.7-8.6l11.4-1c19.7-1.7 21.4-6.9 21.4-43.1l-.2-124zM76.1 490.3c-16.6 0-17.2.7-17.2 11.1V550c0 36.2 1.7 41.1 21 43.2l10 1c2 1.4 1.4 7.6-.7 8.6-18.6-.7-30.4-1-43.8-1-14.8 0-26.6.7-40 1-2.1-1-2.8-6.6-.7-8.6l5.9-1c19.3-3.5 20-6.9 20-43.2V425.8c0-36.2-2.4-42.1-20.3-43.5l-9-.7c-2.1-1.4-1.4-7.6.7-8.6 16.9.4 28.6 1 43.5 1 13.5 0 25.2-.4 40-1 2.1 1 2.8 7.3.7 8.6l-6.6.7c-20 2.1-20.7 7.3-20.7 43.5v39.7c0 10.7.7 11 17.2 11h98.7c16.6 0 17.2-.4 17.2-11v-39.7c0-36.2-.7-41.4-21-43.5l-6.6-.7c-2.1-1.4-1.4-7.6.7-8.6 15.9.7 27.6 1 41.8 1 13.5 0 25.2-.4 40.7-1 2.1 1 2.8 7.3.7 8.6l-7.3.7c-20 2.1-20.7 7.3-20.7 43.5V550c0 36.2.7 40.7 20.7 43.2l8.3 1c2.1 1.4 1.4 7.6-.7 8.6-13.9-.7-27.8-1-41.8-1-14.1 0-26.6.3-41.8 1-2.1-1-2.8-6.6-.7-8.6l6.6-1c21-3.5 21-6.9 21-43.2v-48.7c0-10.4-.7-11-17.2-11H76.1zm423.5-29.7c0-21.4-.7-61.1-6.6-71.5-2.4-4.1-8.6-6.6-17.2-7.2l-8.6-.7c-2.1-2.4-1.4-6.9.7-8.3 13.1.7 26.2 1.1 39.4 1 14.5 0 23.8-.3 36.2-1 2.8 1.7 2.4 6.2.7 8.3l-8.3.7c-8.6.7-15.2 3.8-17.2 8.3-4.8 11.4-4.8 51-4.8 70.4v39c0 30-4.8 61.8-24.2 82.5-14.8 16.2-40.4 25.2-65.9 25.2-23.8 0-47.6-4.5-64.5-19-18.3-15.2-26.9-40.4-26.9-81.5v-81.5c0-35.9-.7-41.8-20.7-43.5l-8.6-.7c-2.1-1.4-1.4-7.2.7-8.3 17.2.7 29 1 42.8 1 14.2 0 25.6-.3 42.4-1 2.1 1 2.8 6.9.7 8.3l-8.3.7c-20 1.7-20.7 7.6-20.7 43.5V500c0 55.6 17.2 92.1 70.1 92.1 50 0 69-39.3 69-91.8l-.2-39.7zm150.6 10.7c0 9.3 1 9.3 11.4 9.3h23.5c14.1 0 25.2-.7 29.3-2 3.8-1.4 6.6-3.1 8.6-12.1l3.1-13.8c1.7-2.1 7.6-2.1 9 0 0 8.3-1.4 22.1-1.4 34.9 0 12.4 1.4 25.5 1.4 33.5-1.4 2-6.6 2-9 0l-3.5-13.5c-1.7-6.2-4.5-11-11-13.1-4.8-1.4-13.4-1.7-26.6-1.7h-23.5c-10.4 0-11.4.4-11.4 9.3v48c0 36.2.7 41.4 21.1 43.2l11.7 1c2.1 1.4 1.4 7.6-.7 8.6-20.4-.7-32.1-1.1-45.9-1.1-15.2 0-26.9.4-43.1 1.1-2.1-1.1-2.8-6.6-.7-8.6l8.6-1c20-2.4 20.7-6.9 20.7-43.2V425.8c0-36.2-.7-41.1-20.7-43.5l-5.5-.7c-2.1-1.4-1.4-7.6.7-8.6 14.5.7 26.2 1 40 1h63.5c22.1 0 42.1 0 46.6-1 0 15.9.3 32.4 1 45.6-1 2.1-5.9 3.1-8.3 1-2.8-15.5-6.9-28.3-24.2-32.8-7.6-2.1-19-2.1-33.5-2.1h-21c-10.4 0-10.4.7-10.4 13.8l.2 72.8zm207.4 0c0 9.3 1 9.3 11.4 9.3h23.5c14.1 0 25.2-.7 29.3-2 3.8-1.4 6.6-3.1 8.6-12.1l3.1-13.8c1.7-2.1 7.6-2.1 9 0 0 8.3-1.4 22.1-1.4 34.9 0 12.4 1.4 25.5 1.4 33.5-1.4 2-6.6 2-9 0l-3.5-13.5c-1.7-6.2-4.5-11-11-13.1-4.8-1.4-13.5-1.7-26.6-1.7H869c-10.4 0-11.4.4-11.4 9.3v48c0 36.2.7 41.4 21.1 43.2l11.7 1c2.1 1.4 1.4 7.6-.7 8.6-20.4-.7-32.1-1.1-45.9-1.1-15.2 0-26.9.4-43.1 1.1-2.1-1.1-2.8-6.6-.7-8.6l8.6-1c20-2.4 20.7-6.9 20.7-43.2V425.8c0-36.2-.7-41.1-20.7-43.5l-5.5-.7c-2.1-1.4-1.4-7.6.7-8.6 14.5.7 26.2 1 40 1h63.5c22.1 0 42.1 0 46.6-1 0 15.9.3 32.4 1 45.6-1 2.1-5.9 3.1-8.3 1-2.8-15.5-6.9-28.3-24.2-32.8-7.6-2.1-19-2.1-33.5-2.1h-21.1c-10.3 0-10.3.7-10.3 13.8l.1 72.8zm180.8-44.8c0-36.6-.7-42.4-21.1-44.2l-8.6-.7c-2.1-1.4-1.4-7.6.7-8.6 17.3.7 29 1 43.5 1 13.8 0 25.5-.3 42.8-1 2.1 1 2.8 7.3.7 8.6l-8.6.7c-20.4 1.7-21.1 7.6-21.1 44.2v122.9c0 36.6.7 41.4 21.1 43.8l8.6 1c2.1 1.4 1.4 7.6-.7 8.6-17.2-.7-29-1-42.8-1-14.5 0-26.2.3-43.5 1-2.1-1-2.8-6.6-.7-8.6l8.6-1c20.4-2.4 21.1-7.3 21.1-43.8V426.5zm330.7 116.6c0 10.4 0 51.4 1 60.4-.7 2.1-2.8 3.8-6.6 3.8-4.1-5.9-14.2-18-44.2-52.1l-80.1-91.1c-9.3-10.7-32.8-39-40-46.6h-.7c-1.4 4.1-1.7 12.1-1.7 22.4v75.2c0 16.2.4 61.1 6.2 71.4 2.1 3.8 9 5.9 17.6 6.6l10.7 1c2.1 2.8 1.7 6.9-.7 8.6-13.5-.7-26.9-1-40.4-1-14.5 0-23.8.4-35.9 1-2.4-1.7-2.8-6.6-.7-8.6l9.3-1c7.9-1 13.4-3.1 15.2-6.9 4.8-12.4 4.5-54.5 4.5-71.1v-99.8c0-9.6-.3-16.9-7.6-24.8-4.8-4.8-13.1-7.2-21.4-8.3l-5.9-.7c-2.1-2-2.1-7.2.7-8.6 14.5 1 32.8 1 39 1 5.5 0 11.4-.3 15.9-1 6.9 17.6 47.6 63.2 59 75.9l33.5 37.6c23.8 26.6 40.8 45.9 57 62.5h.7c1.4-1.7 1.4-7.3 1.4-14.5v-73.9c0-16.2-.4-61.1-6.9-71.4-2.1-3.1-7.6-5.2-21.4-6.9l-5.9-.7c-2.4-2-2.1-7.6.7-8.6 15.9.7 27.6 1 40.7 1 14.8 0 23.8-.4 35.6-1 2.8 1.7 2.8 6.6.7 8.6l-4.8.7c-11 1.7-18 4.5-19.3 7.3-5.9 12.4-5.2 55.2-5.2 71.1v82.5zm280 23.5c0 13.8 2.1 22.1 8.3 24.5 1.1 1.2.9 3-.2 4l-.1.1c-4.1 0-10.3 1.4-16.9 3.1-18.3 4.9-43.1 9-61.8 9-41 0-78.7-11.4-105.3-38.3-20.7-20.7-31.7-48-31.7-78.4 0-29.3 9.7-59 31.1-81.8 23.1-24.2 57.3-40.4 109.4-40.4 19.7 0 38 3.8 43.8 5.2 6.5 1.4 17.2 3.8 21.4 3.1 0 11.4 2.1 29.4 5.2 50-1 2.8-7.3 3.1-9.3 1.1-9.6-37.3-35.6-49-70.8-49-66.9 0-96.3 47.7-96.3 99.4 0 66.2 34.2 118.4 103.6 118.4 21.4 0 34.2-4.5 38-10.4 1.7-2.4 3.5-8.6 3.5-19.7v-13.8c0-29-1.1-31-22.4-33.5l-15.2-1.7c-2.8-1.4-2.4-7.6 0-8.6 10 .7 29 1 49.4 1 13.5 0 25.2-.3 36.6-1 2.4 1.4 2.8 6.6.3 8.6l-5.5.7c-14.5 1.7-14.8 11.4-14.8 29l-.3 19.4zm182.5-16.6c0 36.2.7 41.4 20.7 43.1l11 1c2 1.4 1.4 7.6-.7 8.6-19.7-.7-31.4-1-45.2-1-13.8 0-25.9.4-48 1-2.1-1-2.8-6.9 0-8.6l12.5-1c19.7-1.7 21.4-6.9 21.4-43.1V395.8c0-10.7 0-11-10.3-11h-19c-14.8 0-33.8.7-42.5 8.6-8.3 7.6-11.7 15.2-15.5 23.8-2.8 2.1-7.6.4-9-2.4 5.6-15.5 10.7-37.6 13.1-51.4 1-.7 5.5-1 6.6 0 2.1 11 13.5 10.7 29.4 10.7h139.8c18.6 0 21.7-.7 26.9-9.7 1.7-.7 5.5-.3 6.2 1-3.8 14.2-6.2 42.1-5.2 52.5-1.3 2.8-7.2 2.8-9 .7-1-8.6-3.4-21.4-8.6-25.2-7.9-5.9-21-8.6-40-8.6h-24.5c-10.3 0-10 .4-10 11.7l-.1 153.5zm133.3-59.7c0-69 51.8-121.8 122.9-121.8 79.7 0 119.7 57.6 119.7 118.4 0 69.7-53.1 120.4-119.7 120.4-76.6 0-122.9-54.8-122.9-117m208.2 7.3c0-57-25.2-118.4-91.1-118.4-35.9 0-82.5 24.5-82.5 100.1 0 51.1 24.8 117.4 92.8 117.4 41.4-.1 80.8-31.1 80.8-99.1m296.1 45.5c0 10.4 0 51.4 1 60.4-.7 2.1-2.8 3.8-6.6 3.8-4.1-5.9-14.2-18-44.2-52.1l-80.1-91.1c-9.3-10.7-32.8-39-40.1-46.6h-.7c-1.4 4.1-1.7 12.1-1.7 22.4v75.2c0 16.2.3 61.1 6.2 71.4 2.1 3.8 9 5.9 17.6 6.6l10.7 1c2.1 2.8 1.7 6.9-.7 8.6-13.4-.7-26.9-1-40.4-1-14.5 0-23.8.3-35.9 1-2.4-1.7-2.8-6.6-.7-8.6l9.3-1c7.9-1 13.5-3.1 15.2-6.9 4.8-12.4 4.5-54.5 4.5-71.1v-99.8c0-9.6-.3-16.9-7.6-24.8-4.8-4.8-13.1-7.2-21.4-8.3l-5.9-.7c-2.1-2-2.1-7.2.7-8.6 14.5 1 32.8 1 39 1 5.5 0 11.4-.3 15.9-1 6.9 17.6 47.6 63.2 59 75.9l33.5 37.6c23.8 26.6 40.7 45.9 56.9 62.5h.7c1.4-1.7 1.4-7.3 1.4-14.5v-73.9c0-16.2-.3-61.1-6.9-71.4-2.1-3.1-7.6-5.2-21.4-6.9l-5.9-.7c-2.4-2-2-7.6.7-8.6 15.9.7 27.6 1 40.7 1 14.8 0 23.8-.4 35.5-1 2.8 1.7 2.8 6.6.7 8.6l-4.9.7c-11.1 1.7-18 4.5-19.3 7.3-5.9 12.4-5.2 55.2-5.2 71.1l.4 82.5zM855.3 912.5c0 36.2.7 40.7 22.8 43.1l9.4 1.1c2 1.7 1.4 7.6-.7 8.6-19.7-.7-31-1-44.9-1-14.5 0-26.9.3-42.1 1-2.1-1-2.8-6.6-.7-8.6l7.3-1.1c20-2.7 20.7-6.9 20.7-43.1V785.1c0-29.3-.7-35.2-16.2-36.9l-12.4-1.4c-2.4-2.1-2.1-7.2.7-8.6 18.3-2.4 39.7-2.8 68.3-2.8 28.7 0 50.1 3.8 66.3 13.8 15.9 10 27.6 28 27.6 51.8 0 31.7-19.7 47.6-34.5 54.9-15.2 7.2-33.5 10.3-47.6 10.3-2.4-1-2.4-6.2-.4-6.9 37.3-6.9 50.8-28 50.8-58 0-33.5-19.7-55.2-55.6-55.2-18.3 0-18.6 1.4-18.6 12.4l-.2 154zm155.4-59.7c0-69 51.8-121.8 122.9-121.8 79.7 0 119.8 57.6 119.8 118.4 0 69.7-53.1 120.4-119.8 120.4-76.6 0-122.9-54.9-122.9-117m208.1 7.2c0-57-25.2-118.4-91.1-118.4-35.9 0-82.5 24.5-82.5 100.1 0 51.1 24.8 117.3 92.8 117.3 41.5.1 80.8-31 80.8-99m148.4 109.8c-29 0-47.3-9-53.9-12.8-4.1-7.6-8.6-32.1-9.3-48.3 1.7-2.4 6.9-3.1 8.3-1 5.2 17.6 19.3 51.4 59.4 51.4 29 0 43.1-19 43.1-39.7 0-15.2-3.1-32.1-28.3-48.3l-32.8-21.4c-17.3-11.4-37.3-31.1-37.3-59.4 0-32.8 25.5-59.4 70.4-59.4 10.7 0 23.1 2.1 32.1 4.5 4.5 1.4 9.3 2 12.1 2 3.1 8.3 6.2 27.6 6.2 42.1-1.4 2.1-6.9 3.1-8.6 1-4.5-16.6-13.8-39-46.9-39-33.8 0-41.1 22.5-41.1 38.3 0 20 16.6 34.5 29.3 42.5l27.6 17.2c21.7 13.5 43.1 33.5 43.1 66.3.1 38.1-28.6 64-73.4 64m245.2-57.3c0 36.2.7 41.4 20.7 43.1l11 1.1c2 1.4 1.4 7.6-.7 8.6-19.7-.7-31.4-1-45.2-1-13.8 0-25.9.3-48 1-2.1-1-2.8-6.9 0-8.6l12.4-1.1c19.7-1.7 21.4-6.9 21.4-43.1V758.2c0-10.7 0-11-10.4-11h-19c-14.8 0-33.8.7-42.4 8.6-8.3 7.6-11.7 15.2-15.5 23.8-2.8 2.1-7.6.3-9-2.4 5.5-15.5 10.7-37.6 13.1-51.4 1-.7 5.5-1 6.6 0 2.1 11 13.4 10.7 29.3 10.7h139.8c18.7 0 21.7-.7 26.9-9.7 1.7-.7 5.5-.3 6.2 1-3.8 14.2-6.2 42.1-5.2 52.5-1.4 2.8-7.3 2.8-9 .7-1-8.6-3.4-21.4-8.6-25.2-8-5.9-21.1-8.6-40-8.6h-24.5c-10.4 0-10 .4-10 11.8l.1 153.5z"/></svg>