<svg id="Layer_1" xmlns="http://www.w3.org/2000/svg" viewBox="0 0 187.1 43.6"><style>.st0{fill-rule:evenodd;clip-rule:evenodd;fill:#141111}</style><path class="st0" d="M0 .4h6.8v34.5H0V.4zm25.4 7.5c1.7-.2 3.5-.2 5.2 0 1.7.2 3.4.9 4.9 1.6 1.5.8 2.5 1.7 3.4 2.8.9 1.3 1.5 2.6 1.9 4 .2.8.4 1.7.4 2.6l.2 15.9H35V21.4c-.2-1.3-.5-2.6-.7-3.9-.1-.8-.4-1.7-1.2-2.3-.7-.5-1.6-1-2.4-1.2-1.2-.3-2.5-.5-3.7-.5-1.4 0-2.7.1-4 .4-1.1.2-2.2.5-3.1 1l-2.3 1.4-1 .6v17.9h-6.2V8.3h6.2v2.3c.9-.5 1.7-1.1 2.7-1.4 1.9-.5 3.9-1 6.1-1.3zM159.2 19.2h20.6c-.2-.5-.3-1-.6-1.5-.5-.7-1.2-1.3-1.9-1.9-.8-.6-1.7-1.2-2.7-1.5-1.1-.4-2.2-.7-3.4-.8-1.3-.1-2.5-.1-3.8 0-1.1.1-2.2.3-3.2.7-.9.4-1.9.8-2.7 1.5-.7.6-1.4 1.2-1.8 2l-.5 1.5zM141.5 8.3l-19.6 35.3h-7l5.1-9-14.2-26.3h7.3l10.7 19.9 10.7-19.9h7zm1.7-7.9h6.5V35h-6.5V.4zm19.5 8.7c2.2-.5 4.5-.9 6.8-.9s4.5.5 6.7 1c2.1.5 3.7 1.6 5.1 2.8 1.6 1.4 2.8 3.1 3.6 5 1 2.3 1.8 4.5 2.2 7.1h-27.9c.4 1 .9 1.9 1.5 2.6.7.8 1.5 1.4 2.4 2 .9.6 2 .9 3 1 1.1.2 2.3.4 3.4.4 1.8 0 3.5-.2 5.2-.4 1.2-.2 2.3-.4 3.5-.8.9-.3 1.8-.7 2.6-1.2l1.9-1 3.2 4.3c-1 .6-2.1 1.3-3.1 1.9-1.2.7-2.3 1.2-3.6 1.5-1.4.4-2.8.7-4.3.9-1.8.2-3.7.1-5.5.2-2.6 0-4.8-.5-7.2-1.2-2-.6-3.7-1.4-5.2-2.8-1.3-1.2-2.4-2.6-3.1-4.2-.7-1.7-1-3.6-1-5.3.1-2 .5-3.9 1.3-5.7.8-1.8 1.9-3.2 3.2-4.4 1.6-1.2 3.4-2.3 5.3-2.8zM46.2 10.3c.2 1.7.7 3.2 1.9 4.5 1.3 1.5 2.8 2.4 4.4 3 2 .8 4 1.4 6.1 1.6 1.8.2 3.6.3 5.4.4 2 .1 3.9.1 5.9.4 1.5.2 2.9.6 4.4 1 1.2.3 2 1.2 2.7 2.2.4.6.5 1.4.2 2.3-.3 1-.8 1.8-1.5 2.3-.9.7-1.8 1.3-3.1 1.6-1.4.3-2.8.6-4.2.6-2 .1-4 0-6.1-.2-2.1-.2-4.2-.6-6.3-1-1.6-.4-3.3-.6-4.8-1.5l-3.7-2.2-3.2 5.2c1.6.8 3.1 1.6 4.7 2.3 1.6.7 3.3 1.4 5 1.8 1.8.4 3.8.6 5.7.8 2.1.2 4.3.3 6.5.2 2.5-.1 4.9-.4 7.3-.9 2.1-.4 3.8-1.3 5.6-2.3 1.5-.8 2.5-2.2 3.5-3.6.9-1.4 1.2-2.8 1-4.4-.1-2-.9-3.7-2.3-5.2-1.2-1.4-2.6-2.7-4.6-3.3-2.1-.7-4.3-1.2-6.5-1.5-2.1-.3-4.2-.3-6.3-.5l-3-.3c-1.3-.2-2.6-.2-3.9-.5-1.2-.2-2.2-.7-3.1-1.4-.7-.6-1.9-1-1.9-1.9-.1-.8 1-1.4 1.6-1.9.8-.7 1.6-1.2 2.6-1.6 1.2-.5 2.6-.7 3.9-.9 1.3-.2 2.5-.3 3.8-.3 1.8 0 3.5.1 5.2.3 1.5.2 2.9.6 4.3 1 1.3.4 2.6.8 3.8 1.5l3 1.6L83.5 5c-1.2-.6-2.4-1.4-3.6-1.9-1.4-.6-2.8-1.2-4.2-1.6C74 1 72.2.7 70.5.5 68.3.2 66.1-.1 64 0c-2.4.1-4.7.4-7.1.8-2 .3-4.1.9-5.8 1.9-1.5.9-2.9 2-3.8 3.4-.9 1.3-1.3 2.6-1.1 4.2zm38.2-2h4.4V1.5h6.5v6.9h8.4v5.2h-8.4c0 5.1-.7 10.3 0 15.3.1.8 1.2.8 1.9 1 .8.2 1.6.4 2.4.4.6 0 1.2-.1 1.9-.2.5-.1.9-.2 1.4-.3l.5-.1.3-.3h.2l1.4 5.4-.8.2c-.6.1-1.3.3-1.9.4-.8.1-1.6.3-2.4.4-.9.1-1.8.3-2.7.2-1.2-.1-2.4-.4-3.6-.6-1-.2-1.9-.7-2.6-1.5-.6-.7-1.5-1.5-1.6-2.4l-.5-3.7-.3-14h-4.4V8.3h-.1z"/></svg>